<svg width="190" height="191" viewBox="0 0 190 191" fill="none" xmlns="http://www.w3.org/2000/svg">
<rect y="0.458832" width="190" height="190" fill="white"/>
<rect y="0.458832" width="190" height="190" rx="95" fill="#916A3F"/>
<path d="M27.7009 46.9167C20.5264 55.2774 17.5389 60.6705 19.6784 58.9588L28.8099 50.2622C29.5779 49.5307 30.7834 49.526 31.5571 50.2514L76.6715 92.5461C77.4958 93.3189 77.5168 94.6205 76.7178 95.4194L69.035 103.102C68.1785 103.959 69.2976 105.316 70.3016 104.638L76.0079 100.786C79.3591 98.5244 83.8074 98.7748 86.8836 101.399L148.4 153.869C149.1 154.465 150.154 154.365 150.728 153.647C151.263 152.978 151.188 152.009 150.557 151.431L36.0793 46.4929C33.6452 44.2617 29.8512 44.4109 27.7009 46.9167Z" fill="#382B23"/>
<path d="M31.8204 48.9917L32.5059 49.7199L21.3932 60.1808C21.1922 60.3701 20.8757 60.3605 20.6864 60.1595V60.1595C20.4972 59.9584 20.5067 59.642 20.7078 59.4527L31.8204 48.9917Z" fill="#382B23"/>
<path d="M33.7484 50.7638L34.4338 51.4919L23.3212 61.9529C23.1201 62.1421 22.8037 62.1326 22.6144 61.9315V61.9315C22.4251 61.7304 22.4347 61.414 22.6358 61.2247L33.7484 50.7638Z" fill="#382B23"/>
<path d="M35.6764 52.5359L36.3618 53.264L25.2492 63.725C25.0481 63.9142 24.7317 63.9047 24.5424 63.7036V63.7036C24.3531 63.5025 24.3627 63.1861 24.5638 62.9968L35.6764 52.5359Z" fill="#382B23"/>
<path d="M37.6044 54.308L38.2898 55.0361L27.1772 65.497C26.9761 65.6863 26.6597 65.6768 26.4704 65.4757V65.4757C26.2811 65.2746 26.2907 64.9582 26.4917 64.7689L37.6044 54.308Z" fill="#382B23"/>
<path d="M39.5323 56.08L40.2178 56.8082L29.1051 67.2691C28.9041 67.4584 28.5876 67.4489 28.3984 67.2478V67.2478C28.2091 67.0467 28.2186 66.7303 28.4197 66.541L39.5323 56.08Z" fill="#382B23"/>
<path d="M41.4603 57.8521L42.1458 58.5802L31.0331 69.0412C30.8321 69.2305 30.5156 69.2209 30.3263 69.0198V69.0198C30.1371 68.8188 30.1466 68.5023 30.3477 68.313L41.4603 57.8521Z" fill="#382B23"/>
<path d="M43.3884 59.6242L44.0739 60.3523L32.9612 70.8133C32.7602 71.0025 32.4437 70.993 32.2544 70.7919V70.7919C32.0652 70.5909 32.0747 70.2744 32.2758 70.0851L43.3884 59.6242Z" fill="#382B23"/>
<path d="M45.3164 61.3963L46.0018 62.1244L34.8892 72.5854C34.6881 72.7746 34.3717 72.7651 34.1824 72.564V72.564C33.9931 72.3629 34.0027 72.0465 34.2038 71.8572L45.3164 61.3963Z" fill="#382B23"/>
<path d="M47.2444 63.1684L47.9298 63.8965L36.8172 74.3575C36.6161 74.5467 36.2997 74.5372 36.1104 74.3361V74.3361C35.9211 74.135 35.9307 73.8186 36.1317 73.6293L47.2444 63.1684Z" fill="#382B23"/>
<path d="M49.1724 64.9404L49.8578 65.6685L38.7452 76.1295C38.5441 76.3188 38.2277 76.3092 38.0384 76.1081V76.1081C37.8491 75.9071 37.8587 75.5906 38.0597 75.4014L49.1724 64.9404Z" fill="#382B23"/>
<path d="M51.1003 66.7125L51.7858 67.4406L40.6731 77.9016C40.4721 78.0909 40.1556 78.0813 39.9664 77.8802V77.8802C39.7771 77.6792 39.7866 77.3627 39.9877 77.1735L51.1003 66.7125Z" fill="#382B23"/>
<path d="M53.0283 68.4846L53.7138 69.2127L42.6011 79.6737C42.4 79.863 42.0836 79.8534 41.8943 79.6523V79.6523C41.7051 79.4513 41.7146 79.1348 41.9157 78.9455L53.0283 68.4846Z" fill="#382B23"/>
<path d="M54.9563 70.2567L55.6417 70.9848L44.5291 81.4458C44.328 81.6351 44.0116 81.6255 43.8223 81.4244V81.4244C43.633 81.2234 43.6426 80.9069 43.8437 80.7176L54.9563 70.2567Z" fill="#382B23"/>
<path d="M56.8843 72.0287L57.5697 72.7569L46.4571 83.2178C46.256 83.4071 45.9396 83.3975 45.7503 83.1965V83.1965C45.561 82.9954 45.5706 82.679 45.7716 82.4897L56.8843 72.0287Z" fill="#382B23"/>
<path d="M58.8124 73.8008L59.4978 74.5289L48.3852 84.9899C48.1841 85.1792 47.8677 85.1696 47.6784 84.9686V84.9686C47.4891 84.7675 47.4987 84.451 47.6997 84.2618L58.8124 73.8008Z" fill="#382B23"/>
<path d="M60.7404 75.5729L61.4258 76.301L50.3132 86.762C50.1121 86.9513 49.7956 86.9417 49.6064 86.7407V86.7407C49.4171 86.5396 49.4267 86.2231 49.6277 86.0339L60.7404 75.5729Z" fill="#382B23"/>
<path d="M62.6683 77.345L63.3538 78.0731L52.2411 88.5341C52.0401 88.7234 51.7236 88.7138 51.5343 88.5127V88.5127C51.3451 88.3117 51.3546 87.9952 51.5557 87.806L62.6683 77.345Z" fill="#382B23"/>
<path d="M64.5963 79.1171L65.2817 79.8452L54.1691 90.3062C53.968 90.4955 53.6516 90.4859 53.4623 90.2848V90.2848C53.273 90.0838 53.2826 89.7673 53.4837 89.5781L64.5963 79.1171Z" fill="#382B23"/>
<path d="M66.5243 80.8891L67.2097 81.6173L56.0971 92.0782C55.896 92.2675 55.5796 92.2579 55.3903 92.0569V92.0569C55.201 91.8558 55.2106 91.5394 55.4117 91.3501L66.5243 80.8891Z" fill="#382B23"/>
<path d="M68.4523 82.6612L69.1377 83.3894L58.0251 93.8503C57.824 94.0396 57.5076 94.03 57.3183 93.829V93.829C57.129 93.6279 57.1386 93.3115 57.3396 93.1222L68.4523 82.6612Z" fill="#382B23"/>
<path d="M70.3802 84.4333L71.0657 85.1615L59.953 95.6224C59.752 95.8117 59.4355 95.8021 59.2463 95.6011V95.6011C59.057 95.4 59.0665 95.0836 59.2676 94.8943L70.3802 84.4333Z" fill="#382B23"/>
<path d="M72.3082 86.2054L72.9937 86.9335L61.881 97.3945C61.68 97.5838 61.3635 97.5742 61.1742 97.3732V97.3732C60.985 97.1721 60.9945 96.8557 61.1956 96.6664L72.3082 86.2054Z" fill="#382B23"/>
<path d="M74.2362 87.9774L74.9216 88.7056L63.809 99.1665C63.6079 99.3558 63.2915 99.3463 63.1022 99.1452V99.1452C62.9129 98.9441 62.9225 98.6277 63.1236 98.4384L74.2362 87.9774Z" fill="#382B23"/>
<path d="M76.1643 89.7495L76.8497 90.4777L65.7371 100.939C65.536 101.128 65.2196 101.118 65.0303 100.917V100.917C64.841 100.716 64.8506 100.4 65.0517 100.211L76.1643 89.7495Z" fill="#382B23"/>
<path d="M78.0923 91.5216L78.7777 92.2498L67.6651 102.711C67.464 102.9 67.1476 102.89 66.9583 102.689V102.689C66.769 102.488 66.7786 102.172 66.9796 101.983L78.0923 91.5216Z" fill="#382B23"/>
<path d="M161.978 46.9167C169.152 55.2774 172.14 60.6705 170 58.9588L160.869 50.2622C160.101 49.5307 158.895 49.526 158.121 50.2514L113.007 92.5461C112.183 93.3189 112.162 94.6205 112.961 95.4194L120.643 103.102C121.5 103.959 120.381 105.316 119.377 104.638L113.671 100.786C110.319 98.5244 105.871 98.7748 102.795 101.399L41.278 153.869C40.5788 154.465 39.5248 154.365 38.9507 153.647C38.4156 152.978 38.4904 152.009 39.1218 151.431L153.599 46.4929C156.033 44.2617 159.827 44.4109 161.978 46.9167Z" fill="#382B23"/>
<path d="M157.858 48.9917L157.173 49.7199L168.285 60.1808C168.486 60.3701 168.803 60.3605 168.992 60.1595V60.1595C169.181 59.9584 169.172 59.642 168.971 59.4527L157.858 48.9917Z" fill="#382B23"/>
<path d="M155.93 50.7638L155.245 51.4919L166.357 61.9529C166.558 62.1421 166.875 62.1326 167.064 61.9315V61.9315C167.253 61.7304 167.244 61.414 167.043 61.2247L155.93 50.7638Z" fill="#382B23"/>
<path d="M154.002 52.5359L153.317 53.264L164.429 63.725C164.63 63.9142 164.947 63.9047 165.136 63.7036V63.7036C165.325 63.5025 165.316 63.1861 165.115 62.9968L154.002 52.5359Z" fill="#382B23"/>
<path d="M152.074 54.308L151.389 55.0361L162.501 65.497C162.702 65.6863 163.019 65.6768 163.208 65.4757V65.4757C163.397 65.2746 163.388 64.9582 163.187 64.7689L152.074 54.308Z" fill="#382B23"/>
<path d="M150.146 56.08L149.461 56.8082L160.573 67.2691C160.774 67.4584 161.091 67.4489 161.28 67.2478V67.2478C161.469 67.0467 161.46 66.7303 161.259 66.541L150.146 56.08Z" fill="#382B23"/>
<path d="M148.218 57.8521L147.533 58.5802L158.645 69.0412C158.846 69.2305 159.163 69.2209 159.352 69.0198V69.0198C159.541 68.8188 159.532 68.5023 159.331 68.313L148.218 57.8521Z" fill="#382B23"/>
<path d="M146.29 59.6242L145.605 60.3523L156.717 70.8133C156.918 71.0025 157.235 70.993 157.424 70.7919V70.7919C157.613 70.5909 157.604 70.2744 157.403 70.0851L146.29 59.6242Z" fill="#382B23"/>
<path d="M144.362 61.3963L143.677 62.1244L154.789 72.5854C154.99 72.7746 155.307 72.7651 155.496 72.564V72.564C155.685 72.3629 155.676 72.0465 155.475 71.8572L144.362 61.3963Z" fill="#382B23"/>
<path d="M142.434 63.1684L141.749 63.8965L152.861 74.3575C153.062 74.5467 153.379 74.5372 153.568 74.3361V74.3361C153.757 74.135 153.748 73.8186 153.547 73.6293L142.434 63.1684Z" fill="#382B23"/>
<path d="M140.506 64.9404L139.821 65.6685L150.933 76.1295C151.134 76.3188 151.451 76.3092 151.64 76.1081V76.1081C151.829 75.9071 151.82 75.5906 151.619 75.4014L140.506 64.9404Z" fill="#382B23"/>
<path d="M138.578 66.7125L137.893 67.4406L149.005 77.9016C149.206 78.0909 149.523 78.0813 149.712 77.8802V77.8802C149.901 77.6792 149.892 77.3627 149.691 77.1735L138.578 66.7125Z" fill="#382B23"/>
<path d="M136.65 68.4846L135.965 69.2127L147.077 79.6737C147.278 79.863 147.595 79.8534 147.784 79.6523V79.6523C147.973 79.4513 147.964 79.1348 147.763 78.9455L136.65 68.4846Z" fill="#382B23"/>
<path d="M134.722 70.2567L134.037 70.9848L145.149 81.4458C145.35 81.6351 145.667 81.6255 145.856 81.4244V81.4244C146.045 81.2234 146.036 80.9069 145.835 80.7176L134.722 70.2567Z" fill="#382B23"/>
<path d="M132.794 72.0287L132.109 72.7569L143.221 83.2178C143.422 83.4071 143.739 83.3975 143.928 83.1965V83.1965C144.117 82.9954 144.108 82.679 143.907 82.4897L132.794 72.0287Z" fill="#382B23"/>
<path d="M130.866 73.8008L130.181 74.5289L141.293 84.9899C141.494 85.1792 141.811 85.1696 142 84.9686V84.9686C142.189 84.7675 142.18 84.451 141.979 84.2618L130.866 73.8008Z" fill="#382B23"/>
<path d="M128.938 75.5729L128.253 76.301L139.365 86.762C139.566 86.9513 139.883 86.9417 140.072 86.7407V86.7407C140.261 86.5396 140.252 86.2231 140.051 86.0339L128.938 75.5729Z" fill="#382B23"/>
<path d="M127.01 77.345L126.325 78.0731L137.437 88.5341C137.638 88.7234 137.955 88.7138 138.144 88.5127V88.5127C138.333 88.3117 138.324 87.9952 138.123 87.806L127.01 77.345Z" fill="#382B23"/>
<path d="M125.082 79.1171L124.397 79.8452L135.509 90.3062C135.71 90.4955 136.027 90.4859 136.216 90.2848V90.2848C136.405 90.0838 136.396 89.7673 136.195 89.5781L125.082 79.1171Z" fill="#382B23"/>
<path d="M123.154 80.8891L122.469 81.6173L133.581 92.0782C133.782 92.2675 134.099 92.2579 134.288 92.0569V92.0569C134.477 91.8558 134.468 91.5394 134.267 91.3501L123.154 80.8891Z" fill="#382B23"/>
<path d="M121.226 82.6612L120.541 83.3894L131.653 93.8503C131.854 94.0396 132.171 94.03 132.36 93.829V93.829C132.549 93.6279 132.54 93.3115 132.339 93.1222L121.226 82.6612Z" fill="#382B23"/>
<path d="M119.298 84.4333L118.613 85.1615L129.725 95.6224C129.926 95.8117 130.243 95.8021 130.432 95.6011V95.6011C130.621 95.4 130.612 95.0836 130.411 94.8943L119.298 84.4333Z" fill="#382B23"/>
<path d="M117.37 86.2054L116.685 86.9335L127.797 97.3945C127.999 97.5838 128.315 97.5742 128.504 97.3732V97.3732C128.694 97.1721 128.684 96.8557 128.483 96.6664L117.37 86.2054Z" fill="#382B23"/>
<path d="M115.442 87.9774L114.757 88.7056L125.869 99.1665C126.071 99.3558 126.387 99.3463 126.576 99.1452V99.1452C126.766 98.9441 126.756 98.6277 126.555 98.4384L115.442 87.9774Z" fill="#382B23"/>
<path d="M113.514 89.7495L112.829 90.4777L123.941 100.939C124.142 101.128 124.459 101.118 124.648 100.917V100.917C124.837 100.716 124.828 100.4 124.627 100.211L113.514 89.7495Z" fill="#382B23"/>
<path d="M111.586 91.5216L110.901 92.2498L122.013 102.711C122.214 102.9 122.531 102.89 122.72 102.689V102.689C122.909 102.488 122.9 102.172 122.699 101.983L111.586 91.5216Z" fill="#382B23"/>
<path d="M105.847 27.7352C109.002 24.3294 103.791 68.1074 100.355 91.0928C99.6971 95.4932 99.6989 99.9876 100.611 104.343C105.43 127.367 112.293 138.139 115.347 140.735L108.347 143.735C107.225 129.513 99.5944 116.517 95.2041 110.808C94.7903 110.27 93.9749 110.325 93.6207 110.904C84.6086 125.639 82.0097 138.864 81.8474 143.735L75.3474 140.735C84.742 130.979 88.0438 111.785 88.7172 100.916C88.8484 98.7992 88.7015 96.6923 88.4128 94.5908C84.8559 68.6995 79.1598 23.5119 81.8474 27.7352C84.6474 32.1352 91.6807 63.2679 94.8474 76.9345C96.8474 63.4345 103.347 30.4345 105.847 27.7352Z" fill="url(#paint0_linear_40_859)"/>
<path fill-rule="evenodd" clip-rule="evenodd" d="M119.589 163.219C124.865 161.365 127.388 154.873 125.225 148.719C123.062 142.565 117.032 139.078 111.757 140.932C106.482 142.786 103.959 149.278 106.122 155.432C108.284 161.587 114.314 165.073 119.589 163.219ZM118.937 161.362C123.333 159.817 125.435 154.407 123.633 149.278C121.83 144.15 116.806 141.245 112.41 142.789C108.014 144.334 105.911 149.744 107.714 154.873C109.516 160.001 114.541 162.907 118.937 161.362Z" fill="url(#paint1_linear_40_859)"/>
<path fill-rule="evenodd" clip-rule="evenodd" d="M70.4098 163.219C65.1346 161.365 62.6115 154.873 64.7743 148.719C66.9371 142.565 72.9668 139.078 78.242 140.932C83.5171 142.786 86.0402 149.278 83.8774 155.432C81.7146 161.587 75.6849 165.073 70.4098 163.219ZM71.0624 161.362C66.6665 159.817 64.5639 154.407 66.3663 149.278C68.1686 144.15 73.1933 141.245 77.5893 142.789C81.9852 144.334 84.0878 149.744 82.2854 154.873C80.4831 160.001 75.4584 162.907 71.0624 161.362Z" fill="url(#paint2_linear_40_859)"/>
<circle cx="94.8473" cy="85.9345" r="2.5" fill="black"/>
<defs>
<linearGradient id="paint0_linear_40_859" x1="94.9996" y1="27.4588" x2="94.9996" y2="163.717" gradientUnits="userSpaceOnUse">
<stop stop-color="#9C918B"/>
<stop offset="0.333333" stop-color="white"/>
</linearGradient>
<linearGradient id="paint1_linear_40_859" x1="94.9996" y1="27.4588" x2="94.9996" y2="163.717" gradientUnits="userSpaceOnUse">
<stop stop-color="#9C918B"/>
<stop offset="0.333333" stop-color="white"/>
</linearGradient>
<linearGradient id="paint2_linear_40_859" x1="94.9996" y1="27.4588" x2="94.9996" y2="163.717" gradientUnits="userSpaceOnUse">
<stop stop-color="#9C918B"/>
<stop offset="0.333333" stop-color="white"/>
</linearGradient>
</defs>
</svg>
