<svg width="1363" height="163" viewBox="0 0 1363 163" fill="none" xmlns="http://www.w3.org/2000/svg">
<path d="M0 15C0 6.71573 6.71573 0 15 0H37V163H15C6.71573 163 0 156.284 0 148V15Z" fill="#424242"/>
<rect width="1097" height="163" transform="translate(37)" fill="#F0F0F0"/>
<path d="M101.906 53.9219L94.3945 51.2383V48.0859L104.602 52.375V54.6367L101.906 53.9219ZM94.3945 56.1719L101.918 53.4297L104.602 52.7852V55.0352L94.3945 59.3242V56.1719ZM119.578 53.5117H115.195L115.172 51.0977H118.852C119.5 51.0977 120.031 51.0156 120.445 50.8516C120.859 50.6797 121.168 50.4336 121.371 50.1133C121.582 49.7852 121.688 49.3867 121.688 48.918C121.688 48.3867 121.586 47.957 121.383 47.6289C121.188 47.3008 120.879 47.0625 120.457 46.9141C120.043 46.7656 119.508 46.6914 118.852 46.6914H116.414V61H112.898V43.9375H118.852C119.844 43.9375 120.73 44.0312 121.512 44.2188C122.301 44.4062 122.969 44.6914 123.516 45.0742C124.062 45.457 124.48 45.9414 124.77 46.5273C125.059 47.1055 125.203 47.793 125.203 48.5898C125.203 49.293 125.043 49.9414 124.723 50.5352C124.41 51.1289 123.914 51.6133 123.234 51.9883C122.562 52.3633 121.684 52.5703 120.598 52.6094L119.578 53.5117ZM119.426 61H114.234L115.605 58.2578H119.426C120.043 58.2578 120.547 58.1602 120.938 57.9648C121.328 57.7617 121.617 57.4883 121.805 57.1445C121.992 56.8008 122.086 56.4062 122.086 55.9609C122.086 55.4609 122 55.0273 121.828 54.6602C121.664 54.293 121.398 54.0117 121.031 53.8164C120.664 53.6133 120.18 53.5117 119.578 53.5117H116.191L116.215 51.0977H120.434L121.242 52.0469C122.281 52.0312 123.117 52.2148 123.75 52.5977C124.391 52.9727 124.855 53.4609 125.145 54.0625C125.441 54.6641 125.59 55.3086 125.59 55.9961C125.59 57.0898 125.352 58.0117 124.875 58.7617C124.398 59.5039 123.699 60.0625 122.777 60.4375C121.863 60.8125 120.746 61 119.426 61ZM134.859 58.1406V52.4922C134.859 52.0859 134.793 51.7383 134.66 51.4492C134.527 51.1523 134.32 50.9219 134.039 50.7578C133.766 50.5938 133.41 50.5117 132.973 50.5117C132.598 50.5117 132.273 50.5781 132 50.7109C131.727 50.8359 131.516 51.0195 131.367 51.2617C131.219 51.4961 131.145 51.7734 131.145 52.0938H127.77C127.77 51.5547 127.895 51.043 128.145 50.5586C128.395 50.0742 128.758 49.6484 129.234 49.2812C129.711 48.9062 130.277 48.6133 130.934 48.4023C131.598 48.1914 132.34 48.0859 133.16 48.0859C134.145 48.0859 135.02 48.25 135.785 48.5781C136.551 48.9062 137.152 49.3984 137.59 50.0547C138.035 50.7109 138.258 51.5312 138.258 52.5156V57.9414C138.258 58.6367 138.301 59.207 138.387 59.6523C138.473 60.0898 138.598 60.4727 138.762 60.8008V61H135.352C135.188 60.6562 135.062 60.2266 134.977 59.7109C134.898 59.1875 134.859 58.6641 134.859 58.1406ZM135.305 53.2773L135.328 55.1875H133.441C132.996 55.1875 132.609 55.2383 132.281 55.3398C131.953 55.4414 131.684 55.5859 131.473 55.7734C131.262 55.9531 131.105 56.1641 131.004 56.4062C130.91 56.6484 130.863 56.9141 130.863 57.2031C130.863 57.4922 130.93 57.7539 131.062 57.9883C131.195 58.2148 131.387 58.3945 131.637 58.5273C131.887 58.6523 132.18 58.7148 132.516 58.7148C133.023 58.7148 133.465 58.6133 133.84 58.4102C134.215 58.207 134.504 57.957 134.707 57.6602C134.918 57.3633 135.027 57.082 135.035 56.8164L135.926 58.2461C135.801 58.5664 135.629 58.8984 135.41 59.2422C135.199 59.5859 134.93 59.9102 134.602 60.2148C134.273 60.5117 133.879 60.7578 133.418 60.9531C132.957 61.1406 132.41 61.2344 131.777 61.2344C130.973 61.2344 130.242 61.0742 129.586 60.7539C128.938 60.4258 128.422 59.9766 128.039 59.4062C127.664 58.8281 127.477 58.1719 127.477 57.4375C127.477 56.7734 127.602 56.1836 127.852 55.668C128.102 55.1523 128.469 54.7188 128.953 54.3672C129.445 54.0078 130.059 53.7383 130.793 53.5586C131.527 53.3711 132.379 53.2773 133.348 53.2773H135.305ZM144.234 51.0859V61H140.859V48.3203H144.035L144.234 51.0859ZM148.055 48.2383L147.996 51.3672C147.832 51.3438 147.633 51.3242 147.398 51.3086C147.172 51.2852 146.965 51.2734 146.777 51.2734C146.301 51.2734 145.887 51.3359 145.535 51.4609C145.191 51.5781 144.902 51.7539 144.668 51.9883C144.441 52.2227 144.27 52.5078 144.152 52.8438C144.043 53.1797 143.98 53.5625 143.965 53.9922L143.285 53.7812C143.285 52.9609 143.367 52.207 143.531 51.5195C143.695 50.8242 143.934 50.2188 144.246 49.7031C144.566 49.1875 144.957 48.7891 145.418 48.5078C145.879 48.2266 146.406 48.0859 147 48.0859C147.188 48.0859 147.379 48.1016 147.574 48.1328C147.77 48.1562 147.93 48.1914 148.055 48.2383ZM149.648 43H153.023V58.0938L152.684 61H149.648V43ZM161.051 54.5312V54.7773C161.051 55.7227 160.949 56.5898 160.746 57.3789C160.551 58.168 160.246 58.8516 159.832 59.4297C159.418 60 158.902 60.4453 158.285 60.7656C157.676 61.0781 156.957 61.2344 156.129 61.2344C155.355 61.2344 154.684 61.0781 154.113 60.7656C153.551 60.4531 153.078 60.0117 152.695 59.4414C152.312 58.8711 152.004 58.2031 151.77 57.4375C151.535 56.6719 151.359 55.8359 151.242 54.9297V54.3906C151.359 53.4844 151.535 52.6484 151.77 51.8828C152.004 51.1172 152.312 50.4492 152.695 49.8789C153.078 49.3086 153.551 48.8672 154.113 48.5547C154.676 48.2422 155.34 48.0859 156.105 48.0859C156.941 48.0859 157.668 48.2461 158.285 48.5664C158.91 48.8789 159.426 49.3242 159.832 49.9023C160.246 50.4727 160.551 51.1523 160.746 51.9414C160.949 52.7227 161.051 53.5859 161.051 54.5312ZM157.676 54.7773V54.5312C157.676 54.0156 157.637 53.5312 157.559 53.0781C157.488 52.6172 157.363 52.2148 157.184 51.8711C157.004 51.5195 156.758 51.2422 156.445 51.0391C156.141 50.8359 155.746 50.7344 155.262 50.7344C154.801 50.7344 154.41 50.8125 154.09 50.9688C153.77 51.125 153.504 51.3438 153.293 51.625C153.09 51.9062 152.938 52.2422 152.836 52.6328C152.734 53.0156 152.672 53.4375 152.648 53.8984V55.4336C152.672 56.0508 152.773 56.5977 152.953 57.0742C153.141 57.543 153.422 57.9141 153.797 58.1875C154.18 58.4531 154.676 58.5859 155.285 58.5859C155.762 58.5859 156.156 58.4922 156.469 58.3047C156.781 58.1172 157.023 57.8516 157.195 57.5078C157.375 57.1641 157.5 56.7617 157.57 56.3008C157.641 55.832 157.676 55.3242 157.676 54.7773ZM168.984 61.2344C168 61.2344 167.117 61.0781 166.336 60.7656C165.555 60.4453 164.891 60.0039 164.344 59.4414C163.805 58.8789 163.391 58.2266 163.102 57.4844C162.812 56.7344 162.668 55.9375 162.668 55.0938V54.625C162.668 53.6641 162.805 52.7852 163.078 51.9883C163.352 51.1914 163.742 50.5 164.25 49.9141C164.766 49.3281 165.391 48.8789 166.125 48.5664C166.859 48.2461 167.688 48.0859 168.609 48.0859C169.508 48.0859 170.305 48.2344 171 48.5312C171.695 48.8281 172.277 49.25 172.746 49.7969C173.223 50.3438 173.582 51 173.824 51.7656C174.066 52.5234 174.188 53.3672 174.188 54.2969V55.7031H164.109V53.4531H170.871V53.1953C170.871 52.7266 170.785 52.3086 170.613 51.9414C170.449 51.5664 170.199 51.2695 169.863 51.0508C169.527 50.832 169.098 50.7227 168.574 50.7227C168.129 50.7227 167.746 50.8203 167.426 51.0156C167.105 51.2109 166.844 51.4844 166.641 51.8359C166.445 52.1875 166.297 52.6016 166.195 53.0781C166.102 53.5469 166.055 54.0625 166.055 54.625V55.0938C166.055 55.6016 166.125 56.0703 166.266 56.5C166.414 56.9297 166.621 57.3008 166.887 57.6133C167.16 57.9258 167.488 58.168 167.871 58.3398C168.262 58.5117 168.703 58.5977 169.195 58.5977C169.805 58.5977 170.371 58.4805 170.895 58.2461C171.426 58.0039 171.883 57.6406 172.266 57.1562L173.906 58.9375C173.641 59.3203 173.277 59.6875 172.816 60.0391C172.363 60.3906 171.816 60.6797 171.176 60.9062C170.535 61.125 169.805 61.2344 168.984 61.2344ZM179.484 51.0859V61H176.109V48.3203H179.285L179.484 51.0859ZM183.305 48.2383L183.246 51.3672C183.082 51.3438 182.883 51.3242 182.648 51.3086C182.422 51.2852 182.215 51.2734 182.027 51.2734C181.551 51.2734 181.137 51.3359 180.785 51.4609C180.441 51.5781 180.152 51.7539 179.918 51.9883C179.691 52.2227 179.52 52.5078 179.402 52.8438C179.293 53.1797 179.23 53.5625 179.215 53.9922L178.535 53.7812C178.535 52.9609 178.617 52.207 178.781 51.5195C178.945 50.8242 179.184 50.2188 179.496 49.7031C179.816 49.1875 180.207 48.7891 180.668 48.5078C181.129 48.2266 181.656 48.0859 182.25 48.0859C182.438 48.0859 182.629 48.1016 182.824 48.1328C183.02 48.1562 183.18 48.1914 183.305 48.2383ZM197.766 53.5117H193.383L193.359 51.0977H197.039C197.688 51.0977 198.219 51.0156 198.633 50.8516C199.047 50.6797 199.355 50.4336 199.559 50.1133C199.77 49.7852 199.875 49.3867 199.875 48.918C199.875 48.3867 199.773 47.957 199.57 47.6289C199.375 47.3008 199.066 47.0625 198.645 46.9141C198.23 46.7656 197.695 46.6914 197.039 46.6914H194.602V61H191.086V43.9375H197.039C198.031 43.9375 198.918 44.0312 199.699 44.2188C200.488 44.4062 201.156 44.6914 201.703 45.0742C202.25 45.457 202.668 45.9414 202.957 46.5273C203.246 47.1055 203.391 47.793 203.391 48.5898C203.391 49.293 203.23 49.9414 202.91 50.5352C202.598 51.1289 202.102 51.6133 201.422 51.9883C200.75 52.3633 199.871 52.5703 198.785 52.6094L197.766 53.5117ZM197.613 61H192.422L193.793 58.2578H197.613C198.23 58.2578 198.734 58.1602 199.125 57.9648C199.516 57.7617 199.805 57.4883 199.992 57.1445C200.18 56.8008 200.273 56.4062 200.273 55.9609C200.273 55.4609 200.188 55.0273 200.016 54.6602C199.852 54.293 199.586 54.0117 199.219 53.8164C198.852 53.6133 198.367 53.5117 197.766 53.5117H194.379L194.402 51.0977H198.621L199.43 52.0469C200.469 52.0312 201.305 52.2148 201.938 52.5977C202.578 52.9727 203.043 53.4609 203.332 54.0625C203.629 54.6641 203.777 55.3086 203.777 55.9961C203.777 57.0898 203.539 58.0117 203.062 58.7617C202.586 59.5039 201.887 60.0625 200.965 60.4375C200.051 60.8125 198.934 61 197.613 61ZM209.965 59.5703L213.328 48.3203H216.949L211.852 62.9102C211.742 63.2305 211.594 63.5742 211.406 63.9414C211.227 64.3086 210.98 64.6562 210.668 64.9844C210.363 65.3203 209.977 65.5938 209.508 65.8047C209.047 66.0156 208.48 66.1211 207.809 66.1211C207.488 66.1211 207.227 66.1016 207.023 66.0625C206.82 66.0234 206.578 65.9688 206.297 65.8984V63.4258C206.383 63.4258 206.473 63.4258 206.566 63.4258C206.66 63.4336 206.75 63.4375 206.836 63.4375C207.281 63.4375 207.645 63.3867 207.926 63.2852C208.207 63.1836 208.434 63.0273 208.605 62.8164C208.777 62.6133 208.914 62.3477 209.016 62.0195L209.965 59.5703ZM208.559 48.3203L211.312 57.5078L211.793 61.082L209.496 61.3281L204.938 48.3203H208.559ZM224.508 48.3203V50.7109H217.125V48.3203H224.508ZM218.953 45.1914H222.328V57.1797C222.328 57.5469 222.375 57.8281 222.469 58.0234C222.57 58.2188 222.719 58.3555 222.914 58.4336C223.109 58.5039 223.355 58.5391 223.652 58.5391C223.863 58.5391 224.051 58.5312 224.215 58.5156C224.387 58.4922 224.531 58.4688 224.648 58.4453L224.66 60.9297C224.371 61.0234 224.059 61.0977 223.723 61.1523C223.387 61.207 223.016 61.2344 222.609 61.2344C221.867 61.2344 221.219 61.1133 220.664 60.8711C220.117 60.6211 219.695 60.2227 219.398 59.6758C219.102 59.1289 218.953 58.4102 218.953 57.5195V45.1914ZM232.266 61.2344C231.281 61.2344 230.398 61.0781 229.617 60.7656C228.836 60.4453 228.172 60.0039 227.625 59.4414C227.086 58.8789 226.672 58.2266 226.383 57.4844C226.094 56.7344 225.949 55.9375 225.949 55.0938V54.625C225.949 53.6641 226.086 52.7852 226.359 51.9883C226.633 51.1914 227.023 50.5 227.531 49.9141C228.047 49.3281 228.672 48.8789 229.406 48.5664C230.141 48.2461 230.969 48.0859 231.891 48.0859C232.789 48.0859 233.586 48.2344 234.281 48.5312C234.977 48.8281 235.559 49.25 236.027 49.7969C236.504 50.3438 236.863 51 237.105 51.7656C237.348 52.5234 237.469 53.3672 237.469 54.2969V55.7031H227.391V53.4531H234.152V53.1953C234.152 52.7266 234.066 52.3086 233.895 51.9414C233.73 51.5664 233.48 51.2695 233.145 51.0508C232.809 50.832 232.379 50.7227 231.855 50.7227C231.41 50.7227 231.027 50.8203 230.707 51.0156C230.387 51.2109 230.125 51.4844 229.922 51.8359C229.727 52.1875 229.578 52.6016 229.477 53.0781C229.383 53.5469 229.336 54.0625 229.336 54.625V55.0938C229.336 55.6016 229.406 56.0703 229.547 56.5C229.695 56.9297 229.902 57.3008 230.168 57.6133C230.441 57.9258 230.77 58.168 231.152 58.3398C231.543 58.5117 231.984 58.5977 232.477 58.5977C233.086 58.5977 233.652 58.4805 234.176 58.2461C234.707 58.0039 235.164 57.6406 235.547 57.1562L237.188 58.9375C236.922 59.3203 236.559 59.6875 236.098 60.0391C235.645 60.3906 235.098 60.6797 234.457 60.9062C233.816 61.125 233.086 61.2344 232.266 61.2344Z" fill="#888888"/>
<path d="M118.594 98.4219V104.75H101.086V98.4219H118.594ZM103.828 84.875V119H95.6016V84.875H103.828ZM124.125 84.875V119H115.922V84.875H124.125ZM127.992 106.578V106.086C127.992 104.227 128.258 102.516 128.789 100.953C129.32 99.375 130.102 98.0078 131.133 96.8516C132.164 95.6953 133.438 94.7969 134.953 94.1562C136.469 93.5 138.219 93.1719 140.203 93.1719C142.203 93.1719 143.961 93.5 145.477 94.1562C147.008 94.7969 148.289 95.6953 149.32 96.8516C150.352 98.0078 151.133 99.375 151.664 100.953C152.195 102.516 152.461 104.227 152.461 106.086V106.578C152.461 108.422 152.195 110.133 151.664 111.711C151.133 113.273 150.352 114.641 149.32 115.812C148.289 116.969 147.016 117.867 145.5 118.508C143.984 119.148 142.234 119.469 140.25 119.469C138.266 119.469 136.508 119.148 134.977 118.508C133.445 117.867 132.164 116.969 131.133 115.812C130.102 114.641 129.32 113.273 128.789 111.711C128.258 110.133 127.992 108.422 127.992 106.578ZM135.891 106.086V106.578C135.891 107.531 135.961 108.422 136.102 109.25C136.242 110.078 136.477 110.805 136.805 111.43C137.133 112.039 137.578 112.516 138.141 112.859C138.703 113.203 139.406 113.375 140.25 113.375C141.078 113.375 141.766 113.203 142.312 112.859C142.875 112.516 143.32 112.039 143.648 111.43C143.977 110.805 144.211 110.078 144.352 109.25C144.492 108.422 144.562 107.531 144.562 106.578V106.086C144.562 105.164 144.492 104.297 144.352 103.484C144.211 102.656 143.977 101.93 143.648 101.305C143.32 100.664 142.875 100.164 142.312 99.8047C141.75 99.4453 141.047 99.2656 140.203 99.2656C139.375 99.2656 138.68 99.4453 138.117 99.8047C137.57 100.164 137.133 100.664 136.805 101.305C136.477 101.93 136.242 102.656 136.102 103.484C135.961 104.297 135.891 105.164 135.891 106.086ZM163.688 111.453L168.375 93.6406H173.32L171.562 102.57L166.922 119H162.961L163.688 111.453ZM161.836 93.6406L164.742 111.312L165.07 119H160.266L154.266 93.6406H161.836ZM177.492 110.938L180.422 93.6406H187.992L182.039 119H177.234L177.492 110.938ZM173.883 93.6406L178.617 111.406L179.344 119H175.336L170.789 102.617L169.102 93.6406H173.883ZM218.297 84.875V119H210.07V84.875H218.297ZM228.562 84.875V91.2266H200.039V84.875H228.562ZM225.773 106.578V106.086C225.773 104.227 226.039 102.516 226.57 100.953C227.102 99.375 227.883 98.0078 228.914 96.8516C229.945 95.6953 231.219 94.7969 232.734 94.1562C234.25 93.5 236 93.1719 237.984 93.1719C239.984 93.1719 241.742 93.5 243.258 94.1562C244.789 94.7969 246.07 95.6953 247.102 96.8516C248.133 98.0078 248.914 99.375 249.445 100.953C249.977 102.516 250.242 104.227 250.242 106.086V106.578C250.242 108.422 249.977 110.133 249.445 111.711C248.914 113.273 248.133 114.641 247.102 115.812C246.07 116.969 244.797 117.867 243.281 118.508C241.766 119.148 240.016 119.469 238.031 119.469C236.047 119.469 234.289 119.148 232.758 118.508C231.227 117.867 229.945 116.969 228.914 115.812C227.883 114.641 227.102 113.273 226.57 111.711C226.039 110.133 225.773 108.422 225.773 106.578ZM233.672 106.086V106.578C233.672 107.531 233.742 108.422 233.883 109.25C234.023 110.078 234.258 110.805 234.586 111.43C234.914 112.039 235.359 112.516 235.922 112.859C236.484 113.203 237.188 113.375 238.031 113.375C238.859 113.375 239.547 113.203 240.094 112.859C240.656 112.516 241.102 112.039 241.43 111.43C241.758 110.805 241.992 110.078 242.133 109.25C242.273 108.422 242.344 107.531 242.344 106.578V106.086C242.344 105.164 242.273 104.297 242.133 103.484C241.992 102.656 241.758 101.93 241.43 101.305C241.102 100.664 240.656 100.164 240.094 99.8047C239.531 99.4453 238.828 99.2656 237.984 99.2656C237.156 99.2656 236.461 99.4453 235.898 99.8047C235.352 100.164 234.914 100.664 234.586 101.305C234.258 101.93 234.023 102.656 233.883 103.484C233.742 104.297 233.672 105.164 233.672 106.086ZM266.086 84.875H279.516C282.141 84.875 284.422 85.2656 286.359 86.0469C288.297 86.8281 289.789 87.9844 290.836 89.5156C291.898 91.0469 292.43 92.9375 292.43 95.1875C292.43 97.1406 292.125 98.7734 291.516 100.086C290.906 101.398 290.055 102.484 288.961 103.344C287.883 104.188 286.625 104.883 285.188 105.43L282.492 106.953H271.219L271.172 100.602H279.516C280.562 100.602 281.43 100.414 282.117 100.039C282.805 99.6641 283.32 99.1328 283.664 98.4453C284.023 97.7422 284.203 96.9062 284.203 95.9375C284.203 94.9531 284.023 94.1094 283.664 93.4062C283.305 92.7031 282.773 92.1641 282.07 91.7891C281.383 91.4141 280.531 91.2266 279.516 91.2266H274.312V119H266.086V84.875ZM284.766 119L277.219 103.906L285.938 103.859L293.578 118.648V119H284.766ZM311.836 112.836V93.6406H319.758V119H312.352L311.836 112.836ZM312.586 107.68L314.648 107.633C314.648 109.336 314.445 110.914 314.039 112.367C313.633 113.805 313.031 115.055 312.234 116.117C311.453 117.18 310.484 118.008 309.328 118.602C308.188 119.18 306.867 119.469 305.367 119.469C304.117 119.469 302.969 119.297 301.922 118.953C300.891 118.594 300 118.039 299.25 117.289C298.5 116.523 297.914 115.547 297.492 114.359C297.086 113.156 296.883 111.719 296.883 110.047V93.6406H304.781V110.094C304.781 110.656 304.852 111.141 304.992 111.547C305.133 111.953 305.336 112.297 305.602 112.578C305.867 112.844 306.195 113.047 306.586 113.188C306.992 113.312 307.453 113.375 307.969 113.375C309.156 113.375 310.086 113.125 310.758 112.625C311.43 112.125 311.898 111.445 312.164 110.586C312.445 109.727 312.586 108.758 312.586 107.68ZM331.875 99.0547V119H323.977V93.6406H331.383L331.875 99.0547ZM330.938 105.453L329.086 105.5C329.086 103.562 329.32 101.836 329.789 100.32C330.258 98.7891 330.922 97.4922 331.781 96.4297C332.641 95.3672 333.664 94.5625 334.852 94.0156C336.055 93.4531 337.391 93.1719 338.859 93.1719C340.031 93.1719 341.102 93.3438 342.07 93.6875C343.055 94.0312 343.898 94.5859 344.602 95.3516C345.32 96.1172 345.867 97.1328 346.242 98.3984C346.633 99.6484 346.828 101.195 346.828 103.039V119H338.883V103.016C338.883 102 338.742 101.227 338.461 100.695C338.18 100.148 337.773 99.7734 337.242 99.5703C336.711 99.3672 336.062 99.2656 335.297 99.2656C334.484 99.2656 333.797 99.4219 333.234 99.7344C332.672 100.047 332.219 100.484 331.875 101.047C331.547 101.594 331.305 102.242 331.148 102.992C331.008 103.742 330.938 104.562 330.938 105.453ZM363.773 108.195H357.047C357.047 106.82 357.141 105.609 357.328 104.562C357.531 103.5 357.875 102.547 358.359 101.703C358.844 100.859 359.5 100.078 360.328 99.3594C361.062 98.75 361.695 98.1641 362.227 97.6016C362.758 97.0391 363.164 96.4688 363.445 95.8906C363.727 95.3125 363.867 94.6953 363.867 94.0391C363.867 93.2266 363.75 92.5625 363.516 92.0469C363.297 91.5312 362.961 91.1484 362.508 90.8984C362.07 90.6328 361.516 90.5 360.844 90.5C360.297 90.5 359.781 90.6328 359.297 90.8984C358.828 91.1641 358.445 91.5781 358.148 92.1406C357.852 92.6875 357.688 93.4141 357.656 94.3203H349.711C349.758 91.9922 350.273 90.1016 351.258 88.6484C352.258 87.1797 353.586 86.1094 355.242 85.4375C356.914 84.75 358.781 84.4062 360.844 84.4062C363.125 84.4062 365.086 84.7578 366.727 85.4609C368.367 86.1641 369.625 87.2109 370.5 88.6016C371.375 89.9766 371.812 91.6719 371.812 93.6875C371.812 95.0312 371.555 96.2031 371.039 97.2031C370.539 98.1875 369.859 99.1094 369 99.9688C368.156 100.812 367.211 101.719 366.164 102.688C365.258 103.484 364.641 104.297 364.312 105.125C363.984 105.938 363.805 106.961 363.773 108.195ZM356.086 115.32C356.086 114.195 356.492 113.258 357.305 112.508C358.117 111.742 359.172 111.359 360.469 111.359C361.766 111.359 362.82 111.742 363.633 112.508C364.445 113.258 364.852 114.195 364.852 115.32C364.852 116.445 364.445 117.391 363.633 118.156C362.82 118.906 361.766 119.281 360.469 119.281C359.172 119.281 358.117 118.906 357.305 118.156C356.492 117.391 356.086 116.445 356.086 115.32Z" fill="black"/>
<path d="M1134 0H1348C1356.28 0 1363 6.71573 1363 15V148C1363 156.284 1356.28 163 1348 163H1134V0Z" fill="#B48C60"/>
<path d="M1260.62 78.8078C1263.81 78.8078 1266.93 79.7552 1269.59 81.5302C1272.25 83.3052 1274.32 85.8281 1275.54 88.7798C1276.76 91.7315 1277.08 94.9795 1276.46 98.1131C1275.84 101.247 1274.3 104.125 1272.04 106.384C1269.78 108.643 1266.9 110.182 1263.77 110.805C1260.63 111.428 1257.39 111.108 1254.43 109.886C1251.48 108.663 1248.96 106.593 1247.18 103.936C1245.41 101.28 1244.46 98.1565 1244.46 94.9616C1244.46 90.6774 1246.16 86.5686 1249.19 83.5392C1252.22 80.5097 1256.33 78.8078 1260.62 78.8078ZM1260.62 73.4232C1256.36 73.4232 1252.19 74.6864 1248.65 77.0531C1245.11 79.4198 1242.35 82.7836 1240.72 86.7192C1239.09 90.6549 1238.66 94.9855 1239.49 99.1636C1240.32 103.342 1242.37 107.179 1245.39 110.192C1248.4 113.204 1252.24 115.255 1256.41 116.086C1260.59 116.917 1264.92 116.491 1268.86 114.861C1272.79 113.23 1276.16 110.47 1278.52 106.928C1280.89 103.386 1282.15 99.2215 1282.15 94.9616C1282.15 89.2493 1279.88 83.7709 1275.85 79.7317C1271.81 75.6924 1266.33 73.4232 1260.62 73.4232Z" fill="white"/>
<path d="M1274.08 46.4999H1220.23C1218.8 46.4999 1217.43 47.0672 1216.42 48.0771C1215.41 49.0869 1214.85 50.4565 1214.85 51.8845V105.731C1214.85 107.159 1215.41 108.528 1216.42 109.538C1217.43 110.548 1218.8 111.115 1220.23 111.115H1231V105.731H1220.23V68.0383H1279.46V51.8845C1279.46 50.4565 1278.89 49.0869 1277.88 48.0771C1276.87 47.0672 1275.5 46.4999 1274.08 46.4999ZM1220.23 62.6537V51.8845H1274.08V62.6537H1220.23Z" fill="white"/>
<path d="M1255.23 86.8848V103.039L1268.69 94.9617L1255.23 86.8848Z" fill="white"/>
</svg>
