<svg width="1363" height="163" viewBox="0 0 1363 163" fill="none" xmlns="http://www.w3.org/2000/svg">
<path d="M0 15C0 6.71573 6.71573 0 15 0H37V163H15C6.71573 163 0 156.284 0 148V15Z" fill="#424242"/>
<rect width="1097" height="163" transform="translate(37)" fill="#F0F0F0"/>
<path d="M101.906 53.9219L94.3945 51.2383V48.0859L104.602 52.375V54.6367L101.906 53.9219ZM94.3945 56.1719L101.918 53.4297L104.602 52.7852V55.0352L94.3945 59.3242V56.1719ZM119.578 53.5117H115.195L115.172 51.0977H118.852C119.5 51.0977 120.031 51.0156 120.445 50.8516C120.859 50.6797 121.168 50.4336 121.371 50.1133C121.582 49.7852 121.688 49.3867 121.688 48.918C121.688 48.3867 121.586 47.957 121.383 47.6289C121.188 47.3008 120.879 47.0625 120.457 46.9141C120.043 46.7656 119.508 46.6914 118.852 46.6914H116.414V61H112.898V43.9375H118.852C119.844 43.9375 120.73 44.0312 121.512 44.2188C122.301 44.4062 122.969 44.6914 123.516 45.0742C124.062 45.457 124.48 45.9414 124.77 46.5273C125.059 47.1055 125.203 47.793 125.203 48.5898C125.203 49.293 125.043 49.9414 124.723 50.5352C124.41 51.1289 123.914 51.6133 123.234 51.9883C122.562 52.3633 121.684 52.5703 120.598 52.6094L119.578 53.5117ZM119.426 61H114.234L115.605 58.2578H119.426C120.043 58.2578 120.547 58.1602 120.938 57.9648C121.328 57.7617 121.617 57.4883 121.805 57.1445C121.992 56.8008 122.086 56.4062 122.086 55.9609C122.086 55.4609 122 55.0273 121.828 54.6602C121.664 54.293 121.398 54.0117 121.031 53.8164C120.664 53.6133 120.18 53.5117 119.578 53.5117H116.191L116.215 51.0977H120.434L121.242 52.0469C122.281 52.0312 123.117 52.2148 123.75 52.5977C124.391 52.9727 124.855 53.4609 125.145 54.0625C125.441 54.6641 125.59 55.3086 125.59 55.9961C125.59 57.0898 125.352 58.0117 124.875 58.7617C124.398 59.5039 123.699 60.0625 122.777 60.4375C121.863 60.8125 120.746 61 119.426 61ZM134.859 58.1406V52.4922C134.859 52.0859 134.793 51.7383 134.66 51.4492C134.527 51.1523 134.32 50.9219 134.039 50.7578C133.766 50.5938 133.41 50.5117 132.973 50.5117C132.598 50.5117 132.273 50.5781 132 50.7109C131.727 50.8359 131.516 51.0195 131.367 51.2617C131.219 51.4961 131.145 51.7734 131.145 52.0938H127.77C127.77 51.5547 127.895 51.043 128.145 50.5586C128.395 50.0742 128.758 49.6484 129.234 49.2812C129.711 48.9062 130.277 48.6133 130.934 48.4023C131.598 48.1914 132.34 48.0859 133.16 48.0859C134.145 48.0859 135.02 48.25 135.785 48.5781C136.551 48.9062 137.152 49.3984 137.59 50.0547C138.035 50.7109 138.258 51.5312 138.258 52.5156V57.9414C138.258 58.6367 138.301 59.207 138.387 59.6523C138.473 60.0898 138.598 60.4727 138.762 60.8008V61H135.352C135.188 60.6562 135.062 60.2266 134.977 59.7109C134.898 59.1875 134.859 58.6641 134.859 58.1406ZM135.305 53.2773L135.328 55.1875H133.441C132.996 55.1875 132.609 55.2383 132.281 55.3398C131.953 55.4414 131.684 55.5859 131.473 55.7734C131.262 55.9531 131.105 56.1641 131.004 56.4062C130.91 56.6484 130.863 56.9141 130.863 57.2031C130.863 57.4922 130.93 57.7539 131.062 57.9883C131.195 58.2148 131.387 58.3945 131.637 58.5273C131.887 58.6523 132.18 58.7148 132.516 58.7148C133.023 58.7148 133.465 58.6133 133.84 58.4102C134.215 58.207 134.504 57.957 134.707 57.6602C134.918 57.3633 135.027 57.082 135.035 56.8164L135.926 58.2461C135.801 58.5664 135.629 58.8984 135.41 59.2422C135.199 59.5859 134.93 59.9102 134.602 60.2148C134.273 60.5117 133.879 60.7578 133.418 60.9531C132.957 61.1406 132.41 61.2344 131.777 61.2344C130.973 61.2344 130.242 61.0742 129.586 60.7539C128.938 60.4258 128.422 59.9766 128.039 59.4062C127.664 58.8281 127.477 58.1719 127.477 57.4375C127.477 56.7734 127.602 56.1836 127.852 55.668C128.102 55.1523 128.469 54.7188 128.953 54.3672C129.445 54.0078 130.059 53.7383 130.793 53.5586C131.527 53.3711 132.379 53.2773 133.348 53.2773H135.305ZM144.234 51.0859V61H140.859V48.3203H144.035L144.234 51.0859ZM148.055 48.2383L147.996 51.3672C147.832 51.3438 147.633 51.3242 147.398 51.3086C147.172 51.2852 146.965 51.2734 146.777 51.2734C146.301 51.2734 145.887 51.3359 145.535 51.4609C145.191 51.5781 144.902 51.7539 144.668 51.9883C144.441 52.2227 144.27 52.5078 144.152 52.8438C144.043 53.1797 143.98 53.5625 143.965 53.9922L143.285 53.7812C143.285 52.9609 143.367 52.207 143.531 51.5195C143.695 50.8242 143.934 50.2188 144.246 49.7031C144.566 49.1875 144.957 48.7891 145.418 48.5078C145.879 48.2266 146.406 48.0859 147 48.0859C147.188 48.0859 147.379 48.1016 147.574 48.1328C147.77 48.1562 147.93 48.1914 148.055 48.2383ZM149.648 43H153.023V58.0938L152.684 61H149.648V43ZM161.051 54.5312V54.7773C161.051 55.7227 160.949 56.5898 160.746 57.3789C160.551 58.168 160.246 58.8516 159.832 59.4297C159.418 60 158.902 60.4453 158.285 60.7656C157.676 61.0781 156.957 61.2344 156.129 61.2344C155.355 61.2344 154.684 61.0781 154.113 60.7656C153.551 60.4531 153.078 60.0117 152.695 59.4414C152.312 58.8711 152.004 58.2031 151.77 57.4375C151.535 56.6719 151.359 55.8359 151.242 54.9297V54.3906C151.359 53.4844 151.535 52.6484 151.77 51.8828C152.004 51.1172 152.312 50.4492 152.695 49.8789C153.078 49.3086 153.551 48.8672 154.113 48.5547C154.676 48.2422 155.34 48.0859 156.105 48.0859C156.941 48.0859 157.668 48.2461 158.285 48.5664C158.91 48.8789 159.426 49.3242 159.832 49.9023C160.246 50.4727 160.551 51.1523 160.746 51.9414C160.949 52.7227 161.051 53.5859 161.051 54.5312ZM157.676 54.7773V54.5312C157.676 54.0156 157.637 53.5312 157.559 53.0781C157.488 52.6172 157.363 52.2148 157.184 51.8711C157.004 51.5195 156.758 51.2422 156.445 51.0391C156.141 50.8359 155.746 50.7344 155.262 50.7344C154.801 50.7344 154.41 50.8125 154.09 50.9688C153.77 51.125 153.504 51.3438 153.293 51.625C153.09 51.9062 152.938 52.2422 152.836 52.6328C152.734 53.0156 152.672 53.4375 152.648 53.8984V55.4336C152.672 56.0508 152.773 56.5977 152.953 57.0742C153.141 57.543 153.422 57.9141 153.797 58.1875C154.18 58.4531 154.676 58.5859 155.285 58.5859C155.762 58.5859 156.156 58.4922 156.469 58.3047C156.781 58.1172 157.023 57.8516 157.195 57.5078C157.375 57.1641 157.5 56.7617 157.57 56.3008C157.641 55.832 157.676 55.3242 157.676 54.7773ZM168.984 61.2344C168 61.2344 167.117 61.0781 166.336 60.7656C165.555 60.4453 164.891 60.0039 164.344 59.4414C163.805 58.8789 163.391 58.2266 163.102 57.4844C162.812 56.7344 162.668 55.9375 162.668 55.0938V54.625C162.668 53.6641 162.805 52.7852 163.078 51.9883C163.352 51.1914 163.742 50.5 164.25 49.9141C164.766 49.3281 165.391 48.8789 166.125 48.5664C166.859 48.2461 167.688 48.0859 168.609 48.0859C169.508 48.0859 170.305 48.2344 171 48.5312C171.695 48.8281 172.277 49.25 172.746 49.7969C173.223 50.3438 173.582 51 173.824 51.7656C174.066 52.5234 174.188 53.3672 174.188 54.2969V55.7031H164.109V53.4531H170.871V53.1953C170.871 52.7266 170.785 52.3086 170.613 51.9414C170.449 51.5664 170.199 51.2695 169.863 51.0508C169.527 50.832 169.098 50.7227 168.574 50.7227C168.129 50.7227 167.746 50.8203 167.426 51.0156C167.105 51.2109 166.844 51.4844 166.641 51.8359C166.445 52.1875 166.297 52.6016 166.195 53.0781C166.102 53.5469 166.055 54.0625 166.055 54.625V55.0938C166.055 55.6016 166.125 56.0703 166.266 56.5C166.414 56.9297 166.621 57.3008 166.887 57.6133C167.16 57.9258 167.488 58.168 167.871 58.3398C168.262 58.5117 168.703 58.5977 169.195 58.5977C169.805 58.5977 170.371 58.4805 170.895 58.2461C171.426 58.0039 171.883 57.6406 172.266 57.1562L173.906 58.9375C173.641 59.3203 173.277 59.6875 172.816 60.0391C172.363 60.3906 171.816 60.6797 171.176 60.9062C170.535 61.125 169.805 61.2344 168.984 61.2344ZM179.484 51.0859V61H176.109V48.3203H179.285L179.484 51.0859ZM183.305 48.2383L183.246 51.3672C183.082 51.3438 182.883 51.3242 182.648 51.3086C182.422 51.2852 182.215 51.2734 182.027 51.2734C181.551 51.2734 181.137 51.3359 180.785 51.4609C180.441 51.5781 180.152 51.7539 179.918 51.9883C179.691 52.2227 179.52 52.5078 179.402 52.8438C179.293 53.1797 179.23 53.5625 179.215 53.9922L178.535 53.7812C178.535 52.9609 178.617 52.207 178.781 51.5195C178.945 50.8242 179.184 50.2188 179.496 49.7031C179.816 49.1875 180.207 48.7891 180.668 48.5078C181.129 48.2266 181.656 48.0859 182.25 48.0859C182.438 48.0859 182.629 48.1016 182.824 48.1328C183.02 48.1562 183.18 48.1914 183.305 48.2383ZM197.766 53.5117H193.383L193.359 51.0977H197.039C197.688 51.0977 198.219 51.0156 198.633 50.8516C199.047 50.6797 199.355 50.4336 199.559 50.1133C199.77 49.7852 199.875 49.3867 199.875 48.918C199.875 48.3867 199.773 47.957 199.57 47.6289C199.375 47.3008 199.066 47.0625 198.645 46.9141C198.23 46.7656 197.695 46.6914 197.039 46.6914H194.602V61H191.086V43.9375H197.039C198.031 43.9375 198.918 44.0312 199.699 44.2188C200.488 44.4062 201.156 44.6914 201.703 45.0742C202.25 45.457 202.668 45.9414 202.957 46.5273C203.246 47.1055 203.391 47.793 203.391 48.5898C203.391 49.293 203.23 49.9414 202.91 50.5352C202.598 51.1289 202.102 51.6133 201.422 51.9883C200.75 52.3633 199.871 52.5703 198.785 52.6094L197.766 53.5117ZM197.613 61H192.422L193.793 58.2578H197.613C198.23 58.2578 198.734 58.1602 199.125 57.9648C199.516 57.7617 199.805 57.4883 199.992 57.1445C200.18 56.8008 200.273 56.4062 200.273 55.9609C200.273 55.4609 200.188 55.0273 200.016 54.6602C199.852 54.293 199.586 54.0117 199.219 53.8164C198.852 53.6133 198.367 53.5117 197.766 53.5117H194.379L194.402 51.0977H198.621L199.43 52.0469C200.469 52.0312 201.305 52.2148 201.938 52.5977C202.578 52.9727 203.043 53.4609 203.332 54.0625C203.629 54.6641 203.777 55.3086 203.777 55.9961C203.777 57.0898 203.539 58.0117 203.062 58.7617C202.586 59.5039 201.887 60.0625 200.965 60.4375C200.051 60.8125 198.934 61 197.613 61ZM209.965 59.5703L213.328 48.3203H216.949L211.852 62.9102C211.742 63.2305 211.594 63.5742 211.406 63.9414C211.227 64.3086 210.98 64.6562 210.668 64.9844C210.363 65.3203 209.977 65.5938 209.508 65.8047C209.047 66.0156 208.48 66.1211 207.809 66.1211C207.488 66.1211 207.227 66.1016 207.023 66.0625C206.82 66.0234 206.578 65.9688 206.297 65.8984V63.4258C206.383 63.4258 206.473 63.4258 206.566 63.4258C206.66 63.4336 206.75 63.4375 206.836 63.4375C207.281 63.4375 207.645 63.3867 207.926 63.2852C208.207 63.1836 208.434 63.0273 208.605 62.8164C208.777 62.6133 208.914 62.3477 209.016 62.0195L209.965 59.5703ZM208.559 48.3203L211.312 57.5078L211.793 61.082L209.496 61.3281L204.938 48.3203H208.559ZM224.508 48.3203V50.7109H217.125V48.3203H224.508ZM218.953 45.1914H222.328V57.1797C222.328 57.5469 222.375 57.8281 222.469 58.0234C222.57 58.2188 222.719 58.3555 222.914 58.4336C223.109 58.5039 223.355 58.5391 223.652 58.5391C223.863 58.5391 224.051 58.5312 224.215 58.5156C224.387 58.4922 224.531 58.4688 224.648 58.4453L224.66 60.9297C224.371 61.0234 224.059 61.0977 223.723 61.1523C223.387 61.207 223.016 61.2344 222.609 61.2344C221.867 61.2344 221.219 61.1133 220.664 60.8711C220.117 60.6211 219.695 60.2227 219.398 59.6758C219.102 59.1289 218.953 58.4102 218.953 57.5195V45.1914ZM232.266 61.2344C231.281 61.2344 230.398 61.0781 229.617 60.7656C228.836 60.4453 228.172 60.0039 227.625 59.4414C227.086 58.8789 226.672 58.2266 226.383 57.4844C226.094 56.7344 225.949 55.9375 225.949 55.0938V54.625C225.949 53.6641 226.086 52.7852 226.359 51.9883C226.633 51.1914 227.023 50.5 227.531 49.9141C228.047 49.3281 228.672 48.8789 229.406 48.5664C230.141 48.2461 230.969 48.0859 231.891 48.0859C232.789 48.0859 233.586 48.2344 234.281 48.5312C234.977 48.8281 235.559 49.25 236.027 49.7969C236.504 50.3438 236.863 51 237.105 51.7656C237.348 52.5234 237.469 53.3672 237.469 54.2969V55.7031H227.391V53.4531H234.152V53.1953C234.152 52.7266 234.066 52.3086 233.895 51.9414C233.73 51.5664 233.48 51.2695 233.145 51.0508C232.809 50.832 232.379 50.7227 231.855 50.7227C231.41 50.7227 231.027 50.8203 230.707 51.0156C230.387 51.2109 230.125 51.4844 229.922 51.8359C229.727 52.1875 229.578 52.6016 229.477 53.0781C229.383 53.5469 229.336 54.0625 229.336 54.625V55.0938C229.336 55.6016 229.406 56.0703 229.547 56.5C229.695 56.9297 229.902 57.3008 230.168 57.6133C230.441 57.9258 230.77 58.168 231.152 58.3398C231.543 58.5117 231.984 58.5977 232.477 58.5977C233.086 58.5977 233.652 58.4805 234.176 58.2461C234.707 58.0039 235.164 57.6406 235.547 57.1562L237.188 58.9375C236.922 59.3203 236.559 59.6875 236.098 60.0391C235.645 60.3906 235.098 60.6797 234.457 60.9062C233.816 61.125 233.086 61.2344 232.266 61.2344Z" fill="#888888"/>
<path d="M109.219 107.422H100.734V101.07H109.219C110.375 101.07 111.312 100.875 112.031 100.484C112.75 100.094 113.273 99.5547 113.602 98.8672C113.945 98.1641 114.117 97.375 114.117 96.5C114.117 95.5625 113.945 94.6953 113.602 93.8984C113.273 93.1016 112.75 92.4609 112.031 91.9766C111.312 91.4766 110.375 91.2266 109.219 91.2266H103.828V119H95.6016V84.875H109.219C111.953 84.875 114.305 85.375 116.273 86.375C118.258 87.375 119.781 88.75 120.844 90.5C121.906 92.2344 122.438 94.2188 122.438 96.4531C122.438 98.6562 121.906 100.578 120.844 102.219C119.781 103.859 118.258 105.141 116.273 106.062C114.305 106.969 111.953 107.422 109.219 107.422ZM134.461 99.9219V119H126.562V93.6406H133.945L134.461 99.9219ZM141.961 93.4531L141.82 100.789C141.508 100.758 141.086 100.719 140.555 100.672C140.023 100.625 139.578 100.602 139.219 100.602C138.297 100.602 137.5 100.711 136.828 100.93C136.172 101.133 135.625 101.445 135.188 101.867C134.766 102.273 134.453 102.789 134.25 103.414C134.062 104.039 133.977 104.766 133.992 105.594L132.562 104.656C132.562 102.953 132.727 101.406 133.055 100.016C133.398 98.6094 133.883 97.3984 134.508 96.3828C135.133 95.3516 135.891 94.5625 136.781 94.0156C137.672 93.4531 138.672 93.1719 139.781 93.1719C140.172 93.1719 140.555 93.1953 140.93 93.2422C141.32 93.2891 141.664 93.3594 141.961 93.4531ZM142.852 106.578V106.086C142.852 104.227 143.117 102.516 143.648 100.953C144.18 99.375 144.961 98.0078 145.992 96.8516C147.023 95.6953 148.297 94.7969 149.812 94.1562C151.328 93.5 153.078 93.1719 155.062 93.1719C157.062 93.1719 158.82 93.5 160.336 94.1562C161.867 94.7969 163.148 95.6953 164.18 96.8516C165.211 98.0078 165.992 99.375 166.523 100.953C167.055 102.516 167.32 104.227 167.32 106.086V106.578C167.32 108.422 167.055 110.133 166.523 111.711C165.992 113.273 165.211 114.641 164.18 115.812C163.148 116.969 161.875 117.867 160.359 118.508C158.844 119.148 157.094 119.469 155.109 119.469C153.125 119.469 151.367 119.148 149.836 118.508C148.305 117.867 147.023 116.969 145.992 115.812C144.961 114.641 144.18 113.273 143.648 111.711C143.117 110.133 142.852 108.422 142.852 106.578ZM150.75 106.086V106.578C150.75 107.531 150.82 108.422 150.961 109.25C151.102 110.078 151.336 110.805 151.664 111.43C151.992 112.039 152.438 112.516 153 112.859C153.562 113.203 154.266 113.375 155.109 113.375C155.938 113.375 156.625 113.203 157.172 112.859C157.734 112.516 158.18 112.039 158.508 111.43C158.836 110.805 159.07 110.078 159.211 109.25C159.352 108.422 159.422 107.531 159.422 106.578V106.086C159.422 105.164 159.352 104.297 159.211 103.484C159.07 102.656 158.836 101.93 158.508 101.305C158.18 100.664 157.734 100.164 157.172 99.8047C156.609 99.4453 155.906 99.2656 155.062 99.2656C154.234 99.2656 153.539 99.4453 152.977 99.8047C152.43 100.164 151.992 100.664 151.664 101.305C151.336 101.93 151.102 102.656 150.961 103.484C150.82 104.297 150.75 105.164 150.75 106.086ZM184.195 93.6406V99.125H168.914V93.6406H184.195ZM172.125 87.3359H180.023V110.727C180.023 111.398 180.102 111.922 180.258 112.297C180.414 112.656 180.68 112.914 181.055 113.07C181.445 113.211 181.961 113.281 182.602 113.281C183.055 113.281 183.43 113.273 183.727 113.258C184.023 113.227 184.305 113.188 184.57 113.141V118.789C183.898 119.008 183.195 119.172 182.461 119.281C181.727 119.406 180.945 119.469 180.117 119.469C178.43 119.469 176.984 119.203 175.781 118.672C174.594 118.141 173.688 117.305 173.062 116.164C172.438 115.023 172.125 113.539 172.125 111.711V87.3359ZM185.648 106.578V106.086C185.648 104.227 185.914 102.516 186.445 100.953C186.977 99.375 187.758 98.0078 188.789 96.8516C189.82 95.6953 191.094 94.7969 192.609 94.1562C194.125 93.5 195.875 93.1719 197.859 93.1719C199.859 93.1719 201.617 93.5 203.133 94.1562C204.664 94.7969 205.945 95.6953 206.977 96.8516C208.008 98.0078 208.789 99.375 209.32 100.953C209.852 102.516 210.117 104.227 210.117 106.086V106.578C210.117 108.422 209.852 110.133 209.32 111.711C208.789 113.273 208.008 114.641 206.977 115.812C205.945 116.969 204.672 117.867 203.156 118.508C201.641 119.148 199.891 119.469 197.906 119.469C195.922 119.469 194.164 119.148 192.633 118.508C191.102 117.867 189.82 116.969 188.789 115.812C187.758 114.641 186.977 113.273 186.445 111.711C185.914 110.133 185.648 108.422 185.648 106.578ZM193.547 106.086V106.578C193.547 107.531 193.617 108.422 193.758 109.25C193.898 110.078 194.133 110.805 194.461 111.43C194.789 112.039 195.234 112.516 195.797 112.859C196.359 113.203 197.062 113.375 197.906 113.375C198.734 113.375 199.422 113.203 199.969 112.859C200.531 112.516 200.977 112.039 201.305 111.43C201.633 110.805 201.867 110.078 202.008 109.25C202.148 108.422 202.219 107.531 202.219 106.578V106.086C202.219 105.164 202.148 104.297 202.008 103.484C201.867 102.656 201.633 101.93 201.305 101.305C200.977 100.664 200.531 100.164 199.969 99.8047C199.406 99.4453 198.703 99.2656 197.859 99.2656C197.031 99.2656 196.336 99.4453 195.773 99.8047C195.227 100.164 194.789 100.664 194.461 101.305C194.133 101.93 193.898 102.656 193.758 103.484C193.617 104.297 193.547 105.164 193.547 106.086ZM226.992 93.6406V99.125H211.711V93.6406H226.992ZM214.922 87.3359H222.82V110.727C222.82 111.398 222.898 111.922 223.055 112.297C223.211 112.656 223.477 112.914 223.852 113.07C224.242 113.211 224.758 113.281 225.398 113.281C225.852 113.281 226.227 113.273 226.523 113.258C226.82 113.227 227.102 113.188 227.367 113.141V118.789C226.695 119.008 225.992 119.172 225.258 119.281C224.523 119.406 223.742 119.469 222.914 119.469C221.227 119.469 219.781 119.203 218.578 118.672C217.391 118.141 216.484 117.305 215.859 116.164C215.234 115.023 214.922 113.539 214.922 111.711V87.3359ZM237.914 116.023L244.477 93.6406H252.961L242.766 122.773C242.547 123.414 242.258 124.102 241.898 124.836C241.539 125.586 241.047 126.297 240.422 126.969C239.797 127.641 238.992 128.188 238.008 128.609C237.039 129.031 235.836 129.242 234.398 129.242C233.633 129.242 233.07 129.203 232.711 129.125C232.367 129.062 231.836 128.945 231.117 128.773V123.125C231.32 123.125 231.492 123.125 231.633 123.125C231.789 123.125 231.961 123.125 232.148 123.125C232.992 123.125 233.664 123.039 234.164 122.867C234.68 122.695 235.07 122.445 235.336 122.117C235.617 121.789 235.836 121.391 235.992 120.922L237.914 116.023ZM236.25 93.6406L241.242 111.383L242.109 119.75H236.812L227.789 93.6406H236.25ZM262.992 98.5156V128.75H255.094V93.6406H262.453L262.992 98.5156ZM278.555 106.016V106.508C278.555 108.352 278.344 110.062 277.922 111.641C277.5 113.219 276.875 114.594 276.047 115.766C275.219 116.938 274.188 117.852 272.953 118.508C271.734 119.148 270.32 119.469 268.711 119.469C267.195 119.469 265.891 119.133 264.797 118.461C263.703 117.789 262.789 116.859 262.055 115.672C261.32 114.484 260.727 113.125 260.273 111.594C259.82 110.062 259.461 108.445 259.195 106.742V106.109C259.461 104.281 259.82 102.586 260.273 101.023C260.727 99.4453 261.32 98.0703 262.055 96.8984C262.789 95.7266 263.695 94.8125 264.773 94.1562C265.867 93.5 267.172 93.1719 268.688 93.1719C270.297 93.1719 271.711 93.4766 272.93 94.0859C274.164 94.6953 275.195 95.5703 276.023 96.7109C276.867 97.8359 277.5 99.1875 277.922 100.766C278.344 102.344 278.555 104.094 278.555 106.016ZM270.656 106.508V106.016C270.656 105.031 270.586 104.133 270.445 103.32C270.305 102.492 270.078 101.773 269.766 101.164C269.469 100.555 269.07 100.086 268.57 99.7578C268.07 99.4297 267.453 99.2656 266.719 99.2656C265.875 99.2656 265.164 99.3984 264.586 99.6641C264.023 99.9141 263.57 100.305 263.227 100.836C262.898 101.352 262.664 102 262.523 102.781C262.398 103.547 262.344 104.445 262.359 105.477V107.398C262.328 108.586 262.445 109.633 262.711 110.539C262.977 111.43 263.438 112.125 264.094 112.625C264.75 113.125 265.641 113.375 266.766 113.375C267.516 113.375 268.141 113.203 268.641 112.859C269.141 112.5 269.539 112.008 269.836 111.383C270.133 110.742 270.344 110.008 270.469 109.18C270.594 108.352 270.656 107.461 270.656 106.508ZM290.414 93.6406V119H282.492V93.6406H290.414ZM282.023 87.1016C282.023 85.9766 282.43 85.0547 283.242 84.3359C284.055 83.6172 285.109 83.2578 286.406 83.2578C287.703 83.2578 288.758 83.6172 289.57 84.3359C290.383 85.0547 290.789 85.9766 290.789 87.1016C290.789 88.2266 290.383 89.1484 289.57 89.8672C288.758 90.5859 287.703 90.9453 286.406 90.9453C285.109 90.9453 284.055 90.5859 283.242 89.8672C282.43 89.1484 282.023 88.2266 282.023 87.1016ZM303.047 99.0547V119H295.148V93.6406H302.555L303.047 99.0547ZM302.109 105.453L300.258 105.5C300.258 103.562 300.492 101.836 300.961 100.32C301.43 98.7891 302.094 97.4922 302.953 96.4297C303.812 95.3672 304.836 94.5625 306.023 94.0156C307.227 93.4531 308.562 93.1719 310.031 93.1719C311.203 93.1719 312.273 93.3438 313.242 93.6875C314.227 94.0312 315.07 94.5859 315.773 95.3516C316.492 96.1172 317.039 97.1328 317.414 98.3984C317.805 99.6484 318 101.195 318 103.039V119H310.055V103.016C310.055 102 309.914 101.227 309.633 100.695C309.352 100.148 308.945 99.7734 308.414 99.5703C307.883 99.3672 307.234 99.2656 306.469 99.2656C305.656 99.2656 304.969 99.4219 304.406 99.7344C303.844 100.047 303.391 100.484 303.047 101.047C302.719 101.594 302.477 102.242 302.32 102.992C302.18 103.742 302.109 104.562 302.109 105.453ZM338.32 93.6406H345.492V118.016C345.492 120.359 344.953 122.344 343.875 123.969C342.797 125.609 341.289 126.852 339.352 127.695C337.43 128.555 335.18 128.984 332.602 128.984C331.461 128.984 330.297 128.836 329.109 128.539C327.922 128.258 326.812 127.836 325.781 127.273C324.75 126.711 323.883 126.016 323.18 125.188L326.484 120.547C327.125 121.266 327.93 121.875 328.898 122.375C329.867 122.891 331.008 123.148 332.32 123.148C333.461 123.148 334.414 122.945 335.18 122.539C335.961 122.133 336.555 121.539 336.961 120.758C337.367 119.992 337.57 119.062 337.57 117.969V99.6406L338.32 93.6406ZM321.469 106.625V106.133C321.469 104.211 321.703 102.461 322.172 100.883C322.656 99.2891 323.344 97.9219 324.234 96.7812C325.141 95.625 326.234 94.7344 327.516 94.1094C328.797 93.4844 330.242 93.1719 331.852 93.1719C333.586 93.1719 335.008 93.5078 336.117 94.1797C337.242 94.8359 338.141 95.7578 338.812 96.9453C339.5 98.1328 340.031 99.5234 340.406 101.117C340.797 102.695 341.125 104.398 341.391 106.227V106.812C341.125 108.531 340.758 110.156 340.289 111.688C339.836 113.203 339.242 114.547 338.508 115.719C337.773 116.891 336.852 117.812 335.742 118.484C334.648 119.141 333.336 119.469 331.805 119.469C330.211 119.469 328.773 119.148 327.492 118.508C326.227 117.867 325.141 116.969 324.234 115.812C323.344 114.656 322.656 113.297 322.172 111.734C321.703 110.172 321.469 108.469 321.469 106.625ZM329.367 106.133V106.625C329.367 107.578 329.453 108.461 329.625 109.273C329.812 110.086 330.094 110.805 330.469 111.43C330.844 112.039 331.305 112.516 331.852 112.859C332.414 113.203 333.07 113.375 333.82 113.375C334.961 113.375 335.883 113.133 336.586 112.648C337.289 112.164 337.797 111.477 338.109 110.586C338.422 109.695 338.555 108.648 338.508 107.445V105.594C338.539 104.562 338.469 103.656 338.297 102.875C338.125 102.078 337.852 101.414 337.477 100.883C337.117 100.352 336.633 99.9531 336.023 99.6875C335.43 99.4062 334.711 99.2656 333.867 99.2656C333.133 99.2656 332.484 99.4375 331.922 99.7812C331.359 100.125 330.891 100.609 330.516 101.234C330.141 101.844 329.852 102.57 329.648 103.414C329.461 104.242 329.367 105.148 329.367 106.133Z" fill="black"/>
<path d="M1134 0H1348C1356.28 0 1363 6.71573 1363 15V148C1363 156.284 1356.28 163 1348 163H1134V0Z" fill="#B48C60"/>
<path fill-rule="evenodd" clip-rule="evenodd" d="M1202.75 46.5018C1202.75 45.3973 1203.65 44.5018 1204.75 44.5018H1292.25C1293.35 44.5018 1294.25 45.3973 1294.25 46.5018V116.498C1294.25 117.603 1293.35 118.498 1292.25 118.498H1204.75C1203.65 118.498 1202.75 117.603 1202.75 116.498V46.5018ZM1206.75 48.5018V52.9963H1290.25V48.5018H1206.75ZM1290.25 56.9963H1235.19V114.498H1290.25V56.9963ZM1231.19 114.498V56.9963H1206.75V114.498H1231.19Z" fill="white"/>
<path fill-rule="evenodd" clip-rule="evenodd" d="M1209.72 62.3022C1209.72 61.1976 1210.62 60.3022 1211.72 60.3022H1225.72C1226.83 60.3022 1227.72 61.1976 1227.72 62.3022V81.6974C1227.72 82.802 1226.83 83.6974 1225.72 83.6974H1211.72C1210.62 83.6974 1209.72 82.802 1209.72 81.6974V62.3022ZM1213.72 64.3022V79.6974H1223.72V64.3022H1213.72ZM1239.33 63.1982C1239.33 62.0936 1240.22 61.1982 1241.33 61.1982H1284.25C1285.36 61.1982 1286.25 62.0936 1286.25 63.1982V109.407C1286.25 110.511 1285.36 111.407 1284.25 111.407H1241.33C1240.22 111.407 1239.33 110.511 1239.33 109.407V63.1982ZM1243.33 65.1982V107.407H1282.25V65.1982H1243.33ZM1209.56 93.4381C1209.56 92.3336 1210.46 91.4381 1211.56 91.4381H1220.48C1221.59 91.4381 1222.48 92.3336 1222.48 93.4381C1222.48 94.5427 1221.59 95.4381 1220.48 95.4381H1211.56C1210.46 95.4381 1209.56 94.5427 1209.56 93.4381ZM1209.56 100.438C1209.56 99.3335 1210.46 98.4381 1211.56 98.4381H1226.1C1227.21 98.4381 1228.1 99.3335 1228.1 100.438C1228.1 101.543 1227.21 102.438 1226.1 102.438H1211.56C1210.46 102.438 1209.56 101.543 1209.56 100.438ZM1209.56 107.438C1209.56 106.334 1210.46 105.438 1211.56 105.438H1220.48C1221.59 105.438 1222.48 106.334 1222.48 107.438C1222.48 108.543 1221.59 109.438 1220.48 109.438H1211.56C1210.46 109.438 1209.56 108.543 1209.56 107.438Z" fill="white"/>
</svg>
