<svg width="1363" height="297" viewBox="0 0 1363 297" fill="none" xmlns="http://www.w3.org/2000/svg">
<path d="M0 15C0 6.71573 6.71573 0 15 0H37V297H15C6.71573 297 0 290.284 0 282V15Z" fill="#B48C60"/>
<path d="M37 0H1066V297H37V0Z" fill="#F0F0F0"/>
<path d="M105.691 53.7832L98.7305 75H93.123L102.633 49.4062H106.201L105.691 53.7832ZM111.475 75L104.496 53.7832L103.934 49.4062H107.537L117.1 75H111.475ZM111.158 65.4727V69.6035H97.6406V65.4727H111.158ZM119.156 48H124.219V70.6406L123.709 75H119.156V48ZM136.26 65.2969V65.666C136.26 67.084 136.107 68.3848 135.803 69.5684C135.51 70.752 135.053 71.7773 134.432 72.6445C133.811 73.5 133.037 74.168 132.111 74.6484C131.197 75.1172 130.119 75.3516 128.877 75.3516C127.717 75.3516 126.709 75.1172 125.854 74.6484C125.01 74.1797 124.301 73.5176 123.727 72.6621C123.152 71.8066 122.689 70.8047 122.338 69.6562C121.986 68.5078 121.723 67.2539 121.547 65.8945V65.0859C121.723 63.7266 121.986 62.4727 122.338 61.3242C122.689 60.1758 123.152 59.1738 123.727 58.3184C124.301 57.4629 125.01 56.8008 125.854 56.332C126.697 55.8633 127.693 55.6289 128.842 55.6289C130.096 55.6289 131.186 55.8691 132.111 56.3496C133.049 56.8184 133.822 57.4863 134.432 58.3535C135.053 59.209 135.51 60.2285 135.803 61.4121C136.107 62.584 136.26 63.8789 136.26 65.2969ZM131.197 65.666V65.2969C131.197 64.5234 131.139 63.7969 131.021 63.1172C130.916 62.4258 130.729 61.8223 130.459 61.3066C130.189 60.7793 129.82 60.3633 129.352 60.0586C128.895 59.7539 128.303 59.6016 127.576 59.6016C126.885 59.6016 126.299 59.7188 125.818 59.9531C125.338 60.1875 124.939 60.5156 124.623 60.9375C124.318 61.3594 124.09 61.8633 123.938 62.4492C123.785 63.0234 123.691 63.6562 123.656 64.3477V66.6504C123.691 67.5762 123.844 68.3965 124.113 69.1113C124.395 69.8145 124.816 70.3711 125.379 70.7812C125.953 71.1797 126.697 71.3789 127.611 71.3789C128.326 71.3789 128.918 71.2383 129.387 70.957C129.855 70.6758 130.219 70.2773 130.477 69.7617C130.746 69.2461 130.934 68.6426 131.039 67.9512C131.145 67.248 131.197 66.4863 131.197 65.666ZM148.16 75.3516C146.684 75.3516 145.359 75.1172 144.188 74.6484C143.016 74.168 142.02 73.5059 141.199 72.6621C140.391 71.8184 139.77 70.8398 139.336 69.7266C138.902 68.6016 138.686 67.4062 138.686 66.1406V65.4375C138.686 63.9961 138.891 62.6777 139.301 61.4824C139.711 60.2871 140.297 59.25 141.059 58.3711C141.832 57.4922 142.77 56.8184 143.871 56.3496C144.973 55.8691 146.215 55.6289 147.598 55.6289C148.945 55.6289 150.141 55.8516 151.184 56.2969C152.227 56.7422 153.1 57.375 153.803 58.1953C154.518 59.0156 155.057 60 155.42 61.1484C155.783 62.2852 155.965 63.5508 155.965 64.9453V67.0547H140.848V63.6797H150.99V63.293C150.99 62.5898 150.861 61.9629 150.604 61.4121C150.357 60.8496 149.982 60.4043 149.479 60.0762C148.975 59.748 148.33 59.584 147.545 59.584C146.877 59.584 146.303 59.7305 145.822 60.0234C145.342 60.3164 144.949 60.7266 144.645 61.2539C144.352 61.7812 144.129 62.4023 143.977 63.1172C143.836 63.8203 143.766 64.5938 143.766 65.4375V66.1406C143.766 66.9023 143.871 67.6055 144.082 68.25C144.305 68.8945 144.615 69.4512 145.014 69.9199C145.424 70.3887 145.916 70.752 146.49 71.0098C147.076 71.2676 147.738 71.3965 148.477 71.3965C149.391 71.3965 150.24 71.2207 151.025 70.8691C151.822 70.5059 152.508 69.9609 153.082 69.2344L155.543 71.9062C155.145 72.4805 154.6 73.0312 153.908 73.5586C153.229 74.0859 152.408 74.5195 151.447 74.8594C150.486 75.1875 149.391 75.3516 148.16 75.3516ZM170.08 70.8516V48H175.178V75H170.59L170.08 70.8516ZM158.057 65.7188V65.3496C158.057 63.8965 158.221 62.5781 158.549 61.3945C158.877 60.1992 159.357 59.1738 159.99 58.3184C160.623 57.4629 161.402 56.8008 162.328 56.332C163.254 55.8633 164.309 55.6289 165.492 55.6289C166.605 55.6289 167.578 55.8633 168.41 56.332C169.254 56.8008 169.969 57.4688 170.555 58.3359C171.152 59.1914 171.633 60.2051 171.996 61.377C172.359 62.5371 172.623 63.8086 172.787 65.1914V66C172.623 67.3242 172.359 68.5547 171.996 69.6914C171.633 70.8281 171.152 71.8242 170.555 72.6797C169.969 73.5234 169.254 74.1797 168.41 74.6484C167.566 75.1172 166.582 75.3516 165.457 75.3516C164.273 75.3516 163.219 75.1113 162.293 74.6309C161.379 74.1504 160.605 73.4766 159.973 72.6094C159.352 71.7422 158.877 70.7227 158.549 69.5508C158.221 68.3789 158.057 67.1016 158.057 65.7188ZM163.119 65.3496V65.7188C163.119 66.5039 163.178 67.2363 163.295 67.916C163.424 68.5957 163.629 69.1992 163.91 69.7266C164.203 70.2422 164.578 70.6465 165.035 70.9395C165.504 71.2207 166.072 71.3613 166.74 71.3613C167.607 71.3613 168.322 71.168 168.885 70.7812C169.447 70.3828 169.875 69.8379 170.168 69.1465C170.473 68.4551 170.648 67.6582 170.695 66.7559V64.4531C170.66 63.7148 170.555 63.0527 170.379 62.4668C170.215 61.8691 169.969 61.3594 169.641 60.9375C169.324 60.5156 168.926 60.1875 168.445 59.9531C167.977 59.7188 167.42 59.6016 166.775 59.6016C166.119 59.6016 165.557 59.7539 165.088 60.0586C164.619 60.3516 164.238 60.7559 163.945 61.2715C163.664 61.7871 163.453 62.3965 163.312 63.0996C163.184 63.791 163.119 64.541 163.119 65.3496ZM198.82 53.7832L191.859 75H186.252L195.762 49.4062H199.33L198.82 53.7832ZM204.604 75L197.625 53.7832L197.062 49.4062H200.666L210.229 75H204.604ZM204.287 65.4727V69.6035H190.77V65.4727H204.287ZM217.629 48V75H212.549V48H217.629ZM251.379 61.623V71.7656C250.98 72.2461 250.365 72.7676 249.533 73.3301C248.701 73.8809 247.629 74.3555 246.316 74.7539C245.004 75.1523 243.416 75.3516 241.553 75.3516C239.9 75.3516 238.395 75.082 237.035 74.543C235.676 73.9922 234.504 73.1895 233.52 72.1348C232.547 71.0801 231.797 69.791 231.27 68.2676C230.742 66.7324 230.479 64.9805 230.479 63.0117V61.4121C230.479 59.4434 230.73 57.6914 231.234 56.1562C231.75 54.6211 232.482 53.3262 233.432 52.2715C234.381 51.2168 235.512 50.4141 236.824 49.8633C238.137 49.3125 239.596 49.0371 241.201 49.0371C243.428 49.0371 245.256 49.4004 246.686 50.127C248.115 50.8418 249.205 51.8379 249.955 53.1152C250.717 54.3809 251.186 55.834 251.361 57.4746H246.246C246.117 56.6074 245.871 55.8516 245.508 55.207C245.145 54.5625 244.623 54.0586 243.943 53.6953C243.275 53.332 242.408 53.1504 241.342 53.1504C240.463 53.1504 239.678 53.332 238.986 53.6953C238.307 54.0469 237.732 54.5684 237.264 55.2598C236.795 55.9512 236.438 56.8066 236.191 57.8262C235.945 58.8457 235.822 60.0293 235.822 61.377V63.0117C235.822 64.3477 235.951 65.5312 236.209 66.5625C236.467 67.582 236.848 68.4434 237.352 69.1465C237.867 69.8379 238.5 70.3594 239.25 70.7109C240 71.0625 240.873 71.2383 241.869 71.2383C242.701 71.2383 243.393 71.168 243.943 71.0273C244.506 70.8867 244.957 70.7168 245.297 70.5176C245.648 70.3066 245.918 70.1074 246.105 69.9199V65.3848H241.289V61.623H251.379ZM260.256 48V75H255.193V48H260.256ZM259.535 64.8223H258.146C258.158 63.498 258.334 62.2793 258.674 61.166C259.014 60.041 259.5 59.0684 260.133 58.248C260.766 57.416 261.521 56.7715 262.4 56.3145C263.291 55.8574 264.275 55.6289 265.354 55.6289C266.291 55.6289 267.141 55.7637 267.902 56.0332C268.676 56.291 269.338 56.7129 269.889 57.2988C270.451 57.873 270.885 58.6289 271.189 59.5664C271.494 60.5039 271.646 61.6406 271.646 62.9766V75H266.549V62.9414C266.549 62.0977 266.426 61.4355 266.18 60.9551C265.945 60.4629 265.6 60.1172 265.143 59.918C264.697 59.707 264.146 59.6016 263.49 59.6016C262.764 59.6016 262.143 59.7363 261.627 60.0059C261.123 60.2754 260.719 60.6504 260.414 61.1309C260.109 61.5996 259.887 62.1504 259.746 62.7832C259.605 63.416 259.535 64.0957 259.535 64.8223ZM285.762 70.7109V62.2383C285.762 61.6289 285.662 61.1074 285.463 60.6738C285.264 60.2285 284.953 59.8828 284.531 59.6367C284.121 59.3906 283.588 59.2676 282.932 59.2676C282.369 59.2676 281.883 59.3672 281.473 59.5664C281.062 59.7539 280.746 60.0293 280.523 60.3926C280.301 60.7441 280.189 61.1602 280.189 61.6406H275.127C275.127 60.832 275.314 60.0645 275.689 59.3379C276.064 58.6113 276.609 57.9727 277.324 57.4219C278.039 56.8594 278.889 56.4199 279.873 56.1035C280.869 55.7871 281.982 55.6289 283.213 55.6289C284.689 55.6289 286.002 55.875 287.15 56.3672C288.299 56.8594 289.201 57.5977 289.857 58.582C290.525 59.5664 290.859 60.7969 290.859 62.2734V70.4121C290.859 71.4551 290.924 72.3105 291.053 72.9785C291.182 73.6348 291.369 74.209 291.615 74.7012V75H286.5C286.254 74.4844 286.066 73.8398 285.938 73.0664C285.82 72.2812 285.762 71.4961 285.762 70.7109ZM286.43 63.416L286.465 66.2812H283.635C282.967 66.2812 282.387 66.3574 281.895 66.5098C281.402 66.6621 280.998 66.8789 280.682 67.1602C280.365 67.4297 280.131 67.7461 279.979 68.1094C279.838 68.4727 279.768 68.8711 279.768 69.3047C279.768 69.7383 279.867 70.1309 280.066 70.4824C280.266 70.8223 280.553 71.0918 280.928 71.291C281.303 71.4785 281.742 71.5723 282.246 71.5723C283.008 71.5723 283.67 71.4199 284.232 71.1152C284.795 70.8105 285.229 70.4355 285.533 69.9902C285.85 69.5449 286.014 69.123 286.025 68.7246L287.361 70.8691C287.174 71.3496 286.916 71.8477 286.588 72.3633C286.271 72.8789 285.867 73.3652 285.375 73.8223C284.883 74.2676 284.291 74.6367 283.6 74.9297C282.908 75.2109 282.088 75.3516 281.139 75.3516C279.932 75.3516 278.836 75.1113 277.852 74.6309C276.879 74.1387 276.105 73.4648 275.531 72.6094C274.969 71.7422 274.688 70.7578 274.688 69.6562C274.688 68.6602 274.875 67.7754 275.25 67.002C275.625 66.2285 276.176 65.5781 276.902 65.0508C277.641 64.5117 278.561 64.1074 279.662 63.8379C280.764 63.5566 282.041 63.416 283.494 63.416H286.43ZM299.719 60.041V75H294.656V55.9805H299.402L299.719 60.041ZM298.98 64.8223H297.609C297.609 63.416 297.791 62.1504 298.154 61.0254C298.518 59.8887 299.027 58.9219 299.684 58.125C300.34 57.3164 301.119 56.7012 302.021 56.2793C302.936 55.8457 303.955 55.6289 305.08 55.6289C305.971 55.6289 306.785 55.7578 307.523 56.0156C308.262 56.2734 308.895 56.6836 309.422 57.2461C309.961 57.8086 310.371 58.5527 310.652 59.4785C310.945 60.4043 311.092 61.5352 311.092 62.8711V75H305.994V62.8535C305.994 62.0098 305.877 61.3535 305.643 60.8848C305.408 60.416 305.062 60.0879 304.605 59.9004C304.16 59.7012 303.609 59.6016 302.953 59.6016C302.273 59.6016 301.682 59.7363 301.178 60.0059C300.686 60.2754 300.275 60.6504 299.947 61.1309C299.631 61.5996 299.391 62.1504 299.227 62.7832C299.062 63.416 298.98 64.0957 298.98 64.8223ZM320.285 55.9805V75H315.205V55.9805H320.285ZM314.889 51.0234C314.889 50.2852 315.146 49.6758 315.662 49.1953C316.178 48.7148 316.869 48.4746 317.736 48.4746C318.592 48.4746 319.277 48.7148 319.793 49.1953C320.32 49.6758 320.584 50.2852 320.584 51.0234C320.584 51.7617 320.32 52.3711 319.793 52.8516C319.277 53.332 318.592 53.5723 317.736 53.5723C316.869 53.5723 316.178 53.332 315.662 52.8516C315.146 52.3711 314.889 51.7617 314.889 51.0234ZM336.158 49.4062H340.623L347.197 68.1973L353.771 49.4062H358.236L348.99 75H345.404L336.158 49.4062ZM333.75 49.4062H338.197L339.006 67.7227V75H333.75V49.4062ZM356.197 49.4062H360.662V75H355.389V67.7227L356.197 49.4062ZM364.16 65.6836V65.3145C364.16 63.9199 364.359 62.6367 364.758 61.4648C365.156 60.2812 365.736 59.2559 366.498 58.3887C367.26 57.5215 368.197 56.8477 369.311 56.3672C370.424 55.875 371.701 55.6289 373.143 55.6289C374.584 55.6289 375.867 55.875 376.992 56.3672C378.117 56.8477 379.061 57.5215 379.822 58.3887C380.596 59.2559 381.182 60.2812 381.58 61.4648C381.979 62.6367 382.178 63.9199 382.178 65.3145V65.6836C382.178 67.0664 381.979 68.3496 381.58 69.5332C381.182 70.7051 380.596 71.7305 379.822 72.6094C379.061 73.4766 378.123 74.1504 377.01 74.6309C375.896 75.1113 374.619 75.3516 373.178 75.3516C371.736 75.3516 370.453 75.1113 369.328 74.6309C368.215 74.1504 367.271 73.4766 366.498 72.6094C365.736 71.7305 365.156 70.7051 364.758 69.5332C364.359 68.3496 364.16 67.0664 364.16 65.6836ZM369.223 65.3145V65.6836C369.223 66.4805 369.293 67.2246 369.434 67.916C369.574 68.6074 369.797 69.2168 370.102 69.7441C370.418 70.2598 370.828 70.6641 371.332 70.957C371.836 71.25 372.451 71.3965 373.178 71.3965C373.881 71.3965 374.484 71.25 374.988 70.957C375.492 70.6641 375.896 70.2598 376.201 69.7441C376.506 69.2168 376.729 68.6074 376.869 67.916C377.021 67.2246 377.098 66.4805 377.098 65.6836V65.3145C377.098 64.541 377.021 63.8145 376.869 63.1348C376.729 62.4434 376.5 61.834 376.184 61.3066C375.879 60.7676 375.475 60.3457 374.971 60.041C374.467 59.7363 373.857 59.584 373.143 59.584C372.428 59.584 371.818 59.7363 371.314 60.041C370.822 60.3457 370.418 60.7676 370.102 61.3066C369.797 61.834 369.574 62.4434 369.434 63.1348C369.293 63.8145 369.223 64.541 369.223 65.3145ZM395.572 69.7441C395.572 69.3809 395.467 69.0527 395.256 68.7598C395.045 68.4668 394.652 68.1973 394.078 67.9512C393.516 67.6934 392.701 67.459 391.635 67.248C390.674 67.0371 389.777 66.7734 388.945 66.457C388.125 66.1289 387.41 65.7363 386.801 65.2793C386.203 64.8223 385.734 64.2832 385.395 63.6621C385.055 63.0293 384.885 62.3086 384.885 61.5C384.885 60.7031 385.055 59.9531 385.395 59.25C385.746 58.5469 386.244 57.9258 386.889 57.3867C387.545 56.8359 388.342 56.4082 389.279 56.1035C390.229 55.7871 391.295 55.6289 392.479 55.6289C394.131 55.6289 395.549 55.8926 396.732 56.4199C397.928 56.9473 398.842 57.6738 399.475 58.5996C400.119 59.5137 400.441 60.5566 400.441 61.7285H395.379C395.379 61.2363 395.273 60.7969 395.062 60.4102C394.863 60.0117 394.547 59.7012 394.113 59.4785C393.691 59.2441 393.141 59.127 392.461 59.127C391.898 59.127 391.412 59.2266 391.002 59.4258C390.592 59.6133 390.275 59.8711 390.053 60.1992C389.842 60.5156 389.736 60.8672 389.736 61.2539C389.736 61.5469 389.795 61.8105 389.912 62.0449C390.041 62.2676 390.246 62.4727 390.527 62.6602C390.809 62.8477 391.172 63.0234 391.617 63.1875C392.074 63.3398 392.637 63.4805 393.305 63.6094C394.676 63.8906 395.9 64.2598 396.979 64.7168C398.057 65.1621 398.912 65.7715 399.545 66.5449C400.178 67.3066 400.494 68.3086 400.494 69.5508C400.494 70.3945 400.307 71.168 399.932 71.8711C399.557 72.5742 399.018 73.1895 398.314 73.7168C397.611 74.2324 396.768 74.6367 395.783 74.9297C394.811 75.2109 393.715 75.3516 392.496 75.3516C390.727 75.3516 389.227 75.0352 387.996 74.4023C386.777 73.7695 385.852 72.9668 385.219 71.9941C384.598 71.0098 384.287 70.002 384.287 68.9707H389.086C389.109 69.6621 389.285 70.2188 389.613 70.6406C389.953 71.0625 390.381 71.3672 390.896 71.5547C391.424 71.7422 391.992 71.8359 392.602 71.8359C393.258 71.8359 393.803 71.748 394.236 71.5723C394.67 71.3848 394.998 71.1387 395.221 70.834C395.455 70.5176 395.572 70.1543 395.572 69.7441ZM403.781 48H408.844V70.6406L408.334 75H403.781V48ZM420.885 65.2969V65.666C420.885 67.084 420.732 68.3848 420.428 69.5684C420.135 70.752 419.678 71.7773 419.057 72.6445C418.436 73.5 417.662 74.168 416.736 74.6484C415.822 75.1172 414.744 75.3516 413.502 75.3516C412.342 75.3516 411.334 75.1172 410.479 74.6484C409.635 74.1797 408.926 73.5176 408.352 72.6621C407.777 71.8066 407.314 70.8047 406.963 69.6562C406.611 68.5078 406.348 67.2539 406.172 65.8945V65.0859C406.348 63.7266 406.611 62.4727 406.963 61.3242C407.314 60.1758 407.777 59.1738 408.352 58.3184C408.926 57.4629 409.635 56.8008 410.479 56.332C411.322 55.8633 412.318 55.6289 413.467 55.6289C414.721 55.6289 415.811 55.8691 416.736 56.3496C417.674 56.8184 418.447 57.4863 419.057 58.3535C419.678 59.209 420.135 60.2285 420.428 61.4121C420.732 62.584 420.885 63.8789 420.885 65.2969ZM415.822 65.666V65.2969C415.822 64.5234 415.764 63.7969 415.646 63.1172C415.541 62.4258 415.354 61.8223 415.084 61.3066C414.814 60.7793 414.445 60.3633 413.977 60.0586C413.52 59.7539 412.928 59.6016 412.201 59.6016C411.51 59.6016 410.924 59.7188 410.443 59.9531C409.963 60.1875 409.564 60.5156 409.248 60.9375C408.943 61.3594 408.715 61.8633 408.562 62.4492C408.41 63.0234 408.316 63.6562 408.281 64.3477V66.6504C408.316 67.5762 408.469 68.3965 408.738 69.1113C409.02 69.8145 409.441 70.3711 410.004 70.7812C410.578 71.1797 411.322 71.3789 412.236 71.3789C412.951 71.3789 413.543 71.2383 414.012 70.957C414.48 70.6758 414.844 70.2773 415.102 69.7617C415.371 69.2461 415.559 68.6426 415.664 67.9512C415.77 67.248 415.822 66.4863 415.822 65.666ZM434.297 70.7109V62.2383C434.297 61.6289 434.197 61.1074 433.998 60.6738C433.799 60.2285 433.488 59.8828 433.066 59.6367C432.656 59.3906 432.123 59.2676 431.467 59.2676C430.904 59.2676 430.418 59.3672 430.008 59.5664C429.598 59.7539 429.281 60.0293 429.059 60.3926C428.836 60.7441 428.725 61.1602 428.725 61.6406H423.662C423.662 60.832 423.85 60.0645 424.225 59.3379C424.6 58.6113 425.145 57.9727 425.859 57.4219C426.574 56.8594 427.424 56.4199 428.408 56.1035C429.404 55.7871 430.518 55.6289 431.748 55.6289C433.225 55.6289 434.537 55.875 435.686 56.3672C436.834 56.8594 437.736 57.5977 438.393 58.582C439.061 59.5664 439.395 60.7969 439.395 62.2734V70.4121C439.395 71.4551 439.459 72.3105 439.588 72.9785C439.717 73.6348 439.904 74.209 440.15 74.7012V75H435.035C434.789 74.4844 434.602 73.8398 434.473 73.0664C434.355 72.2812 434.297 71.4961 434.297 70.7109ZM434.965 63.416L435 66.2812H432.17C431.502 66.2812 430.922 66.3574 430.43 66.5098C429.938 66.6621 429.533 66.8789 429.217 67.1602C428.9 67.4297 428.666 67.7461 428.514 68.1094C428.373 68.4727 428.303 68.8711 428.303 69.3047C428.303 69.7383 428.402 70.1309 428.602 70.4824C428.801 70.8223 429.088 71.0918 429.463 71.291C429.838 71.4785 430.277 71.5723 430.781 71.5723C431.543 71.5723 432.205 71.4199 432.768 71.1152C433.33 70.8105 433.764 70.4355 434.068 69.9902C434.385 69.5449 434.549 69.123 434.561 68.7246L435.896 70.8691C435.709 71.3496 435.451 71.8477 435.123 72.3633C434.807 72.8789 434.402 73.3652 433.91 73.8223C433.418 74.2676 432.826 74.6367 432.135 74.9297C431.443 75.2109 430.623 75.3516 429.674 75.3516C428.467 75.3516 427.371 75.1113 426.387 74.6309C425.414 74.1387 424.641 73.4648 424.066 72.6094C423.504 71.7422 423.223 70.7578 423.223 69.6562C423.223 68.6602 423.41 67.7754 423.785 67.002C424.16 66.2285 424.711 65.5781 425.438 65.0508C426.176 64.5117 427.096 64.1074 428.197 63.8379C429.299 63.5566 430.576 63.416 432.029 63.416H434.965ZM448.236 48V75H443.174V48H448.236ZM447.516 64.8223H446.127C446.139 63.498 446.314 62.2793 446.654 61.166C446.994 60.041 447.48 59.0684 448.113 58.248C448.746 57.416 449.502 56.7715 450.381 56.3145C451.271 55.8574 452.256 55.6289 453.334 55.6289C454.271 55.6289 455.121 55.7637 455.883 56.0332C456.656 56.291 457.318 56.7129 457.869 57.2988C458.432 57.873 458.865 58.6289 459.17 59.5664C459.475 60.5039 459.627 61.6406 459.627 62.9766V75H454.529V62.9414C454.529 62.0977 454.406 61.4355 454.16 60.9551C453.926 60.4629 453.58 60.1172 453.123 59.918C452.678 59.707 452.127 59.6016 451.471 59.6016C450.744 59.6016 450.123 59.7363 449.607 60.0059C449.104 60.2754 448.699 60.6504 448.395 61.1309C448.09 61.5996 447.867 62.1504 447.727 62.7832C447.586 63.416 447.516 64.0957 447.516 64.8223ZM486.082 68.3027C486.082 67.8457 486.012 67.4355 485.871 67.0723C485.742 66.6973 485.496 66.3574 485.133 66.0527C484.77 65.7363 484.26 65.4258 483.604 65.1211C482.947 64.8164 482.098 64.5 481.055 64.1719C479.895 63.7969 478.793 63.375 477.75 62.9062C476.719 62.4375 475.805 61.8926 475.008 61.2715C474.223 60.6387 473.602 59.9062 473.145 59.0742C472.699 58.2422 472.477 57.2754 472.477 56.1738C472.477 55.1074 472.711 54.1406 473.18 53.2734C473.648 52.3945 474.305 51.6445 475.148 51.0234C475.992 50.3906 476.988 49.9043 478.137 49.5645C479.297 49.2246 480.568 49.0547 481.951 49.0547C483.838 49.0547 485.484 49.3945 486.891 50.0742C488.297 50.7539 489.387 51.6855 490.16 52.8691C490.945 54.0527 491.338 55.4062 491.338 56.9297H486.1C486.1 56.1797 485.941 55.5234 485.625 54.9609C485.32 54.3867 484.852 53.9355 484.219 53.6074C483.598 53.2793 482.812 53.1152 481.863 53.1152C480.949 53.1152 480.188 53.2559 479.578 53.5371C478.969 53.8066 478.512 54.1758 478.207 54.6445C477.902 55.1016 477.75 55.6172 477.75 56.1914C477.75 56.625 477.855 57.0176 478.066 57.3691C478.289 57.7207 478.617 58.0488 479.051 58.3535C479.484 58.6582 480.018 58.9453 480.65 59.2148C481.283 59.4844 482.016 59.748 482.848 60.0059C484.242 60.4277 485.467 60.9023 486.521 61.4297C487.588 61.957 488.479 62.5488 489.193 63.2051C489.908 63.8613 490.447 64.6055 490.811 65.4375C491.174 66.2695 491.355 67.2129 491.355 68.2676C491.355 69.3809 491.139 70.377 490.705 71.2559C490.271 72.1348 489.645 72.8789 488.824 73.4883C488.004 74.0977 487.025 74.5605 485.889 74.877C484.752 75.1934 483.48 75.3516 482.074 75.3516C480.809 75.3516 479.561 75.1875 478.33 74.8594C477.1 74.5195 475.98 74.0098 474.973 73.3301C473.977 72.6504 473.18 71.7832 472.582 70.7285C471.984 69.6738 471.686 68.4258 471.686 66.9844H476.977C476.977 67.7812 477.1 68.4551 477.346 69.0059C477.592 69.5566 477.938 70.002 478.383 70.3418C478.84 70.6816 479.379 70.9277 480 71.0801C480.633 71.2324 481.324 71.3086 482.074 71.3086C482.988 71.3086 483.738 71.1797 484.324 70.9219C484.922 70.6641 485.361 70.3066 485.643 69.8496C485.936 69.3926 486.082 68.877 486.082 68.3027ZM499.564 48V75H494.502V48H499.564ZM498.844 64.8223H497.455C497.467 63.498 497.643 62.2793 497.982 61.166C498.322 60.041 498.809 59.0684 499.441 58.248C500.074 57.416 500.83 56.7715 501.709 56.3145C502.6 55.8574 503.584 55.6289 504.662 55.6289C505.6 55.6289 506.449 55.7637 507.211 56.0332C507.984 56.291 508.646 56.7129 509.197 57.2988C509.76 57.873 510.193 58.6289 510.498 59.5664C510.803 60.5039 510.955 61.6406 510.955 62.9766V75H505.857V62.9414C505.857 62.0977 505.734 61.4355 505.488 60.9551C505.254 60.4629 504.908 60.1172 504.451 59.918C504.006 59.707 503.455 59.6016 502.799 59.6016C502.072 59.6016 501.451 59.7363 500.936 60.0059C500.432 60.2754 500.027 60.6504 499.723 61.1309C499.418 61.5996 499.195 62.1504 499.055 62.7832C498.914 63.416 498.844 64.0957 498.844 64.8223ZM525.07 70.7109V62.2383C525.07 61.6289 524.971 61.1074 524.771 60.6738C524.572 60.2285 524.262 59.8828 523.84 59.6367C523.43 59.3906 522.896 59.2676 522.24 59.2676C521.678 59.2676 521.191 59.3672 520.781 59.5664C520.371 59.7539 520.055 60.0293 519.832 60.3926C519.609 60.7441 519.498 61.1602 519.498 61.6406H514.436C514.436 60.832 514.623 60.0645 514.998 59.3379C515.373 58.6113 515.918 57.9727 516.633 57.4219C517.348 56.8594 518.197 56.4199 519.182 56.1035C520.178 55.7871 521.291 55.6289 522.521 55.6289C523.998 55.6289 525.311 55.875 526.459 56.3672C527.607 56.8594 528.51 57.5977 529.166 58.582C529.834 59.5664 530.168 60.7969 530.168 62.2734V70.4121C530.168 71.4551 530.232 72.3105 530.361 72.9785C530.49 73.6348 530.678 74.209 530.924 74.7012V75H525.809C525.562 74.4844 525.375 73.8398 525.246 73.0664C525.129 72.2812 525.07 71.4961 525.07 70.7109ZM525.738 63.416L525.773 66.2812H522.943C522.275 66.2812 521.695 66.3574 521.203 66.5098C520.711 66.6621 520.307 66.8789 519.99 67.1602C519.674 67.4297 519.439 67.7461 519.287 68.1094C519.146 68.4727 519.076 68.8711 519.076 69.3047C519.076 69.7383 519.176 70.1309 519.375 70.4824C519.574 70.8223 519.861 71.0918 520.236 71.291C520.611 71.4785 521.051 71.5723 521.555 71.5723C522.316 71.5723 522.979 71.4199 523.541 71.1152C524.104 70.8105 524.537 70.4355 524.842 69.9902C525.158 69.5449 525.322 69.123 525.334 68.7246L526.67 70.8691C526.482 71.3496 526.225 71.8477 525.896 72.3633C525.58 72.8789 525.176 73.3652 524.684 73.8223C524.191 74.2676 523.6 74.6367 522.908 74.9297C522.217 75.2109 521.396 75.3516 520.447 75.3516C519.24 75.3516 518.145 75.1113 517.16 74.6309C516.188 74.1387 515.414 73.4648 514.84 72.6094C514.277 71.7422 513.996 70.7578 513.996 69.6562C513.996 68.6602 514.184 67.7754 514.559 67.002C514.934 66.2285 515.484 65.5781 516.211 65.0508C516.949 64.5117 517.869 64.1074 518.971 63.8379C520.072 63.5566 521.35 63.416 522.803 63.416H525.738ZM544.336 70.7109V62.2383C544.336 61.6289 544.236 61.1074 544.037 60.6738C543.838 60.2285 543.527 59.8828 543.105 59.6367C542.695 59.3906 542.162 59.2676 541.506 59.2676C540.943 59.2676 540.457 59.3672 540.047 59.5664C539.637 59.7539 539.32 60.0293 539.098 60.3926C538.875 60.7441 538.764 61.1602 538.764 61.6406H533.701C533.701 60.832 533.889 60.0645 534.264 59.3379C534.639 58.6113 535.184 57.9727 535.898 57.4219C536.613 56.8594 537.463 56.4199 538.447 56.1035C539.443 55.7871 540.557 55.6289 541.787 55.6289C543.264 55.6289 544.576 55.875 545.725 56.3672C546.873 56.8594 547.775 57.5977 548.432 58.582C549.1 59.5664 549.434 60.7969 549.434 62.2734V70.4121C549.434 71.4551 549.498 72.3105 549.627 72.9785C549.756 73.6348 549.943 74.209 550.189 74.7012V75H545.074C544.828 74.4844 544.641 73.8398 544.512 73.0664C544.395 72.2812 544.336 71.4961 544.336 70.7109ZM545.004 63.416L545.039 66.2812H542.209C541.541 66.2812 540.961 66.3574 540.469 66.5098C539.977 66.6621 539.572 66.8789 539.256 67.1602C538.939 67.4297 538.705 67.7461 538.553 68.1094C538.412 68.4727 538.342 68.8711 538.342 69.3047C538.342 69.7383 538.441 70.1309 538.641 70.4824C538.84 70.8223 539.127 71.0918 539.502 71.291C539.877 71.4785 540.316 71.5723 540.82 71.5723C541.582 71.5723 542.244 71.4199 542.807 71.1152C543.369 70.8105 543.803 70.4355 544.107 69.9902C544.424 69.5449 544.588 69.123 544.6 68.7246L545.936 70.8691C545.748 71.3496 545.49 71.8477 545.162 72.3633C544.846 72.8789 544.441 73.3652 543.949 73.8223C543.457 74.2676 542.865 74.6367 542.174 74.9297C541.482 75.2109 540.662 75.3516 539.713 75.3516C538.506 75.3516 537.41 75.1113 536.426 74.6309C535.453 74.1387 534.68 73.4648 534.105 72.6094C533.543 71.7422 533.262 70.7578 533.262 69.6562C533.262 68.6602 533.449 67.7754 533.824 67.002C534.199 66.2285 534.75 65.5781 535.477 65.0508C536.215 64.5117 537.135 64.1074 538.236 63.8379C539.338 63.5566 540.615 63.416 542.068 63.416H545.004ZM553.336 48H558.398V70.6406L557.889 75H553.336V48ZM570.439 65.2969V65.666C570.439 67.084 570.287 68.3848 569.982 69.5684C569.689 70.752 569.232 71.7773 568.611 72.6445C567.99 73.5 567.217 74.168 566.291 74.6484C565.377 75.1172 564.299 75.3516 563.057 75.3516C561.896 75.3516 560.889 75.1172 560.033 74.6484C559.189 74.1797 558.48 73.5176 557.906 72.6621C557.332 71.8066 556.869 70.8047 556.518 69.6562C556.166 68.5078 555.902 67.2539 555.727 65.8945V65.0859C555.902 63.7266 556.166 62.4727 556.518 61.3242C556.869 60.1758 557.332 59.1738 557.906 58.3184C558.48 57.4629 559.189 56.8008 560.033 56.332C560.877 55.8633 561.873 55.6289 563.021 55.6289C564.275 55.6289 565.365 55.8691 566.291 56.3496C567.229 56.8184 568.002 57.4863 568.611 58.3535C569.232 59.209 569.689 60.2285 569.982 61.4121C570.287 62.584 570.439 63.8789 570.439 65.2969ZM565.377 65.666V65.2969C565.377 64.5234 565.318 63.7969 565.201 63.1172C565.096 62.4258 564.908 61.8223 564.639 61.3066C564.369 60.7793 564 60.3633 563.531 60.0586C563.074 59.7539 562.482 59.6016 561.756 59.6016C561.064 59.6016 560.479 59.7188 559.998 59.9531C559.518 60.1875 559.119 60.5156 558.803 60.9375C558.498 61.3594 558.27 61.8633 558.117 62.4492C557.965 63.0234 557.871 63.6562 557.836 64.3477V66.6504C557.871 67.5762 558.023 68.3965 558.293 69.1113C558.574 69.8145 558.996 70.3711 559.559 70.7812C560.133 71.1797 560.877 71.3789 561.791 71.3789C562.506 71.3789 563.098 71.2383 563.566 70.957C564.035 70.6758 564.398 70.2773 564.656 69.7617C564.926 69.2461 565.113 68.6426 565.219 67.9512C565.324 67.248 565.377 66.4863 565.377 65.666ZM583.852 70.7109V62.2383C583.852 61.6289 583.752 61.1074 583.553 60.6738C583.354 60.2285 583.043 59.8828 582.621 59.6367C582.211 59.3906 581.678 59.2676 581.021 59.2676C580.459 59.2676 579.973 59.3672 579.562 59.5664C579.152 59.7539 578.836 60.0293 578.613 60.3926C578.391 60.7441 578.279 61.1602 578.279 61.6406H573.217C573.217 60.832 573.404 60.0645 573.779 59.3379C574.154 58.6113 574.699 57.9727 575.414 57.4219C576.129 56.8594 576.979 56.4199 577.963 56.1035C578.959 55.7871 580.072 55.6289 581.303 55.6289C582.779 55.6289 584.092 55.875 585.24 56.3672C586.389 56.8594 587.291 57.5977 587.947 58.582C588.615 59.5664 588.949 60.7969 588.949 62.2734V70.4121C588.949 71.4551 589.014 72.3105 589.143 72.9785C589.271 73.6348 589.459 74.209 589.705 74.7012V75H584.59C584.344 74.4844 584.156 73.8398 584.027 73.0664C583.91 72.2812 583.852 71.4961 583.852 70.7109ZM584.52 63.416L584.555 66.2812H581.725C581.057 66.2812 580.477 66.3574 579.984 66.5098C579.492 66.6621 579.088 66.8789 578.771 67.1602C578.455 67.4297 578.221 67.7461 578.068 68.1094C577.928 68.4727 577.857 68.8711 577.857 69.3047C577.857 69.7383 577.957 70.1309 578.156 70.4824C578.355 70.8223 578.643 71.0918 579.018 71.291C579.393 71.4785 579.832 71.5723 580.336 71.5723C581.098 71.5723 581.76 71.4199 582.322 71.1152C582.885 70.8105 583.318 70.4355 583.623 69.9902C583.939 69.5449 584.104 69.123 584.115 68.7246L585.451 70.8691C585.264 71.3496 585.006 71.8477 584.678 72.3633C584.361 72.8789 583.957 73.3652 583.465 73.8223C582.973 74.2676 582.381 74.6367 581.689 74.9297C580.998 75.2109 580.178 75.3516 579.229 75.3516C578.021 75.3516 576.926 75.1113 575.941 74.6309C574.969 74.1387 574.195 73.4648 573.621 72.6094C573.059 71.7422 572.777 70.7578 572.777 69.6562C572.777 68.6602 572.965 67.7754 573.34 67.002C573.715 66.2285 574.266 65.5781 574.992 65.0508C575.73 64.5117 576.65 64.1074 577.752 63.8379C578.854 63.5566 580.131 63.416 581.584 63.416H584.52ZM597.809 60.041V75H592.746V55.9805H597.492L597.809 60.041ZM597.07 64.8223H595.699C595.699 63.416 595.881 62.1504 596.244 61.0254C596.607 59.8887 597.117 58.9219 597.773 58.125C598.43 57.3164 599.209 56.7012 600.111 56.2793C601.025 55.8457 602.045 55.6289 603.17 55.6289C604.061 55.6289 604.875 55.7578 605.613 56.0156C606.352 56.2734 606.984 56.6836 607.512 57.2461C608.051 57.8086 608.461 58.5527 608.742 59.4785C609.035 60.4043 609.182 61.5352 609.182 62.8711V75H604.084V62.8535C604.084 62.0098 603.967 61.3535 603.732 60.8848C603.498 60.416 603.152 60.0879 602.695 59.9004C602.25 59.7012 601.699 59.6016 601.043 59.6016C600.363 59.6016 599.771 59.7363 599.268 60.0059C598.775 60.2754 598.365 60.6504 598.037 61.1309C597.721 61.5996 597.48 62.1504 597.316 62.7832C597.152 63.416 597.07 64.0957 597.07 64.8223Z" fill="#888888"/>
<path d="M112.277 123.074H102.023L101.969 116.785H110.281C111.776 116.785 112.97 116.621 113.863 116.293C114.757 115.947 115.404 115.445 115.805 114.789C116.224 114.133 116.434 113.312 116.434 112.328C116.434 111.198 116.224 110.286 115.805 109.594C115.385 108.901 114.72 108.4 113.809 108.09C112.915 107.762 111.758 107.598 110.336 107.598H105.633V140H96.0352V100.188H110.336C112.797 100.188 114.993 100.415 116.926 100.871C118.858 101.309 120.499 101.983 121.848 102.895C123.215 103.806 124.254 104.954 124.965 106.34C125.676 107.707 126.031 109.32 126.031 111.18C126.031 112.802 125.685 114.324 124.992 115.746C124.299 117.168 123.142 118.326 121.52 119.219C119.915 120.094 117.719 120.549 114.93 120.586L112.277 123.074ZM111.895 140H99.6992L102.98 132.617H111.895C113.207 132.617 114.255 132.417 115.039 132.016C115.841 131.596 116.415 131.049 116.762 130.375C117.126 129.682 117.309 128.917 117.309 128.078C117.309 127.057 117.135 126.173 116.789 125.426C116.461 124.678 115.932 124.104 115.203 123.703C114.474 123.284 113.499 123.074 112.277 123.074H104.211L104.266 116.785H113.918L116.16 119.301C118.822 119.191 120.927 119.565 122.477 120.422C124.044 121.279 125.165 122.409 125.84 123.812C126.514 125.216 126.852 126.684 126.852 128.215C126.852 130.822 126.286 133 125.156 134.75C124.044 136.5 122.376 137.812 120.152 138.688C117.928 139.562 115.176 140 111.895 140ZM147.113 132.562V120.367C147.113 119.529 146.995 118.809 146.758 118.207C146.521 117.605 146.147 117.141 145.637 116.812C145.126 116.466 144.443 116.293 143.586 116.293C142.893 116.293 142.301 116.411 141.809 116.648C141.316 116.885 140.943 117.241 140.688 117.715C140.432 118.189 140.305 118.79 140.305 119.52H131.09C131.09 118.152 131.391 116.885 131.992 115.719C132.612 114.534 133.487 113.504 134.617 112.629C135.766 111.754 137.133 111.079 138.719 110.605C140.323 110.113 142.109 109.867 144.078 109.867C146.43 109.867 148.526 110.259 150.367 111.043C152.227 111.827 153.694 113.003 154.77 114.57C155.845 116.12 156.383 118.07 156.383 120.422V132.535C156.383 134.467 156.492 135.935 156.711 136.938C156.93 137.922 157.24 138.788 157.641 139.535V140H148.398C147.961 139.089 147.633 137.977 147.414 136.664C147.214 135.333 147.113 133.966 147.113 132.562ZM148.234 121.926L148.289 126.848H144.215C143.358 126.848 142.629 126.966 142.027 127.203C141.444 127.44 140.97 127.768 140.605 128.188C140.259 128.589 140.004 129.044 139.84 129.555C139.694 130.065 139.621 130.603 139.621 131.168C139.621 131.715 139.749 132.207 140.004 132.645C140.277 133.064 140.642 133.392 141.098 133.629C141.553 133.866 142.064 133.984 142.629 133.984C143.65 133.984 144.516 133.793 145.227 133.41C145.956 133.009 146.512 132.526 146.895 131.961C147.277 131.396 147.469 130.867 147.469 130.375L149.492 134.148C149.128 134.878 148.708 135.616 148.234 136.363C147.779 137.111 147.204 137.803 146.512 138.441C145.837 139.061 145.008 139.572 144.023 139.973C143.039 140.355 141.845 140.547 140.441 140.547C138.618 140.547 136.941 140.173 135.41 139.426C133.897 138.678 132.685 137.639 131.773 136.309C130.862 134.96 130.406 133.41 130.406 131.66C130.406 130.129 130.68 128.762 131.227 127.559C131.792 126.355 132.639 125.335 133.77 124.496C134.9 123.658 136.34 123.02 138.09 122.582C139.84 122.145 141.9 121.926 144.27 121.926H148.234ZM170.793 117.742V140H161.578V110.414H170.191L170.793 117.742ZM179.543 110.195L179.379 118.754C179.014 118.717 178.522 118.672 177.902 118.617C177.283 118.562 176.763 118.535 176.344 118.535C175.268 118.535 174.339 118.663 173.555 118.918C172.789 119.155 172.151 119.52 171.641 120.012C171.148 120.486 170.784 121.087 170.547 121.816C170.328 122.546 170.228 123.393 170.246 124.359L168.578 123.266C168.578 121.279 168.77 119.474 169.152 117.852C169.553 116.211 170.118 114.798 170.848 113.613C171.577 112.41 172.461 111.49 173.5 110.852C174.539 110.195 175.706 109.867 177 109.867C177.456 109.867 177.902 109.895 178.34 109.949C178.796 110.004 179.197 110.086 179.543 110.195ZM182.797 98H192.012V132.727L191.055 140H182.797V98ZM210.168 124.879V125.453C210.168 127.695 209.94 129.737 209.484 131.578C209.029 133.419 208.327 135.014 207.379 136.363C206.431 137.694 205.237 138.724 203.797 139.453C202.357 140.182 200.652 140.547 198.684 140.547C196.897 140.547 195.366 140.164 194.09 139.398C192.814 138.615 191.747 137.539 190.891 136.172C190.034 134.786 189.341 133.191 188.812 131.387C188.284 129.564 187.865 127.613 187.555 125.535V124.852C187.865 122.792 188.284 120.859 188.812 119.055C189.341 117.232 190.034 115.637 190.891 114.27C191.747 112.884 192.805 111.809 194.062 111.043C195.339 110.259 196.861 109.867 198.629 109.867C200.616 109.867 202.329 110.241 203.77 110.988C205.228 111.736 206.431 112.784 207.379 114.133C208.327 115.482 209.029 117.068 209.484 118.891C209.94 120.714 210.168 122.71 210.168 124.879ZM200.953 125.453V124.879C200.953 123.803 200.889 122.792 200.762 121.844C200.634 120.896 200.406 120.057 200.078 119.328C199.75 118.599 199.285 118.025 198.684 117.605C198.082 117.186 197.298 116.977 196.332 116.977C195.348 116.977 194.518 117.141 193.844 117.469C193.188 117.797 192.659 118.271 192.258 118.891C191.875 119.492 191.602 120.24 191.438 121.133C191.273 122.008 191.201 123.001 191.219 124.113V126.273C191.182 127.786 191.319 129.081 191.629 130.156C191.939 131.232 192.477 132.052 193.242 132.617C194.008 133.182 195.056 133.465 196.387 133.465C197.371 133.465 198.164 133.273 198.766 132.891C199.385 132.508 199.85 131.961 200.16 131.25C200.47 130.539 200.68 129.691 200.789 128.707C200.898 127.723 200.953 126.638 200.953 125.453ZM228.598 140.547C226.191 140.547 224.04 140.173 222.145 139.426C220.249 138.66 218.645 137.612 217.332 136.281C216.038 134.951 215.044 133.419 214.352 131.688C213.677 129.956 213.34 128.124 213.34 126.191V125.152C213.34 122.983 213.641 120.978 214.242 119.137C214.844 117.277 215.737 115.655 216.922 114.27C218.107 112.884 219.592 111.809 221.379 111.043C223.165 110.259 225.243 109.867 227.613 109.867C229.71 109.867 231.587 110.204 233.246 110.879C234.905 111.553 236.309 112.52 237.457 113.777C238.624 115.035 239.508 116.557 240.109 118.344C240.729 120.13 241.039 122.135 241.039 124.359V128.105H216.867V122.336H232.043V121.625C232.061 120.641 231.888 119.802 231.523 119.109C231.177 118.417 230.667 117.888 229.992 117.523C229.318 117.159 228.497 116.977 227.531 116.977C226.529 116.977 225.699 117.195 225.043 117.633C224.405 118.07 223.904 118.672 223.539 119.438C223.193 120.185 222.947 121.051 222.801 122.035C222.655 123.02 222.582 124.059 222.582 125.152V126.191C222.582 127.285 222.728 128.279 223.02 129.172C223.329 130.065 223.767 130.831 224.332 131.469C224.915 132.089 225.608 132.572 226.41 132.918C227.23 133.264 228.16 133.438 229.199 133.438C230.457 133.438 231.697 133.201 232.918 132.727C234.139 132.253 235.188 131.469 236.062 130.375L240.246 135.352C239.645 136.208 238.788 137.038 237.676 137.84C236.582 138.642 235.27 139.298 233.738 139.809C232.207 140.301 230.493 140.547 228.598 140.547ZM254.082 117.742V140H244.867V110.414H253.48L254.082 117.742ZM262.832 110.195L262.668 118.754C262.303 118.717 261.811 118.672 261.191 118.617C260.572 118.562 260.052 118.535 259.633 118.535C258.557 118.535 257.628 118.663 256.844 118.918C256.078 119.155 255.44 119.52 254.93 120.012C254.438 120.486 254.073 121.087 253.836 121.816C253.617 122.546 253.517 123.393 253.535 124.359L251.867 123.266C251.867 121.279 252.059 119.474 252.441 117.852C252.842 116.211 253.408 114.798 254.137 113.613C254.866 112.41 255.75 111.49 256.789 110.852C257.828 110.195 258.995 109.867 260.289 109.867C260.745 109.867 261.191 109.895 261.629 109.949C262.085 110.004 262.486 110.086 262.832 110.195ZM296.629 123.074H286.375L286.32 116.785H294.633C296.128 116.785 297.322 116.621 298.215 116.293C299.108 115.947 299.755 115.445 300.156 114.789C300.576 114.133 300.785 113.312 300.785 112.328C300.785 111.198 300.576 110.286 300.156 109.594C299.737 108.901 299.072 108.4 298.16 108.09C297.267 107.762 296.109 107.598 294.688 107.598H289.984V140H280.387V100.188H294.688C297.148 100.188 299.345 100.415 301.277 100.871C303.21 101.309 304.85 101.983 306.199 102.895C307.566 103.806 308.605 104.954 309.316 106.34C310.027 107.707 310.383 109.32 310.383 111.18C310.383 112.802 310.036 114.324 309.344 115.746C308.651 117.168 307.493 118.326 305.871 119.219C304.267 120.094 302.07 120.549 299.281 120.586L296.629 123.074ZM296.246 140H284.051L287.332 132.617H296.246C297.559 132.617 298.607 132.417 299.391 132.016C300.193 131.596 300.767 131.049 301.113 130.375C301.478 129.682 301.66 128.917 301.66 128.078C301.66 127.057 301.487 126.173 301.141 125.426C300.812 124.678 300.284 124.104 299.555 123.703C298.826 123.284 297.85 123.074 296.629 123.074H288.562L288.617 116.785H298.27L300.512 119.301C303.173 119.191 305.279 119.565 306.828 120.422C308.396 121.279 309.517 122.409 310.191 123.812C310.866 125.216 311.203 126.684 311.203 128.215C311.203 130.822 310.638 133 309.508 134.75C308.396 136.5 306.728 137.812 304.504 138.688C302.28 139.562 299.527 140 296.246 140ZM325.176 136.527L332.832 110.414H342.73L330.836 144.402C330.581 145.15 330.243 145.952 329.824 146.809C329.405 147.684 328.831 148.513 328.102 149.297C327.372 150.081 326.434 150.719 325.285 151.211C324.155 151.703 322.751 151.949 321.074 151.949C320.181 151.949 319.525 151.904 319.105 151.812C318.704 151.74 318.085 151.603 317.246 151.402V144.812C317.483 144.812 317.684 144.812 317.848 144.812C318.03 144.812 318.23 144.812 318.449 144.812C319.434 144.812 320.217 144.712 320.801 144.512C321.402 144.311 321.858 144.02 322.168 143.637C322.496 143.254 322.751 142.789 322.934 142.242L325.176 136.527ZM323.234 110.414L329.059 131.113L330.07 140.875H323.891L313.363 110.414H323.234ZM360.723 110.414V116.812H342.895V110.414H360.723ZM346.641 103.059H355.855V130.348C355.855 131.132 355.947 131.742 356.129 132.18C356.311 132.599 356.621 132.9 357.059 133.082C357.514 133.246 358.116 133.328 358.863 133.328C359.392 133.328 359.829 133.319 360.176 133.301C360.522 133.264 360.85 133.219 361.16 133.164V139.754C360.376 140.009 359.556 140.201 358.699 140.328C357.842 140.474 356.931 140.547 355.965 140.547C353.996 140.547 352.31 140.237 350.906 139.617C349.521 138.997 348.464 138.022 347.734 136.691C347.005 135.361 346.641 133.629 346.641 131.496V103.059ZM378.715 140.547C376.309 140.547 374.158 140.173 372.262 139.426C370.366 138.66 368.762 137.612 367.449 136.281C366.155 134.951 365.161 133.419 364.469 131.688C363.794 129.956 363.457 128.124 363.457 126.191V125.152C363.457 122.983 363.758 120.978 364.359 119.137C364.961 117.277 365.854 115.655 367.039 114.27C368.224 112.884 369.71 111.809 371.496 111.043C373.283 110.259 375.361 109.867 377.73 109.867C379.827 109.867 381.704 110.204 383.363 110.879C385.022 111.553 386.426 112.52 387.574 113.777C388.741 115.035 389.625 116.557 390.227 118.344C390.846 120.13 391.156 122.135 391.156 124.359V128.105H366.984V122.336H382.16V121.625C382.178 120.641 382.005 119.802 381.641 119.109C381.294 118.417 380.784 117.888 380.109 117.523C379.435 117.159 378.615 116.977 377.648 116.977C376.646 116.977 375.816 117.195 375.16 117.633C374.522 118.07 374.021 118.672 373.656 119.438C373.31 120.185 373.064 121.051 372.918 122.035C372.772 123.02 372.699 124.059 372.699 125.152V126.191C372.699 127.285 372.845 128.279 373.137 129.172C373.447 130.065 373.884 130.831 374.449 131.469C375.033 132.089 375.725 132.572 376.527 132.918C377.348 133.264 378.277 133.438 379.316 133.438C380.574 133.438 381.814 133.201 383.035 132.727C384.257 132.253 385.305 131.469 386.18 130.375L390.363 135.352C389.762 136.208 388.905 137.038 387.793 137.84C386.699 138.642 385.387 139.298 383.855 139.809C382.324 140.301 380.611 140.547 378.715 140.547Z" fill="black"/>
<rect x="93" y="178" width="917" height="77" rx="10" fill="#D3D3D3"/>
<rect x="111" y="196" width="104" height="41" rx="3" fill="#424242"/>
<rect x="111" y="196" width="104" height="41" rx="3" stroke="#424242" stroke-width="4"/>
<path d="M145.009 210.203V223H141.933L137.406 215.037V223H134.321V210.203H137.406L141.933 218.166V210.203H145.009ZM151.425 223.176C150.651 223.176 149.96 223.056 149.351 222.815C148.741 222.569 148.226 222.232 147.804 221.805C147.388 221.377 147.068 220.885 146.846 220.328C146.629 219.771 146.521 219.183 146.521 218.562V218.228C146.521 217.53 146.617 216.886 146.811 216.294C147.004 215.696 147.291 215.175 147.672 214.729C148.053 214.284 148.53 213.938 149.104 213.692C149.679 213.44 150.347 213.314 151.108 213.314C151.782 213.314 152.386 213.423 152.919 213.64C153.452 213.856 153.903 214.167 154.272 214.571C154.647 214.976 154.932 215.465 155.125 216.039C155.324 216.613 155.424 217.258 155.424 217.973V219.177H147.654V217.322H152.532V217.094C152.538 216.777 152.482 216.508 152.365 216.285C152.254 216.062 152.09 215.893 151.873 215.775C151.656 215.658 151.393 215.6 151.082 215.6C150.76 215.6 150.493 215.67 150.282 215.811C150.077 215.951 149.916 216.145 149.799 216.391C149.688 216.631 149.608 216.909 149.562 217.226C149.515 217.542 149.491 217.876 149.491 218.228V218.562C149.491 218.913 149.538 219.232 149.632 219.52C149.731 219.807 149.872 220.053 150.054 220.258C150.241 220.457 150.464 220.612 150.722 220.724C150.985 220.835 151.284 220.891 151.618 220.891C152.022 220.891 152.421 220.814 152.813 220.662C153.206 220.51 153.543 220.258 153.824 219.906L155.169 221.506C154.976 221.781 154.7 222.048 154.343 222.306C153.991 222.563 153.569 222.774 153.077 222.938C152.585 223.097 152.034 223.176 151.425 223.176ZM159.142 213.49L160.478 216.109L161.857 213.49H164.934L162.438 218.122L165.065 223H161.963L160.478 220.188L159.001 223H155.898L158.526 218.122L156.039 213.49H159.142ZM170.919 213.49V215.547H165.188V213.49H170.919ZM166.393 211.126H169.354V219.897C169.354 220.149 169.384 220.346 169.442 220.486C169.501 220.621 169.601 220.718 169.741 220.776C169.888 220.829 170.081 220.855 170.321 220.855C170.491 220.855 170.632 220.853 170.743 220.847C170.854 220.835 170.96 220.82 171.06 220.803V222.921C170.808 223.003 170.544 223.064 170.269 223.105C169.993 223.152 169.7 223.176 169.39 223.176C168.757 223.176 168.215 223.076 167.764 222.877C167.318 222.678 166.979 222.364 166.744 221.937C166.51 221.509 166.393 220.952 166.393 220.267V211.126ZM177.326 218.983V210.203H180.402V218.983C180.402 219.839 180.206 220.58 179.813 221.207C179.427 221.834 178.899 222.32 178.231 222.666C177.569 223.006 176.825 223.176 175.999 223.176C175.144 223.176 174.382 223.032 173.714 222.745C173.052 222.458 172.53 222.016 172.149 221.418C171.774 220.82 171.587 220.059 171.587 219.133H174.681C174.681 219.566 174.73 219.906 174.83 220.152C174.93 220.393 175.076 220.562 175.27 220.662C175.469 220.756 175.712 220.803 175.999 220.803C176.28 220.803 176.518 220.732 176.711 220.592C176.91 220.445 177.062 220.237 177.168 219.968C177.273 219.692 177.326 219.364 177.326 218.983ZM188.954 219.599C188.954 219.399 188.925 219.221 188.866 219.062C188.808 218.898 188.699 218.746 188.541 218.605C188.383 218.465 188.154 218.324 187.855 218.184C187.562 218.037 187.176 217.885 186.695 217.727C186.133 217.539 185.591 217.328 185.069 217.094C184.548 216.854 184.082 216.575 183.672 216.259C183.262 215.937 182.937 215.562 182.696 215.134C182.456 214.7 182.336 214.196 182.336 213.622C182.336 213.071 182.459 212.576 182.705 212.137C182.951 211.691 183.294 211.313 183.733 211.003C184.179 210.687 184.7 210.446 185.298 210.282C185.896 210.112 186.549 210.027 187.258 210.027C188.195 210.027 189.021 210.191 189.736 210.52C190.457 210.842 191.02 211.302 191.424 211.899C191.834 212.491 192.039 213.191 192.039 214H188.972C188.972 213.678 188.904 213.394 188.77 213.147C188.641 212.901 188.444 212.708 188.181 212.567C187.917 212.427 187.586 212.356 187.188 212.356C186.801 212.356 186.476 212.415 186.212 212.532C185.948 212.649 185.749 212.808 185.614 213.007C185.479 213.2 185.412 213.414 185.412 213.648C185.412 213.842 185.465 214.018 185.57 214.176C185.682 214.328 185.837 214.472 186.036 214.606C186.241 214.741 186.487 214.87 186.774 214.993C187.067 215.116 187.396 215.236 187.759 215.354C188.438 215.57 189.042 215.813 189.569 216.083C190.103 216.347 190.551 216.648 190.914 216.988C191.283 217.322 191.562 217.703 191.749 218.131C191.942 218.559 192.039 219.042 192.039 219.581C192.039 220.155 191.928 220.665 191.705 221.11C191.482 221.556 191.163 221.934 190.747 222.244C190.331 222.549 189.833 222.78 189.253 222.938C188.673 223.097 188.025 223.176 187.311 223.176C186.654 223.176 186.007 223.094 185.368 222.93C184.735 222.76 184.161 222.502 183.646 222.156C183.13 221.805 182.717 221.356 182.406 220.812C182.102 220.261 181.949 219.607 181.949 218.852H185.043C185.043 219.227 185.093 219.543 185.192 219.801C185.292 220.059 185.438 220.267 185.632 220.425C185.825 220.577 186.062 220.688 186.344 220.759C186.625 220.823 186.947 220.855 187.311 220.855C187.703 220.855 188.02 220.8 188.26 220.688C188.5 220.571 188.676 220.419 188.787 220.231C188.898 220.038 188.954 219.827 188.954 219.599Z" fill="white"/>
<rect x="235" y="196" width="90" height="41" rx="3" fill="#424242"/>
<rect x="235" y="196" width="90" height="41" rx="3" stroke="#424242" stroke-width="4"/>
<path d="M258.142 210.203H263.178C264.162 210.203 265.018 210.35 265.744 210.643C266.471 210.936 267.03 211.369 267.423 211.943C267.821 212.518 268.021 213.227 268.021 214.07C268.021 214.803 267.906 215.415 267.678 215.907C267.449 216.399 267.13 216.807 266.72 217.129C266.315 217.445 265.844 217.706 265.305 217.911L264.294 218.482H260.066L260.049 216.101H263.178C263.57 216.101 263.896 216.03 264.153 215.89C264.411 215.749 264.604 215.55 264.733 215.292C264.868 215.028 264.936 214.715 264.936 214.352C264.936 213.982 264.868 213.666 264.733 213.402C264.599 213.139 264.399 212.937 264.136 212.796C263.878 212.655 263.559 212.585 263.178 212.585H261.227V223H258.142V210.203ZM265.146 223L262.316 217.34L265.586 217.322L268.451 222.868V223H265.146ZM274.683 220.609V216.689C274.683 216.42 274.645 216.188 274.568 215.995C274.492 215.802 274.372 215.652 274.208 215.547C274.044 215.436 273.824 215.38 273.549 215.38C273.326 215.38 273.136 215.418 272.978 215.494C272.819 215.57 272.699 215.685 272.617 215.837C272.535 215.989 272.494 216.183 272.494 216.417H269.532C269.532 215.978 269.629 215.57 269.822 215.195C270.021 214.814 270.303 214.483 270.666 214.202C271.035 213.921 271.475 213.704 271.984 213.552C272.5 213.394 273.074 213.314 273.707 213.314C274.463 213.314 275.137 213.44 275.729 213.692C276.326 213.944 276.798 214.322 277.144 214.826C277.489 215.324 277.662 215.951 277.662 216.707V220.601C277.662 221.222 277.697 221.693 277.768 222.016C277.838 222.332 277.938 222.61 278.066 222.851V223H275.096C274.955 222.707 274.85 222.35 274.779 221.928C274.715 221.5 274.683 221.061 274.683 220.609ZM275.043 217.19L275.061 218.772H273.751C273.476 218.772 273.241 218.811 273.048 218.887C272.86 218.963 272.708 219.068 272.591 219.203C272.479 219.332 272.397 219.479 272.345 219.643C272.298 219.807 272.274 219.979 272.274 220.161C272.274 220.337 272.315 220.495 272.397 220.636C272.485 220.771 272.603 220.876 272.749 220.952C272.896 221.028 273.06 221.066 273.241 221.066C273.569 221.066 273.848 221.005 274.076 220.882C274.311 220.753 274.489 220.598 274.612 220.416C274.735 220.234 274.797 220.064 274.797 219.906L275.447 221.119C275.33 221.354 275.195 221.591 275.043 221.831C274.896 222.071 274.712 222.294 274.489 222.499C274.272 222.698 274.006 222.862 273.689 222.991C273.373 223.114 272.989 223.176 272.538 223.176C271.952 223.176 271.413 223.056 270.921 222.815C270.435 222.575 270.045 222.241 269.752 221.813C269.459 221.38 269.312 220.882 269.312 220.319C269.312 219.827 269.4 219.388 269.576 219.001C269.758 218.614 270.03 218.286 270.394 218.017C270.757 217.747 271.22 217.542 271.782 217.401C272.345 217.261 273.007 217.19 273.769 217.19H275.043ZM284.772 220.82V209.5H287.752V223H285.08L284.772 220.82ZM278.937 218.359V218.175C278.937 217.454 279.016 216.798 279.174 216.206C279.332 215.608 279.566 215.096 279.877 214.668C280.188 214.234 280.574 213.9 281.037 213.666C281.5 213.432 282.033 213.314 282.637 213.314C283.176 213.314 283.647 213.44 284.052 213.692C284.456 213.938 284.802 214.284 285.089 214.729C285.376 215.175 285.61 215.696 285.792 216.294C285.974 216.886 286.111 217.524 286.205 218.21V218.43C286.111 219.074 285.974 219.684 285.792 220.258C285.61 220.826 285.376 221.33 285.089 221.77C284.802 222.209 284.453 222.555 284.043 222.807C283.639 223.053 283.164 223.176 282.619 223.176C282.016 223.176 281.482 223.056 281.02 222.815C280.562 222.575 280.179 222.238 279.868 221.805C279.563 221.371 279.332 220.861 279.174 220.275C279.016 219.689 278.937 219.051 278.937 218.359ZM281.898 218.175V218.359C281.898 218.717 281.922 219.048 281.969 219.353C282.016 219.657 282.095 219.927 282.206 220.161C282.323 220.39 282.476 220.568 282.663 220.697C282.856 220.826 283.094 220.891 283.375 220.891C283.756 220.891 284.069 220.8 284.315 220.618C284.567 220.437 284.752 220.179 284.869 219.845C284.992 219.511 285.045 219.118 285.027 218.667V217.973C285.039 217.586 285.013 217.246 284.948 216.953C284.884 216.654 284.781 216.405 284.641 216.206C284.506 216.007 284.333 215.857 284.122 215.758C283.917 215.652 283.674 215.6 283.393 215.6C283.117 215.6 282.883 215.664 282.689 215.793C282.502 215.922 282.35 216.104 282.232 216.338C282.115 216.566 282.03 216.839 281.978 217.155C281.925 217.466 281.898 217.806 281.898 218.175ZM292.56 213.49V223H289.589V213.49H292.56ZM289.413 211.038C289.413 210.616 289.565 210.271 289.87 210.001C290.175 209.731 290.57 209.597 291.057 209.597C291.543 209.597 291.938 209.731 292.243 210.001C292.548 210.271 292.7 210.616 292.7 211.038C292.7 211.46 292.548 211.806 292.243 212.075C291.938 212.345 291.543 212.479 291.057 212.479C290.57 212.479 290.175 212.345 289.87 212.075C289.565 211.806 289.413 211.46 289.413 211.038ZM296.901 213.49L298.237 216.109L299.617 213.49H302.693L300.197 218.122L302.825 223H299.723L298.237 220.188L296.761 223H293.658L296.286 218.122L293.799 213.49H296.901Z" fill="white"/>
<rect x="345" y="196" width="86" height="41" rx="3" fill="#424242"/>
<rect x="345" y="196" width="86" height="41" rx="3" stroke="#424242" stroke-width="4"/>
<path d="M374.491 210.203V223H371.406V210.203H374.491ZM378.341 210.203V212.585H367.645V210.203H378.341ZM382.955 220.609V216.689C382.955 216.42 382.917 216.188 382.841 215.995C382.765 215.802 382.645 215.652 382.48 215.547C382.316 215.436 382.097 215.38 381.821 215.38C381.599 215.38 381.408 215.418 381.25 215.494C381.092 215.57 380.972 215.685 380.89 215.837C380.808 215.989 380.767 216.183 380.767 216.417H377.805C377.805 215.978 377.901 215.57 378.095 215.195C378.294 214.814 378.575 214.483 378.938 214.202C379.308 213.921 379.747 213.704 380.257 213.552C380.772 213.394 381.347 213.314 381.979 213.314C382.735 213.314 383.409 213.44 384.001 213.692C384.599 213.944 385.07 214.322 385.416 214.826C385.762 215.324 385.935 215.951 385.935 216.707V220.601C385.935 221.222 385.97 221.693 386.04 222.016C386.11 222.332 386.21 222.61 386.339 222.851V223H383.368C383.228 222.707 383.122 222.35 383.052 221.928C382.987 221.5 382.955 221.061 382.955 220.609ZM383.315 217.19L383.333 218.772H382.023C381.748 218.772 381.514 218.811 381.32 218.887C381.133 218.963 380.98 219.068 380.863 219.203C380.752 219.332 380.67 219.479 380.617 219.643C380.57 219.807 380.547 219.979 380.547 220.161C380.547 220.337 380.588 220.495 380.67 220.636C380.758 220.771 380.875 220.876 381.021 220.952C381.168 221.028 381.332 221.066 381.514 221.066C381.842 221.066 382.12 221.005 382.349 220.882C382.583 220.753 382.762 220.598 382.885 220.416C383.008 220.234 383.069 220.064 383.069 219.906L383.72 221.119C383.603 221.354 383.468 221.591 383.315 221.831C383.169 222.071 382.984 222.294 382.762 222.499C382.545 222.698 382.278 222.862 381.962 222.991C381.646 223.114 381.262 223.176 380.811 223.176C380.225 223.176 379.686 223.056 379.193 222.815C378.707 222.575 378.317 222.241 378.024 221.813C377.731 221.38 377.585 220.882 377.585 220.319C377.585 219.827 377.673 219.388 377.849 219.001C378.03 218.614 378.303 218.286 378.666 218.017C379.029 217.747 379.492 217.542 380.055 217.401C380.617 217.261 381.279 217.19 382.041 217.19H383.315ZM393.133 220.688V213.49H396.104V223H393.326L393.133 220.688ZM393.414 218.755L394.188 218.737C394.188 219.376 394.111 219.968 393.959 220.513C393.807 221.052 393.581 221.521 393.282 221.919C392.989 222.317 392.626 222.628 392.192 222.851C391.765 223.067 391.27 223.176 390.707 223.176C390.238 223.176 389.808 223.111 389.415 222.982C389.028 222.848 388.694 222.64 388.413 222.358C388.132 222.071 387.912 221.705 387.754 221.26C387.602 220.809 387.525 220.27 387.525 219.643V213.49H390.487V219.66C390.487 219.871 390.514 220.053 390.566 220.205C390.619 220.357 390.695 220.486 390.795 220.592C390.895 220.691 391.018 220.768 391.164 220.82C391.316 220.867 391.489 220.891 391.683 220.891C392.128 220.891 392.477 220.797 392.729 220.609C392.98 220.422 393.156 220.167 393.256 219.845C393.361 219.522 393.414 219.159 393.414 218.755ZM400.727 215.846V223H397.765V213.49H400.533L400.727 215.846ZM403.539 213.42L403.486 216.171C403.369 216.159 403.211 216.145 403.012 216.127C402.812 216.109 402.646 216.101 402.511 216.101C402.165 216.101 401.866 216.142 401.614 216.224C401.368 216.3 401.163 216.417 400.999 216.575C400.841 216.728 400.724 216.921 400.647 217.155C400.577 217.39 400.545 217.662 400.551 217.973L400.015 217.621C400.015 216.982 400.076 216.402 400.199 215.881C400.328 215.354 400.51 214.899 400.744 214.519C400.979 214.132 401.263 213.836 401.597 213.631C401.931 213.42 402.306 213.314 402.722 213.314C402.868 213.314 403.012 213.323 403.152 213.341C403.299 213.358 403.428 213.385 403.539 213.42ZM407.688 213.49V223H404.717V213.49H407.688ZM404.541 211.038C404.541 210.616 404.693 210.271 404.998 210.001C405.303 209.731 405.698 209.597 406.185 209.597C406.671 209.597 407.066 209.731 407.371 210.001C407.676 210.271 407.828 210.616 407.828 211.038C407.828 211.46 407.676 211.806 407.371 212.075C407.066 212.345 406.671 212.479 406.185 212.479C405.698 212.479 405.303 212.345 404.998 212.075C404.693 211.806 404.541 211.46 404.541 211.038Z" fill="white"/>
<rect x="451" y="196" width="104" height="41" rx="3" fill="#424242"/>
<rect x="451" y="196" width="104" height="41" rx="3" stroke="#424242" stroke-width="4"/>
<path d="M482.812 220.627V223H476.343V220.627H482.812ZM477.441 210.203V223H474.356V210.203H477.441ZM488.911 220.609V216.689C488.911 216.42 488.873 216.188 488.797 215.995C488.721 215.802 488.601 215.652 488.437 215.547C488.272 215.436 488.053 215.38 487.777 215.38C487.555 215.38 487.364 215.418 487.206 215.494C487.048 215.57 486.928 215.685 486.846 215.837C486.764 215.989 486.723 216.183 486.723 216.417H483.761C483.761 215.978 483.857 215.57 484.051 215.195C484.25 214.814 484.531 214.483 484.895 214.202C485.264 213.921 485.703 213.704 486.213 213.552C486.729 213.394 487.303 213.314 487.936 213.314C488.691 213.314 489.365 213.44 489.957 213.692C490.555 213.944 491.026 214.322 491.372 214.826C491.718 215.324 491.891 215.951 491.891 216.707V220.601C491.891 221.222 491.926 221.693 491.996 222.016C492.066 222.332 492.166 222.61 492.295 222.851V223H489.324C489.184 222.707 489.078 222.35 489.008 221.928C488.943 221.5 488.911 221.061 488.911 220.609ZM489.271 217.19L489.289 218.772H487.979C487.704 218.772 487.47 218.811 487.276 218.887C487.089 218.963 486.937 219.068 486.819 219.203C486.708 219.332 486.626 219.479 486.573 219.643C486.526 219.807 486.503 219.979 486.503 220.161C486.503 220.337 486.544 220.495 486.626 220.636C486.714 220.771 486.831 220.876 486.978 220.952C487.124 221.028 487.288 221.066 487.47 221.066C487.798 221.066 488.076 221.005 488.305 220.882C488.539 220.753 488.718 220.598 488.841 220.416C488.964 220.234 489.025 220.064 489.025 219.906L489.676 221.119C489.559 221.354 489.424 221.591 489.271 221.831C489.125 222.071 488.94 222.294 488.718 222.499C488.501 222.698 488.234 222.862 487.918 222.991C487.602 223.114 487.218 223.176 486.767 223.176C486.181 223.176 485.642 223.056 485.149 222.815C484.663 222.575 484.273 222.241 483.98 221.813C483.688 221.38 483.541 220.882 483.541 220.319C483.541 219.827 483.629 219.388 483.805 219.001C483.986 218.614 484.259 218.286 484.622 218.017C484.985 217.747 485.448 217.542 486.011 217.401C486.573 217.261 487.235 217.19 487.997 217.19H489.271ZM496.522 215.846V223H493.561V213.49H496.329L496.522 215.846ZM499.335 213.42L499.282 216.171C499.165 216.159 499.007 216.145 498.808 216.127C498.608 216.109 498.441 216.101 498.307 216.101C497.961 216.101 497.662 216.142 497.41 216.224C497.164 216.3 496.959 216.417 496.795 216.575C496.637 216.728 496.52 216.921 496.443 217.155C496.373 217.39 496.341 217.662 496.347 217.973L495.811 217.621C495.811 216.982 495.872 216.402 495.995 215.881C496.124 215.354 496.306 214.899 496.54 214.519C496.774 214.132 497.059 213.836 497.393 213.631C497.727 213.42 498.102 213.314 498.518 213.314C498.664 213.314 498.808 213.323 498.948 213.341C499.095 213.358 499.224 213.385 499.335 213.42ZM505.03 220.609V216.689C505.03 216.42 504.992 216.188 504.916 215.995C504.84 215.802 504.72 215.652 504.556 215.547C504.392 215.436 504.172 215.38 503.896 215.38C503.674 215.38 503.483 215.418 503.325 215.494C503.167 215.57 503.047 215.685 502.965 215.837C502.883 215.989 502.842 216.183 502.842 216.417H499.88C499.88 215.978 499.977 215.57 500.17 215.195C500.369 214.814 500.65 214.483 501.014 214.202C501.383 213.921 501.822 213.704 502.332 213.552C502.848 213.394 503.422 213.314 504.055 213.314C504.811 213.314 505.484 213.44 506.076 213.692C506.674 213.944 507.146 214.322 507.491 214.826C507.837 215.324 508.01 215.951 508.01 216.707V220.601C508.01 221.222 508.045 221.693 508.115 222.016C508.186 222.332 508.285 222.61 508.414 222.851V223H505.443C505.303 222.707 505.197 222.35 505.127 221.928C505.062 221.5 505.03 221.061 505.03 220.609ZM505.391 217.19L505.408 218.772H504.099C503.823 218.772 503.589 218.811 503.396 218.887C503.208 218.963 503.056 219.068 502.938 219.203C502.827 219.332 502.745 219.479 502.692 219.643C502.646 219.807 502.622 219.979 502.622 220.161C502.622 220.337 502.663 220.495 502.745 220.636C502.833 220.771 502.95 220.876 503.097 220.952C503.243 221.028 503.407 221.066 503.589 221.066C503.917 221.066 504.195 221.005 504.424 220.882C504.658 220.753 504.837 220.598 504.96 220.416C505.083 220.234 505.145 220.064 505.145 219.906L505.795 221.119C505.678 221.354 505.543 221.591 505.391 221.831C505.244 222.071 505.06 222.294 504.837 222.499C504.62 222.698 504.354 222.862 504.037 222.991C503.721 223.114 503.337 223.176 502.886 223.176C502.3 223.176 501.761 223.056 501.269 222.815C500.782 222.575 500.393 222.241 500.1 221.813C499.807 221.38 499.66 220.882 499.66 220.319C499.66 219.827 499.748 219.388 499.924 219.001C500.105 218.614 500.378 218.286 500.741 218.017C501.104 217.747 501.567 217.542 502.13 217.401C502.692 217.261 503.354 217.19 504.116 217.19H505.391ZM512.94 220.97L514.812 213.49H517.933L514.821 223H512.976L512.94 220.97ZM511.833 213.49L513.679 220.97L513.661 223H511.807L508.704 213.49H511.833ZM523.294 223.176C522.521 223.176 521.829 223.056 521.22 222.815C520.61 222.569 520.095 222.232 519.673 221.805C519.257 221.377 518.938 220.885 518.715 220.328C518.498 219.771 518.39 219.183 518.39 218.562V218.228C518.39 217.53 518.486 216.886 518.68 216.294C518.873 215.696 519.16 215.175 519.541 214.729C519.922 214.284 520.399 213.938 520.974 213.692C521.548 213.44 522.216 213.314 522.978 213.314C523.651 213.314 524.255 213.423 524.788 213.64C525.321 213.856 525.772 214.167 526.142 214.571C526.517 214.976 526.801 215.465 526.994 216.039C527.193 216.613 527.293 217.258 527.293 217.973V219.177H519.523V217.322H524.401V217.094C524.407 216.777 524.352 216.508 524.234 216.285C524.123 216.062 523.959 215.893 523.742 215.775C523.525 215.658 523.262 215.6 522.951 215.6C522.629 215.6 522.362 215.67 522.151 215.811C521.946 215.951 521.785 216.145 521.668 216.391C521.557 216.631 521.478 216.909 521.431 217.226C521.384 217.542 521.36 217.876 521.36 218.228V218.562C521.36 218.913 521.407 219.232 521.501 219.52C521.601 219.807 521.741 220.053 521.923 220.258C522.11 220.457 522.333 220.612 522.591 220.724C522.854 220.835 523.153 220.891 523.487 220.891C523.892 220.891 524.29 220.814 524.683 220.662C525.075 220.51 525.412 220.258 525.693 219.906L527.038 221.506C526.845 221.781 526.569 222.048 526.212 222.306C525.86 222.563 525.438 222.774 524.946 222.938C524.454 223.097 523.903 223.176 523.294 223.176ZM531.626 209.5V223H528.655V209.5H531.626Z" fill="white"/>
<rect x="575" y="196" width="131" height="41" rx="3" fill="#424242"/>
<rect x="575" y="196" width="131" height="41" rx="3" stroke="#424242" stroke-width="4"/>
<path d="M604.359 210.203V223H601.274V210.203H604.359ZM608.209 210.203V212.585H597.513V210.203H608.209ZM611.575 221.884L614.036 213.49H617.218L613.395 224.415C613.312 224.655 613.204 224.913 613.069 225.188C612.935 225.47 612.75 225.736 612.516 225.988C612.281 226.24 611.979 226.445 611.61 226.604C611.247 226.762 610.796 226.841 610.257 226.841C609.97 226.841 609.759 226.826 609.624 226.797C609.495 226.773 609.296 226.729 609.026 226.665V224.547C609.103 224.547 609.167 224.547 609.22 224.547C609.278 224.547 609.343 224.547 609.413 224.547C609.729 224.547 609.981 224.515 610.169 224.45C610.362 224.386 610.509 224.292 610.608 224.169C610.714 224.046 610.796 223.896 610.854 223.721L611.575 221.884ZM610.951 213.49L612.823 220.144L613.148 223.281H611.162L607.778 213.49H610.951ZM620.979 215.318V226.656H618.018V213.49H620.777L620.979 215.318ZM626.815 218.131V218.315C626.815 219.007 626.736 219.648 626.578 220.24C626.42 220.832 626.186 221.348 625.875 221.787C625.564 222.227 625.178 222.569 624.715 222.815C624.258 223.056 623.728 223.176 623.124 223.176C622.556 223.176 622.066 223.05 621.656 222.798C621.246 222.546 620.903 222.197 620.628 221.752C620.353 221.307 620.13 220.797 619.96 220.223C619.79 219.648 619.655 219.042 619.556 218.403V218.166C619.655 217.48 619.79 216.845 619.96 216.259C620.13 215.667 620.353 215.151 620.628 214.712C620.903 214.272 621.243 213.93 621.647 213.684C622.058 213.438 622.547 213.314 623.115 213.314C623.719 213.314 624.249 213.429 624.706 213.657C625.169 213.886 625.556 214.214 625.866 214.642C626.183 215.063 626.42 215.57 626.578 216.162C626.736 216.754 626.815 217.41 626.815 218.131ZM623.854 218.315V218.131C623.854 217.762 623.827 217.425 623.774 217.12C623.722 216.81 623.637 216.54 623.52 216.312C623.408 216.083 623.259 215.907 623.071 215.784C622.884 215.661 622.652 215.6 622.377 215.6C622.061 215.6 621.794 215.649 621.577 215.749C621.366 215.843 621.196 215.989 621.067 216.188C620.944 216.382 620.856 216.625 620.804 216.918C620.757 217.205 620.736 217.542 620.742 217.929V218.649C620.73 219.095 620.774 219.487 620.874 219.827C620.974 220.161 621.146 220.422 621.393 220.609C621.639 220.797 621.973 220.891 622.395 220.891C622.676 220.891 622.91 220.826 623.098 220.697C623.285 220.562 623.435 220.378 623.546 220.144C623.657 219.903 623.736 219.628 623.783 219.317C623.83 219.007 623.854 218.673 623.854 218.315ZM632.739 223.176C631.966 223.176 631.274 223.056 630.665 222.815C630.056 222.569 629.54 222.232 629.118 221.805C628.702 221.377 628.383 220.885 628.16 220.328C627.943 219.771 627.835 219.183 627.835 218.562V218.228C627.835 217.53 627.932 216.886 628.125 216.294C628.318 215.696 628.605 215.175 628.986 214.729C629.367 214.284 629.845 213.938 630.419 213.692C630.993 213.44 631.661 213.314 632.423 213.314C633.097 213.314 633.7 213.423 634.233 213.64C634.767 213.856 635.218 214.167 635.587 214.571C635.962 214.976 636.246 215.465 636.439 216.039C636.639 216.613 636.738 217.258 636.738 217.973V219.177H628.969V217.322H633.847V217.094C633.853 216.777 633.797 216.508 633.68 216.285C633.568 216.062 633.404 215.893 633.188 215.775C632.971 215.658 632.707 215.6 632.396 215.6C632.074 215.6 631.808 215.67 631.597 215.811C631.392 215.951 631.23 216.145 631.113 216.391C631.002 216.631 630.923 216.909 630.876 217.226C630.829 217.542 630.806 217.876 630.806 218.228V218.562C630.806 218.913 630.853 219.232 630.946 219.52C631.046 219.807 631.187 220.053 631.368 220.258C631.556 220.457 631.778 220.612 632.036 220.724C632.3 220.835 632.599 220.891 632.933 220.891C633.337 220.891 633.735 220.814 634.128 220.662C634.521 220.51 634.857 220.258 635.139 219.906L636.483 221.506C636.29 221.781 636.015 222.048 635.657 222.306C635.306 222.563 634.884 222.774 634.392 222.938C633.899 223.097 633.349 223.176 632.739 223.176ZM642.926 220.328C642.926 220.164 642.87 220.023 642.759 219.906C642.653 219.783 642.466 219.672 642.196 219.572C641.927 219.467 641.549 219.361 641.062 219.256C640.6 219.156 640.163 219.024 639.753 218.86C639.349 218.696 638.994 218.497 638.689 218.263C638.385 218.028 638.145 217.75 637.969 217.428C637.799 217.105 637.714 216.736 637.714 216.32C637.714 215.916 637.799 215.535 637.969 215.178C638.145 214.814 638.399 214.495 638.733 214.22C639.073 213.938 639.486 213.719 639.973 213.561C640.459 213.396 641.013 213.314 641.634 213.314C642.489 213.314 643.228 213.446 643.849 213.71C644.47 213.968 644.947 214.331 645.281 214.8C645.621 215.263 645.791 215.799 645.791 216.408H642.829C642.829 216.168 642.788 215.963 642.706 215.793C642.63 215.623 642.504 215.494 642.328 215.406C642.152 215.312 641.918 215.266 641.625 215.266C641.42 215.266 641.232 215.304 641.062 215.38C640.898 215.456 640.767 215.562 640.667 215.696C640.567 215.831 640.518 215.989 640.518 216.171C640.518 216.3 640.547 216.417 640.605 216.522C640.67 216.622 640.767 216.716 640.896 216.804C641.024 216.886 641.188 216.962 641.388 217.032C641.587 217.097 641.827 217.155 642.108 217.208C642.747 217.325 643.345 217.492 643.901 217.709C644.458 217.926 644.909 218.233 645.255 218.632C645.606 219.03 645.782 219.566 645.782 220.24C645.782 220.662 645.686 221.052 645.492 221.409C645.299 221.761 645.021 222.071 644.657 222.341C644.294 222.604 643.857 222.81 643.348 222.956C642.838 223.103 642.264 223.176 641.625 223.176C640.717 223.176 639.949 223.015 639.322 222.692C638.695 222.364 638.221 221.954 637.898 221.462C637.582 220.964 637.424 220.46 637.424 219.95H640.184C640.195 220.243 640.266 220.483 640.395 220.671C640.529 220.858 640.708 220.996 640.931 221.084C641.153 221.172 641.411 221.216 641.704 221.216C641.974 221.216 642.196 221.178 642.372 221.102C642.554 221.025 642.691 220.923 642.785 220.794C642.879 220.659 642.926 220.504 642.926 220.328ZM651.188 220.891C651.463 220.891 651.697 220.841 651.891 220.741C652.09 220.636 652.239 220.489 652.339 220.302C652.444 220.108 652.494 219.877 652.488 219.607H655.274C655.28 220.322 655.104 220.949 654.747 221.488C654.396 222.021 653.915 222.438 653.306 222.736C652.702 223.029 652.02 223.176 651.258 223.176C650.514 223.176 649.863 223.056 649.307 222.815C648.75 222.569 648.284 222.229 647.909 221.796C647.54 221.356 647.262 220.844 647.074 220.258C646.893 219.672 646.802 219.036 646.802 218.351V218.148C646.802 217.463 646.893 216.827 647.074 216.241C647.262 215.649 647.54 215.137 647.909 214.703C648.284 214.264 648.747 213.924 649.298 213.684C649.854 213.438 650.502 213.314 651.24 213.314C652.031 213.314 652.729 213.464 653.332 213.763C653.941 214.062 654.419 214.495 654.765 215.063C655.11 215.632 655.28 216.32 655.274 217.129H652.488C652.494 216.842 652.45 216.584 652.356 216.355C652.263 216.127 652.116 215.945 651.917 215.811C651.724 215.67 651.475 215.6 651.17 215.6C650.865 215.6 650.619 215.667 650.432 215.802C650.244 215.937 650.101 216.124 650.001 216.364C649.907 216.599 649.843 216.868 649.808 217.173C649.778 217.478 649.764 217.803 649.764 218.148V218.351C649.764 218.702 649.778 219.033 649.808 219.344C649.843 219.648 649.91 219.918 650.01 220.152C650.109 220.381 650.253 220.562 650.44 220.697C650.628 220.826 650.877 220.891 651.188 220.891ZM659.528 215.846V223H656.566V213.49H659.335L659.528 215.846ZM662.341 213.42L662.288 216.171C662.171 216.159 662.013 216.145 661.813 216.127C661.614 216.109 661.447 216.101 661.312 216.101C660.967 216.101 660.668 216.142 660.416 216.224C660.17 216.3 659.965 216.417 659.801 216.575C659.643 216.728 659.525 216.921 659.449 217.155C659.379 217.39 659.347 217.662 659.353 217.973L658.816 217.621C658.816 216.982 658.878 216.402 659.001 215.881C659.13 215.354 659.312 214.899 659.546 214.519C659.78 214.132 660.064 213.836 660.398 213.631C660.732 213.42 661.107 213.314 661.523 213.314C661.67 213.314 661.813 213.323 661.954 213.341C662.101 213.358 662.229 213.385 662.341 213.42ZM666.489 213.49V223H663.519V213.49H666.489ZM663.343 211.038C663.343 210.616 663.495 210.271 663.8 210.001C664.104 209.731 664.5 209.597 664.986 209.597C665.473 209.597 665.868 209.731 666.173 210.001C666.478 210.271 666.63 210.616 666.63 211.038C666.63 211.46 666.478 211.806 666.173 212.075C665.868 212.345 665.473 212.479 664.986 212.479C664.5 212.479 664.104 212.345 663.8 212.075C663.495 211.806 663.343 211.46 663.343 211.038ZM671.306 215.318V226.656H668.344V213.49H671.104L671.306 215.318ZM677.142 218.131V218.315C677.142 219.007 677.062 219.648 676.904 220.24C676.746 220.832 676.512 221.348 676.201 221.787C675.891 222.227 675.504 222.569 675.041 222.815C674.584 223.056 674.054 223.176 673.45 223.176C672.882 223.176 672.393 223.05 671.982 222.798C671.572 222.546 671.229 222.197 670.954 221.752C670.679 221.307 670.456 220.797 670.286 220.223C670.116 219.648 669.981 219.042 669.882 218.403V218.166C669.981 217.48 670.116 216.845 670.286 216.259C670.456 215.667 670.679 215.151 670.954 214.712C671.229 214.272 671.569 213.93 671.974 213.684C672.384 213.438 672.873 213.314 673.441 213.314C674.045 213.314 674.575 213.429 675.032 213.657C675.495 213.886 675.882 214.214 676.192 214.642C676.509 215.063 676.746 215.57 676.904 216.162C677.062 216.754 677.142 217.41 677.142 218.131ZM674.18 218.315V218.131C674.18 217.762 674.153 217.425 674.101 217.12C674.048 216.81 673.963 216.54 673.846 216.312C673.734 216.083 673.585 215.907 673.397 215.784C673.21 215.661 672.979 215.6 672.703 215.6C672.387 215.6 672.12 215.649 671.903 215.749C671.692 215.843 671.522 215.989 671.394 216.188C671.271 216.382 671.183 216.625 671.13 216.918C671.083 217.205 671.062 217.542 671.068 217.929V218.649C671.057 219.095 671.101 219.487 671.2 219.827C671.3 220.161 671.473 220.422 671.719 220.609C671.965 220.797 672.299 220.891 672.721 220.891C673.002 220.891 673.236 220.826 673.424 220.697C673.611 220.562 673.761 220.378 673.872 220.144C673.983 219.903 674.062 219.628 674.109 219.317C674.156 219.007 674.18 218.673 674.18 218.315ZM683.47 213.49V215.547H677.739V213.49H683.47ZM678.943 211.126H681.905V219.897C681.905 220.149 681.935 220.346 681.993 220.486C682.052 220.621 682.151 220.718 682.292 220.776C682.438 220.829 682.632 220.855 682.872 220.855C683.042 220.855 683.183 220.853 683.294 220.847C683.405 220.835 683.511 220.82 683.61 220.803V222.921C683.358 223.003 683.095 223.064 682.819 223.105C682.544 223.152 682.251 223.176 681.94 223.176C681.308 223.176 680.766 223.076 680.314 222.877C679.869 222.678 679.529 222.364 679.295 221.937C679.061 221.509 678.943 220.952 678.943 220.267V211.126Z" fill="white"/>
<path d="M1066 0H1348C1356.28 0 1363 6.71573 1363 15V282C1363 290.284 1356.28 297 1348 297H1066V0Z" fill="white"/>
<rect x="1104" y="38" width="221" height="221" rx="110.5" fill="#916A3F"/>
<path d="M1136.86 91.2978C1128.05 101.442 1124.34 108.086 1126.89 106.045L1137.73 95.7168C1138.5 94.9854 1139.71 94.9806 1140.48 95.706L1193.43 145.343C1194.25 146.116 1194.27 147.417 1193.47 148.216L1183.1 158.591C1182.24 159.448 1183.36 160.805 1184.37 160.127L1193.33 154.073C1196.69 151.811 1201.13 152.061 1204.21 154.685L1276.61 216.44C1277.43 217.134 1278.65 217.017 1279.32 216.183C1279.94 215.405 1279.86 214.277 1279.12 213.604L1145.25 90.8871C1142.81 88.6558 1139.02 88.8042 1136.86 91.2978Z" fill="#382B23"/>
<path d="M1141.01 94.4513L1141.81 95.2982L1128.88 107.466C1128.65 107.686 1128.28 107.675 1128.06 107.441C1127.84 107.207 1127.85 106.839 1128.09 106.619L1141.01 94.4513Z" fill="#382B23"/>
<path d="M1143.25 96.5128L1144.05 97.3598L1131.13 109.527C1130.89 109.748 1130.52 109.737 1130.3 109.503C1130.08 109.269 1130.09 108.901 1130.33 108.681L1143.25 96.5128Z" fill="#382B23"/>
<path d="M1145.5 98.5742L1146.29 99.4212L1133.37 111.589C1133.14 111.809 1132.77 111.798 1132.55 111.564C1132.33 111.33 1132.34 110.962 1132.57 110.742L1145.5 98.5742Z" fill="#382B23"/>
<path d="M1147.74 100.636L1148.54 101.483L1135.61 113.65C1135.38 113.871 1135.01 113.859 1134.79 113.626C1134.57 113.392 1134.58 113.024 1134.81 112.803L1147.74 100.636Z" fill="#382B23"/>
<path d="M1149.98 102.696L1150.78 103.543L1137.85 115.711C1137.62 115.931 1137.25 115.92 1137.03 115.686C1136.81 115.452 1136.82 115.084 1137.06 114.864L1149.98 102.696Z" fill="#382B23"/>
<path d="M1152.22 104.757L1153.02 105.604L1140.1 117.772C1139.86 117.992 1139.49 117.981 1139.27 117.747C1139.05 117.513 1139.07 117.145 1139.3 116.925L1152.22 104.757Z" fill="#382B23"/>
<path d="M1154.47 106.819L1155.26 107.666L1142.34 119.833C1142.11 120.054 1141.74 120.043 1141.52 119.809C1141.3 119.575 1141.31 119.207 1141.54 118.987L1154.47 106.819Z" fill="#382B23"/>
<path d="M1156.71 108.88L1157.51 109.727L1144.58 121.895C1144.35 122.115 1143.98 122.104 1143.76 121.87C1143.54 121.636 1143.55 121.268 1143.78 121.048L1156.71 108.88Z" fill="#382B23"/>
<path d="M1158.95 110.942L1159.75 111.789L1146.82 123.956C1146.59 124.177 1146.22 124.165 1146 123.932C1145.78 123.698 1145.79 123.33 1146.03 123.109L1158.95 110.942Z" fill="#382B23"/>
<path d="M1161.19 113.002L1161.99 113.849L1149.07 126.016C1148.83 126.237 1148.46 126.225 1148.24 125.992C1148.02 125.758 1148.04 125.39 1148.27 125.17L1161.19 113.002Z" fill="#382B23"/>
<path d="M1163.44 115.063L1164.24 115.91L1151.31 128.078C1151.08 128.298 1150.71 128.287 1150.49 128.053C1150.27 127.819 1150.28 127.451 1150.51 127.231L1163.44 115.063Z" fill="#382B23"/>
<path d="M1165.68 117.125L1166.48 117.972L1153.55 130.139C1153.32 130.36 1152.95 130.348 1152.73 130.115C1152.51 129.881 1152.52 129.513 1152.75 129.292L1165.68 117.125Z" fill="#382B23"/>
<path d="M1167.92 119.186L1168.72 120.033L1155.79 132.201C1155.56 132.421 1155.19 132.41 1154.97 132.176C1154.75 131.942 1154.76 131.574 1155 131.354L1167.92 119.186Z" fill="#382B23"/>
<path d="M1170.17 121.248L1170.96 122.095L1158.04 134.262C1157.8 134.482 1157.43 134.471 1157.21 134.237C1156.99 134.004 1157.01 133.636 1157.24 133.415L1170.17 121.248Z" fill="#382B23"/>
<path d="M1172.41 123.308L1173.21 124.155L1160.28 136.322C1160.05 136.543 1159.68 136.532 1159.46 136.298C1159.24 136.064 1159.25 135.696 1159.48 135.476L1172.41 123.308Z" fill="#382B23"/>
<path d="M1174.65 125.369L1175.45 126.216L1162.52 138.384C1162.29 138.604 1161.92 138.593 1161.7 138.359C1161.48 138.125 1161.49 137.757 1161.73 137.537L1174.65 125.369Z" fill="#382B23"/>
<path d="M1176.89 127.431L1177.69 128.278L1164.76 140.445C1164.53 140.666 1164.16 140.654 1163.94 140.421C1163.72 140.187 1163.73 139.819 1163.97 139.598L1176.89 127.431Z" fill="#382B23"/>
<path d="M1179.14 129.492L1179.93 130.339L1167.01 142.507C1166.77 142.727 1166.4 142.716 1166.18 142.482C1165.96 142.248 1165.98 141.88 1166.21 141.66L1179.14 129.492Z" fill="#382B23"/>
<path d="M1181.38 131.554L1182.18 132.401L1169.25 144.568C1169.02 144.788 1168.65 144.777 1168.43 144.543C1168.21 144.31 1168.22 143.942 1168.45 143.721L1181.38 131.554Z" fill="#382B23"/>
<path d="M1183.62 133.614L1184.42 134.461L1171.49 146.628C1171.26 146.849 1170.89 146.837 1170.67 146.604C1170.45 146.37 1170.46 146.002 1170.7 145.782L1183.62 133.614Z" fill="#382B23"/>
<path d="M1185.86 135.675L1186.66 136.522L1173.73 148.69C1173.5 148.91 1173.13 148.899 1172.91 148.665C1172.69 148.431 1172.7 148.063 1172.94 147.843L1185.86 135.675Z" fill="#382B23"/>
<path d="M1188.11 137.737L1188.9 138.584L1175.98 150.751C1175.74 150.972 1175.38 150.96 1175.15 150.727C1174.93 150.493 1174.95 150.125 1175.18 149.904L1188.11 137.737Z" fill="#382B23"/>
<path d="M1190.35 139.798L1191.15 140.645L1178.22 152.813C1177.99 153.033 1177.62 153.022 1177.4 152.788C1177.18 152.554 1177.19 152.186 1177.42 151.966L1190.35 139.798Z" fill="#382B23"/>
<path d="M1192.59 141.86L1193.39 142.707L1180.46 154.874C1180.23 155.094 1179.86 155.083 1179.64 154.849C1179.42 154.616 1179.43 154.248 1179.67 154.027L1192.59 141.86Z" fill="#382B23"/>
<path d="M1194.83 143.92L1195.63 144.767L1182.71 156.934C1182.47 157.155 1182.1 157.144 1181.88 156.91C1181.66 156.676 1181.67 156.308 1181.91 156.088L1194.83 143.92Z" fill="#382B23"/>
<path d="M1291.77 91.2978C1300.57 101.442 1304.29 108.086 1301.74 106.045L1290.89 95.7168C1290.12 94.9854 1288.92 94.9806 1288.15 95.706L1235.2 145.343C1234.38 146.116 1234.35 147.417 1235.15 148.216L1245.53 158.591C1246.38 159.448 1245.27 160.805 1244.26 160.127L1235.29 154.073C1231.94 151.811 1227.49 152.061 1224.42 154.685L1152.01 216.44C1151.2 217.134 1149.97 217.017 1149.31 216.183C1148.68 215.405 1148.77 214.277 1149.51 213.604L1283.38 90.8871C1285.81 88.6558 1289.6 88.8042 1291.77 91.2978Z" fill="#382B23"/>
<path d="M1287.61 94.4513L1286.82 95.2982L1299.74 107.466C1299.98 107.686 1300.34 107.675 1300.56 107.441C1300.78 107.207 1300.77 106.839 1300.54 106.619L1287.61 94.4513Z" fill="#382B23"/>
<path d="M1285.37 96.5128L1284.57 97.3598L1297.5 109.527C1297.73 109.748 1298.1 109.737 1298.32 109.503C1298.54 109.269 1298.53 108.901 1298.3 108.681L1285.37 96.5128Z" fill="#382B23"/>
<path d="M1283.13 98.5742L1282.33 99.4212L1295.26 111.589C1295.49 111.809 1295.86 111.798 1296.08 111.564C1296.3 111.33 1296.29 110.962 1296.05 110.742L1283.13 98.5742Z" fill="#382B23"/>
<path d="M1280.89 100.636L1280.09 101.483L1293.02 113.65C1293.25 113.871 1293.62 113.859 1293.84 113.626C1294.06 113.392 1294.05 113.024 1293.81 112.803L1280.89 100.636Z" fill="#382B23"/>
<path d="M1278.64 102.696L1277.85 103.543L1290.77 115.711C1291.01 115.931 1291.37 115.92 1291.59 115.686C1291.81 115.452 1291.8 115.084 1291.57 114.864L1278.64 102.696Z" fill="#382B23"/>
<path d="M1276.4 104.757L1275.6 105.604L1288.53 117.772C1288.76 117.992 1289.13 117.981 1289.35 117.747C1289.57 117.513 1289.56 117.145 1289.33 116.925L1276.4 104.757Z" fill="#382B23"/>
<path d="M1274.16 106.819L1273.36 107.666L1286.29 119.833C1286.52 120.054 1286.89 120.043 1287.11 119.809C1287.33 119.575 1287.32 119.207 1287.08 118.987L1274.16 106.819Z" fill="#382B23"/>
<path d="M1271.92 108.88L1271.12 109.727L1284.04 121.895C1284.28 122.115 1284.65 122.104 1284.87 121.87C1285.09 121.636 1285.08 121.268 1284.84 121.048L1271.92 108.88Z" fill="#382B23"/>
<path d="M1269.67 110.942L1268.88 111.789L1281.8 123.956C1282.04 124.177 1282.4 124.165 1282.62 123.932C1282.84 123.698 1282.83 123.33 1282.6 123.109L1269.67 110.942Z" fill="#382B23"/>
<path d="M1267.43 113.002L1266.63 113.849L1279.56 126.016C1279.79 126.237 1280.16 126.225 1280.38 125.992C1280.6 125.758 1280.59 125.39 1280.36 125.17L1267.43 113.002Z" fill="#382B23"/>
<path d="M1265.19 115.063L1264.39 115.91L1277.32 128.078C1277.55 128.298 1277.92 128.287 1278.14 128.053C1278.36 127.819 1278.35 127.451 1278.11 127.231L1265.19 115.063Z" fill="#382B23"/>
<path d="M1262.95 117.125L1262.15 117.972L1275.07 130.139C1275.31 130.36 1275.68 130.348 1275.9 130.115C1276.12 129.881 1276.11 129.513 1275.87 129.292L1262.95 117.125Z" fill="#382B23"/>
<path d="M1260.7 119.186L1259.91 120.033L1272.83 132.201C1273.07 132.421 1273.43 132.41 1273.65 132.176C1273.87 131.942 1273.86 131.574 1273.63 131.354L1260.7 119.186Z" fill="#382B23"/>
<path d="M1258.46 121.248L1257.66 122.095L1270.59 134.262C1270.82 134.482 1271.19 134.471 1271.41 134.237C1271.63 134.004 1271.62 133.636 1271.39 133.415L1258.46 121.248Z" fill="#382B23"/>
<path d="M1256.22 123.308L1255.42 124.155L1268.35 136.322C1268.58 136.543 1268.95 136.532 1269.17 136.298C1269.39 136.064 1269.38 135.696 1269.14 135.476L1256.22 123.308Z" fill="#382B23"/>
<path d="M1253.98 125.369L1253.18 126.216L1266.1 138.384C1266.34 138.604 1266.71 138.593 1266.93 138.359C1267.15 138.125 1267.14 137.757 1266.9 137.537L1253.98 125.369Z" fill="#382B23"/>
<path d="M1251.73 127.431L1250.94 128.278L1263.86 140.445C1264.09 140.666 1264.46 140.654 1264.68 140.421C1264.9 140.187 1264.89 139.819 1264.66 139.598L1251.73 127.431Z" fill="#382B23"/>
<path d="M1249.49 129.492L1248.69 130.339L1261.62 142.507C1261.85 142.727 1262.22 142.716 1262.44 142.482C1262.66 142.248 1262.65 141.88 1262.42 141.66L1249.49 129.492Z" fill="#382B23"/>
<path d="M1247.25 131.554L1246.45 132.401L1259.38 144.568C1259.61 144.788 1259.98 144.777 1260.2 144.543C1260.42 144.31 1260.41 143.942 1260.17 143.721L1247.25 131.554Z" fill="#382B23"/>
<path d="M1245.01 133.614L1244.21 134.461L1257.13 146.628C1257.37 146.849 1257.74 146.837 1257.96 146.604C1258.18 146.37 1258.17 146.002 1257.93 145.782L1245.01 133.614Z" fill="#382B23"/>
<path d="M1242.76 135.675L1241.97 136.522L1254.89 148.69C1255.12 148.91 1255.49 148.899 1255.71 148.665C1255.93 148.431 1255.92 148.063 1255.69 147.843L1242.76 135.675Z" fill="#382B23"/>
<path d="M1240.52 137.737L1239.72 138.584L1252.65 150.751C1252.88 150.972 1253.25 150.96 1253.47 150.727C1253.69 150.493 1253.68 150.125 1253.45 149.904L1240.52 137.737Z" fill="#382B23"/>
<path d="M1238.28 139.798L1237.48 140.645L1250.41 152.813C1250.64 153.033 1251.01 153.022 1251.23 152.788C1251.45 152.554 1251.44 152.186 1251.2 151.966L1238.28 139.798Z" fill="#382B23"/>
<path d="M1236.03 141.86L1235.24 142.707L1248.16 154.874C1248.4 155.094 1248.76 155.083 1248.98 154.849C1249.2 154.616 1249.19 154.248 1248.96 154.027L1236.03 141.86Z" fill="#382B23"/>
<path d="M1233.79 143.92L1232.99 144.767L1245.92 156.934C1246.15 157.155 1246.52 157.144 1246.74 156.91C1246.96 156.676 1246.95 156.308 1246.72 156.088L1233.79 143.92Z" fill="#382B23"/>
<path d="M1227.12 69.7264C1230.79 65.765 1224.73 116.686 1220.73 143.421C1219.96 148.54 1219.97 153.767 1221.03 158.833C1226.63 185.615 1234.61 198.143 1238.17 201.163L1230.03 204.653C1228.72 188.11 1219.84 172.994 1214.74 166.353C1214.26 165.727 1213.31 165.792 1212.9 166.465C1202.41 183.604 1199.39 198.986 1199.2 204.653L1191.64 201.163C1202.57 189.815 1206.41 167.489 1207.19 154.848C1207.34 152.385 1207.17 149.934 1206.84 147.49C1202.7 117.374 1196.08 64.8141 1199.2 69.7264C1202.46 74.8443 1210.64 111.057 1214.32 126.953C1216.65 111.25 1224.21 72.8662 1227.12 69.7264Z" fill="url(#paint0_linear_3_61)"/>
<path fill-rule="evenodd" clip-rule="evenodd" d="M1243.1 227.316C1249.24 225.159 1252.17 217.608 1249.66 210.45C1247.14 203.291 1240.13 199.236 1233.99 201.392C1227.86 203.549 1224.92 211.1 1227.44 218.258C1229.95 225.417 1236.97 229.472 1243.1 227.316ZM1242.34 225.155C1247.46 223.358 1249.9 217.066 1247.8 211.1C1245.71 205.135 1239.86 201.756 1234.75 203.553C1229.64 205.35 1227.19 211.642 1229.29 217.608C1231.38 223.573 1237.23 226.952 1242.34 225.155Z" fill="url(#paint1_linear_3_61)"/>
<path fill-rule="evenodd" clip-rule="evenodd" d="M1185.9 227.316C1179.76 225.159 1176.83 217.608 1179.34 210.45C1181.86 203.291 1188.87 199.236 1195.01 201.392C1201.14 203.549 1204.08 211.1 1201.56 218.258C1199.05 225.417 1192.03 229.472 1185.9 227.316ZM1186.66 225.155C1181.54 223.358 1179.1 217.066 1181.19 211.1C1183.29 205.135 1189.14 201.756 1194.25 203.553C1199.36 205.35 1201.81 211.642 1199.71 217.608C1197.61 223.573 1191.77 226.952 1186.66 225.155Z" fill="url(#paint2_linear_3_61)"/>
<circle cx="1214.32" cy="137.422" r="2.90789" fill="black"/>
<defs>
<linearGradient id="paint0_linear_3_61" x1="1214.5" y1="69.405" x2="1214.5" y2="227.894" gradientUnits="userSpaceOnUse">
<stop stop-color="#9C918B"/>
<stop offset="0.333333" stop-color="white"/>
</linearGradient>
<linearGradient id="paint1_linear_3_61" x1="1214.5" y1="69.405" x2="1214.5" y2="227.894" gradientUnits="userSpaceOnUse">
<stop stop-color="#9C918B"/>
<stop offset="0.333333" stop-color="white"/>
</linearGradient>
<linearGradient id="paint2_linear_3_61" x1="1214.5" y1="69.405" x2="1214.5" y2="227.894" gradientUnits="userSpaceOnUse">
<stop stop-color="#9C918B"/>
<stop offset="0.333333" stop-color="white"/>
</linearGradient>
</defs>
</svg>
