<svg width="1363" height="163" viewBox="0 0 1363 163" fill="none" xmlns="http://www.w3.org/2000/svg">
<path d="M0 15C0 6.71573 6.71573 0 15 0H37V163H15C6.71573 163 0 156.284 0 148V15Z" fill="#424242"/>
<rect width="1097" height="163" transform="translate(37)" fill="#F0F0F0"/>
<path d="M101.906 53.9219L94.3945 51.2383V48.0859L104.602 52.375V54.6367L101.906 53.9219ZM94.3945 56.1719L101.918 53.4297L104.602 52.7852V55.0352L94.3945 59.3242V56.1719ZM119.578 53.5117H115.195L115.172 51.0977H118.852C119.5 51.0977 120.031 51.0156 120.445 50.8516C120.859 50.6797 121.168 50.4336 121.371 50.1133C121.582 49.7852 121.688 49.3867 121.688 48.918C121.688 48.3867 121.586 47.957 121.383 47.6289C121.188 47.3008 120.879 47.0625 120.457 46.9141C120.043 46.7656 119.508 46.6914 118.852 46.6914H116.414V61H112.898V43.9375H118.852C119.844 43.9375 120.73 44.0312 121.512 44.2188C122.301 44.4062 122.969 44.6914 123.516 45.0742C124.062 45.457 124.48 45.9414 124.77 46.5273C125.059 47.1055 125.203 47.793 125.203 48.5898C125.203 49.293 125.043 49.9414 124.723 50.5352C124.41 51.1289 123.914 51.6133 123.234 51.9883C122.562 52.3633 121.684 52.5703 120.598 52.6094L119.578 53.5117ZM119.426 61H114.234L115.605 58.2578H119.426C120.043 58.2578 120.547 58.1602 120.938 57.9648C121.328 57.7617 121.617 57.4883 121.805 57.1445C121.992 56.8008 122.086 56.4062 122.086 55.9609C122.086 55.4609 122 55.0273 121.828 54.6602C121.664 54.293 121.398 54.0117 121.031 53.8164C120.664 53.6133 120.18 53.5117 119.578 53.5117H116.191L116.215 51.0977H120.434L121.242 52.0469C122.281 52.0312 123.117 52.2148 123.75 52.5977C124.391 52.9727 124.855 53.4609 125.145 54.0625C125.441 54.6641 125.59 55.3086 125.59 55.9961C125.59 57.0898 125.352 58.0117 124.875 58.7617C124.398 59.5039 123.699 60.0625 122.777 60.4375C121.863 60.8125 120.746 61 119.426 61ZM134.859 58.1406V52.4922C134.859 52.0859 134.793 51.7383 134.66 51.4492C134.527 51.1523 134.32 50.9219 134.039 50.7578C133.766 50.5938 133.41 50.5117 132.973 50.5117C132.598 50.5117 132.273 50.5781 132 50.7109C131.727 50.8359 131.516 51.0195 131.367 51.2617C131.219 51.4961 131.145 51.7734 131.145 52.0938H127.77C127.77 51.5547 127.895 51.043 128.145 50.5586C128.395 50.0742 128.758 49.6484 129.234 49.2812C129.711 48.9062 130.277 48.6133 130.934 48.4023C131.598 48.1914 132.34 48.0859 133.16 48.0859C134.145 48.0859 135.02 48.25 135.785 48.5781C136.551 48.9062 137.152 49.3984 137.59 50.0547C138.035 50.7109 138.258 51.5312 138.258 52.5156V57.9414C138.258 58.6367 138.301 59.207 138.387 59.6523C138.473 60.0898 138.598 60.4727 138.762 60.8008V61H135.352C135.188 60.6562 135.062 60.2266 134.977 59.7109C134.898 59.1875 134.859 58.6641 134.859 58.1406ZM135.305 53.2773L135.328 55.1875H133.441C132.996 55.1875 132.609 55.2383 132.281 55.3398C131.953 55.4414 131.684 55.5859 131.473 55.7734C131.262 55.9531 131.105 56.1641 131.004 56.4062C130.91 56.6484 130.863 56.9141 130.863 57.2031C130.863 57.4922 130.93 57.7539 131.062 57.9883C131.195 58.2148 131.387 58.3945 131.637 58.5273C131.887 58.6523 132.18 58.7148 132.516 58.7148C133.023 58.7148 133.465 58.6133 133.84 58.4102C134.215 58.207 134.504 57.957 134.707 57.6602C134.918 57.3633 135.027 57.082 135.035 56.8164L135.926 58.2461C135.801 58.5664 135.629 58.8984 135.41 59.2422C135.199 59.5859 134.93 59.9102 134.602 60.2148C134.273 60.5117 133.879 60.7578 133.418 60.9531C132.957 61.1406 132.41 61.2344 131.777 61.2344C130.973 61.2344 130.242 61.0742 129.586 60.7539C128.938 60.4258 128.422 59.9766 128.039 59.4062C127.664 58.8281 127.477 58.1719 127.477 57.4375C127.477 56.7734 127.602 56.1836 127.852 55.668C128.102 55.1523 128.469 54.7188 128.953 54.3672C129.445 54.0078 130.059 53.7383 130.793 53.5586C131.527 53.3711 132.379 53.2773 133.348 53.2773H135.305ZM144.234 51.0859V61H140.859V48.3203H144.035L144.234 51.0859ZM148.055 48.2383L147.996 51.3672C147.832 51.3438 147.633 51.3242 147.398 51.3086C147.172 51.2852 146.965 51.2734 146.777 51.2734C146.301 51.2734 145.887 51.3359 145.535 51.4609C145.191 51.5781 144.902 51.7539 144.668 51.9883C144.441 52.2227 144.27 52.5078 144.152 52.8438C144.043 53.1797 143.98 53.5625 143.965 53.9922L143.285 53.7812C143.285 52.9609 143.367 52.207 143.531 51.5195C143.695 50.8242 143.934 50.2188 144.246 49.7031C144.566 49.1875 144.957 48.7891 145.418 48.5078C145.879 48.2266 146.406 48.0859 147 48.0859C147.188 48.0859 147.379 48.1016 147.574 48.1328C147.77 48.1562 147.93 48.1914 148.055 48.2383ZM149.648 43H153.023V58.0938L152.684 61H149.648V43ZM161.051 54.5312V54.7773C161.051 55.7227 160.949 56.5898 160.746 57.3789C160.551 58.168 160.246 58.8516 159.832 59.4297C159.418 60 158.902 60.4453 158.285 60.7656C157.676 61.0781 156.957 61.2344 156.129 61.2344C155.355 61.2344 154.684 61.0781 154.113 60.7656C153.551 60.4531 153.078 60.0117 152.695 59.4414C152.312 58.8711 152.004 58.2031 151.77 57.4375C151.535 56.6719 151.359 55.8359 151.242 54.9297V54.3906C151.359 53.4844 151.535 52.6484 151.77 51.8828C152.004 51.1172 152.312 50.4492 152.695 49.8789C153.078 49.3086 153.551 48.8672 154.113 48.5547C154.676 48.2422 155.34 48.0859 156.105 48.0859C156.941 48.0859 157.668 48.2461 158.285 48.5664C158.91 48.8789 159.426 49.3242 159.832 49.9023C160.246 50.4727 160.551 51.1523 160.746 51.9414C160.949 52.7227 161.051 53.5859 161.051 54.5312ZM157.676 54.7773V54.5312C157.676 54.0156 157.637 53.5312 157.559 53.0781C157.488 52.6172 157.363 52.2148 157.184 51.8711C157.004 51.5195 156.758 51.2422 156.445 51.0391C156.141 50.8359 155.746 50.7344 155.262 50.7344C154.801 50.7344 154.41 50.8125 154.09 50.9688C153.77 51.125 153.504 51.3438 153.293 51.625C153.09 51.9062 152.938 52.2422 152.836 52.6328C152.734 53.0156 152.672 53.4375 152.648 53.8984V55.4336C152.672 56.0508 152.773 56.5977 152.953 57.0742C153.141 57.543 153.422 57.9141 153.797 58.1875C154.18 58.4531 154.676 58.5859 155.285 58.5859C155.762 58.5859 156.156 58.4922 156.469 58.3047C156.781 58.1172 157.023 57.8516 157.195 57.5078C157.375 57.1641 157.5 56.7617 157.57 56.3008C157.641 55.832 157.676 55.3242 157.676 54.7773ZM168.984 61.2344C168 61.2344 167.117 61.0781 166.336 60.7656C165.555 60.4453 164.891 60.0039 164.344 59.4414C163.805 58.8789 163.391 58.2266 163.102 57.4844C162.812 56.7344 162.668 55.9375 162.668 55.0938V54.625C162.668 53.6641 162.805 52.7852 163.078 51.9883C163.352 51.1914 163.742 50.5 164.25 49.9141C164.766 49.3281 165.391 48.8789 166.125 48.5664C166.859 48.2461 167.688 48.0859 168.609 48.0859C169.508 48.0859 170.305 48.2344 171 48.5312C171.695 48.8281 172.277 49.25 172.746 49.7969C173.223 50.3438 173.582 51 173.824 51.7656C174.066 52.5234 174.188 53.3672 174.188 54.2969V55.7031H164.109V53.4531H170.871V53.1953C170.871 52.7266 170.785 52.3086 170.613 51.9414C170.449 51.5664 170.199 51.2695 169.863 51.0508C169.527 50.832 169.098 50.7227 168.574 50.7227C168.129 50.7227 167.746 50.8203 167.426 51.0156C167.105 51.2109 166.844 51.4844 166.641 51.8359C166.445 52.1875 166.297 52.6016 166.195 53.0781C166.102 53.5469 166.055 54.0625 166.055 54.625V55.0938C166.055 55.6016 166.125 56.0703 166.266 56.5C166.414 56.9297 166.621 57.3008 166.887 57.6133C167.16 57.9258 167.488 58.168 167.871 58.3398C168.262 58.5117 168.703 58.5977 169.195 58.5977C169.805 58.5977 170.371 58.4805 170.895 58.2461C171.426 58.0039 171.883 57.6406 172.266 57.1562L173.906 58.9375C173.641 59.3203 173.277 59.6875 172.816 60.0391C172.363 60.3906 171.816 60.6797 171.176 60.9062C170.535 61.125 169.805 61.2344 168.984 61.2344ZM179.484 51.0859V61H176.109V48.3203H179.285L179.484 51.0859ZM183.305 48.2383L183.246 51.3672C183.082 51.3438 182.883 51.3242 182.648 51.3086C182.422 51.2852 182.215 51.2734 182.027 51.2734C181.551 51.2734 181.137 51.3359 180.785 51.4609C180.441 51.5781 180.152 51.7539 179.918 51.9883C179.691 52.2227 179.52 52.5078 179.402 52.8438C179.293 53.1797 179.23 53.5625 179.215 53.9922L178.535 53.7812C178.535 52.9609 178.617 52.207 178.781 51.5195C178.945 50.8242 179.184 50.2188 179.496 49.7031C179.816 49.1875 180.207 48.7891 180.668 48.5078C181.129 48.2266 181.656 48.0859 182.25 48.0859C182.438 48.0859 182.629 48.1016 182.824 48.1328C183.02 48.1562 183.18 48.1914 183.305 48.2383ZM197.766 53.5117H193.383L193.359 51.0977H197.039C197.688 51.0977 198.219 51.0156 198.633 50.8516C199.047 50.6797 199.355 50.4336 199.559 50.1133C199.77 49.7852 199.875 49.3867 199.875 48.918C199.875 48.3867 199.773 47.957 199.57 47.6289C199.375 47.3008 199.066 47.0625 198.645 46.9141C198.23 46.7656 197.695 46.6914 197.039 46.6914H194.602V61H191.086V43.9375H197.039C198.031 43.9375 198.918 44.0312 199.699 44.2188C200.488 44.4062 201.156 44.6914 201.703 45.0742C202.25 45.457 202.668 45.9414 202.957 46.5273C203.246 47.1055 203.391 47.793 203.391 48.5898C203.391 49.293 203.23 49.9414 202.91 50.5352C202.598 51.1289 202.102 51.6133 201.422 51.9883C200.75 52.3633 199.871 52.5703 198.785 52.6094L197.766 53.5117ZM197.613 61H192.422L193.793 58.2578H197.613C198.23 58.2578 198.734 58.1602 199.125 57.9648C199.516 57.7617 199.805 57.4883 199.992 57.1445C200.18 56.8008 200.273 56.4062 200.273 55.9609C200.273 55.4609 200.188 55.0273 200.016 54.6602C199.852 54.293 199.586 54.0117 199.219 53.8164C198.852 53.6133 198.367 53.5117 197.766 53.5117H194.379L194.402 51.0977H198.621L199.43 52.0469C200.469 52.0312 201.305 52.2148 201.938 52.5977C202.578 52.9727 203.043 53.4609 203.332 54.0625C203.629 54.6641 203.777 55.3086 203.777 55.9961C203.777 57.0898 203.539 58.0117 203.062 58.7617C202.586 59.5039 201.887 60.0625 200.965 60.4375C200.051 60.8125 198.934 61 197.613 61ZM209.965 59.5703L213.328 48.3203H216.949L211.852 62.9102C211.742 63.2305 211.594 63.5742 211.406 63.9414C211.227 64.3086 210.98 64.6562 210.668 64.9844C210.363 65.3203 209.977 65.5938 209.508 65.8047C209.047 66.0156 208.48 66.1211 207.809 66.1211C207.488 66.1211 207.227 66.1016 207.023 66.0625C206.82 66.0234 206.578 65.9688 206.297 65.8984V63.4258C206.383 63.4258 206.473 63.4258 206.566 63.4258C206.66 63.4336 206.75 63.4375 206.836 63.4375C207.281 63.4375 207.645 63.3867 207.926 63.2852C208.207 63.1836 208.434 63.0273 208.605 62.8164C208.777 62.6133 208.914 62.3477 209.016 62.0195L209.965 59.5703ZM208.559 48.3203L211.312 57.5078L211.793 61.082L209.496 61.3281L204.938 48.3203H208.559ZM224.508 48.3203V50.7109H217.125V48.3203H224.508ZM218.953 45.1914H222.328V57.1797C222.328 57.5469 222.375 57.8281 222.469 58.0234C222.57 58.2188 222.719 58.3555 222.914 58.4336C223.109 58.5039 223.355 58.5391 223.652 58.5391C223.863 58.5391 224.051 58.5312 224.215 58.5156C224.387 58.4922 224.531 58.4688 224.648 58.4453L224.66 60.9297C224.371 61.0234 224.059 61.0977 223.723 61.1523C223.387 61.207 223.016 61.2344 222.609 61.2344C221.867 61.2344 221.219 61.1133 220.664 60.8711C220.117 60.6211 219.695 60.2227 219.398 59.6758C219.102 59.1289 218.953 58.4102 218.953 57.5195V45.1914ZM232.266 61.2344C231.281 61.2344 230.398 61.0781 229.617 60.7656C228.836 60.4453 228.172 60.0039 227.625 59.4414C227.086 58.8789 226.672 58.2266 226.383 57.4844C226.094 56.7344 225.949 55.9375 225.949 55.0938V54.625C225.949 53.6641 226.086 52.7852 226.359 51.9883C226.633 51.1914 227.023 50.5 227.531 49.9141C228.047 49.3281 228.672 48.8789 229.406 48.5664C230.141 48.2461 230.969 48.0859 231.891 48.0859C232.789 48.0859 233.586 48.2344 234.281 48.5312C234.977 48.8281 235.559 49.25 236.027 49.7969C236.504 50.3438 236.863 51 237.105 51.7656C237.348 52.5234 237.469 53.3672 237.469 54.2969V55.7031H227.391V53.4531H234.152V53.1953C234.152 52.7266 234.066 52.3086 233.895 51.9414C233.73 51.5664 233.48 51.2695 233.145 51.0508C232.809 50.832 232.379 50.7227 231.855 50.7227C231.41 50.7227 231.027 50.8203 230.707 51.0156C230.387 51.2109 230.125 51.4844 229.922 51.8359C229.727 52.1875 229.578 52.6016 229.477 53.0781C229.383 53.5469 229.336 54.0625 229.336 54.625V55.0938C229.336 55.6016 229.406 56.0703 229.547 56.5C229.695 56.9297 229.902 57.3008 230.168 57.6133C230.441 57.9258 230.77 58.168 231.152 58.3398C231.543 58.5117 231.984 58.5977 232.477 58.5977C233.086 58.5977 233.652 58.4805 234.176 58.2461C234.707 58.0039 235.164 57.6406 235.547 57.1562L237.188 58.9375C236.922 59.3203 236.559 59.6875 236.098 60.0391C235.645 60.3906 235.098 60.6797 234.457 60.9062C233.816 61.125 233.086 61.2344 232.266 61.2344Z" fill="#888888"/>
<path d="M112.125 84.875V119H103.898V84.875H112.125ZM122.391 84.875V91.2266H93.8672V84.875H122.391ZM135.68 119.469C133.617 119.469 131.773 119.148 130.148 118.508C128.523 117.852 127.148 116.953 126.023 115.812C124.914 114.672 124.062 113.359 123.469 111.875C122.891 110.391 122.602 108.82 122.602 107.164V106.273C122.602 104.414 122.859 102.695 123.375 101.117C123.891 99.5234 124.656 98.1328 125.672 96.9453C126.688 95.7578 127.961 94.8359 129.492 94.1797C131.023 93.5078 132.805 93.1719 134.836 93.1719C136.633 93.1719 138.242 93.4609 139.664 94.0391C141.086 94.6172 142.289 95.4453 143.273 96.5234C144.273 97.6016 145.031 98.9062 145.547 100.438C146.078 101.969 146.344 103.688 146.344 105.594V108.805H125.625V103.859H138.633V103.25C138.648 102.406 138.5 101.688 138.188 101.094C137.891 100.5 137.453 100.047 136.875 99.7344C136.297 99.4219 135.594 99.2656 134.766 99.2656C133.906 99.2656 133.195 99.4531 132.633 99.8281C132.086 100.203 131.656 100.719 131.344 101.375C131.047 102.016 130.836 102.758 130.711 103.602C130.586 104.445 130.523 105.336 130.523 106.273V107.164C130.523 108.102 130.648 108.953 130.898 109.719C131.164 110.484 131.539 111.141 132.023 111.688C132.523 112.219 133.117 112.633 133.805 112.93C134.508 113.227 135.305 113.375 136.195 113.375C137.273 113.375 138.336 113.172 139.383 112.766C140.43 112.359 141.328 111.688 142.078 110.75L145.664 115.016C145.148 115.75 144.414 116.461 143.461 117.148C142.523 117.836 141.398 118.398 140.086 118.836C138.773 119.258 137.305 119.469 135.68 119.469ZM160.266 113.375C161 113.375 161.625 113.242 162.141 112.977C162.672 112.695 163.07 112.305 163.336 111.805C163.617 111.289 163.75 110.672 163.734 109.953H171.164C171.18 111.859 170.711 113.531 169.758 114.969C168.82 116.391 167.539 117.5 165.914 118.297C164.305 119.078 162.484 119.469 160.453 119.469C158.469 119.469 156.734 119.148 155.25 118.508C153.766 117.852 152.523 116.945 151.523 115.789C150.539 114.617 149.797 113.25 149.297 111.688C148.812 110.125 148.57 108.43 148.57 106.602V106.062C148.57 104.234 148.812 102.539 149.297 100.977C149.797 99.3984 150.539 98.0312 151.523 96.875C152.523 95.7031 153.758 94.7969 155.227 94.1562C156.711 93.5 158.438 93.1719 160.406 93.1719C162.516 93.1719 164.375 93.5703 165.984 94.3672C167.609 95.1641 168.883 96.3203 169.805 97.8359C170.727 99.3516 171.18 101.188 171.164 103.344H163.734C163.75 102.578 163.633 101.891 163.383 101.281C163.133 100.672 162.742 100.188 162.211 99.8281C161.695 99.4531 161.031 99.2656 160.219 99.2656C159.406 99.2656 158.75 99.4453 158.25 99.8047C157.75 100.164 157.367 100.664 157.102 101.305C156.852 101.93 156.68 102.648 156.586 103.461C156.508 104.273 156.469 105.141 156.469 106.062V106.602C156.469 107.539 156.508 108.422 156.586 109.25C156.68 110.062 156.859 110.781 157.125 111.406C157.391 112.016 157.773 112.5 158.273 112.859C158.773 113.203 159.438 113.375 160.266 113.375ZM182.273 83V119H174.375V83H182.273ZM181.336 105.453L179.484 105.5C179.484 103.719 179.703 102.078 180.141 100.578C180.578 99.0781 181.203 97.7734 182.016 96.6641C182.828 95.5547 183.805 94.6953 184.945 94.0859C186.086 93.4766 187.352 93.1719 188.742 93.1719C189.992 93.1719 191.133 93.3516 192.164 93.7109C193.211 94.0703 194.109 94.6484 194.859 95.4453C195.625 96.2422 196.211 97.2812 196.617 98.5625C197.039 99.8438 197.25 101.406 197.25 103.25V119H189.305V103.203C189.305 102.172 189.156 101.375 188.859 100.812C188.578 100.234 188.172 99.8359 187.641 99.6172C187.109 99.3828 186.461 99.2656 185.695 99.2656C184.773 99.2656 184.023 99.4219 183.445 99.7344C182.867 100.047 182.422 100.484 182.109 101.047C181.812 101.594 181.609 102.242 181.5 102.992C181.391 103.742 181.336 104.562 181.336 105.453ZM231.539 109.93C231.539 109.398 231.461 108.922 231.305 108.5C231.148 108.062 230.859 107.656 230.438 107.281C230.016 106.906 229.406 106.531 228.609 106.156C227.828 105.766 226.797 105.359 225.516 104.938C224.016 104.438 222.57 103.875 221.18 103.25C219.789 102.609 218.547 101.867 217.453 101.023C216.359 100.164 215.492 99.1641 214.852 98.0234C214.211 96.8672 213.891 95.5234 213.891 93.9922C213.891 92.5234 214.219 91.2031 214.875 90.0312C215.531 88.8438 216.445 87.8359 217.617 87.0078C218.805 86.1641 220.195 85.5234 221.789 85.0859C223.383 84.6328 225.125 84.4062 227.016 84.4062C229.516 84.4062 231.719 84.8438 233.625 85.7188C235.547 86.5781 237.047 87.8047 238.125 89.3984C239.219 90.9766 239.766 92.8438 239.766 95H231.586C231.586 94.1406 231.406 93.3828 231.047 92.7266C230.703 92.0703 230.18 91.5547 229.477 91.1797C228.773 90.8047 227.891 90.6172 226.828 90.6172C225.797 90.6172 224.93 90.7734 224.227 91.0859C223.523 91.3984 222.992 91.8203 222.633 92.3516C222.273 92.8672 222.094 93.4375 222.094 94.0625C222.094 94.5781 222.234 95.0469 222.516 95.4688C222.812 95.875 223.227 96.2578 223.758 96.6172C224.305 96.9766 224.961 97.3203 225.727 97.6484C226.508 97.9766 227.383 98.2969 228.352 98.6094C230.164 99.1875 231.773 99.8359 233.18 100.555C234.602 101.258 235.797 102.062 236.766 102.969C237.75 103.859 238.492 104.875 238.992 106.016C239.508 107.156 239.766 108.445 239.766 109.883C239.766 111.414 239.469 112.773 238.875 113.961C238.281 115.148 237.43 116.156 236.32 116.984C235.211 117.797 233.883 118.414 232.336 118.836C230.789 119.258 229.062 119.469 227.156 119.469C225.406 119.469 223.68 119.25 221.977 118.812C220.289 118.359 218.758 117.672 217.383 116.75C216.008 115.812 214.906 114.617 214.078 113.164C213.266 111.695 212.859 109.953 212.859 107.938H221.109C221.109 108.938 221.242 109.781 221.508 110.469C221.773 111.156 222.164 111.711 222.68 112.133C223.195 112.539 223.828 112.836 224.578 113.023C225.328 113.195 226.188 113.281 227.156 113.281C228.203 113.281 229.047 113.133 229.688 112.836C230.328 112.523 230.797 112.117 231.094 111.617C231.391 111.102 231.539 110.539 231.539 109.93ZM256.992 93.6406V99.125H241.711V93.6406H256.992ZM244.922 87.3359H252.82V110.727C252.82 111.398 252.898 111.922 253.055 112.297C253.211 112.656 253.477 112.914 253.852 113.07C254.242 113.211 254.758 113.281 255.398 113.281C255.852 113.281 256.227 113.273 256.523 113.258C256.82 113.227 257.102 113.188 257.367 113.141V118.789C256.695 119.008 255.992 119.172 255.258 119.281C254.523 119.406 253.742 119.469 252.914 119.469C251.227 119.469 249.781 119.203 248.578 118.672C247.391 118.141 246.484 117.305 245.859 116.164C245.234 115.023 244.922 113.539 244.922 111.711V87.3359ZM273.305 112.625V102.172C273.305 101.453 273.203 100.836 273 100.32C272.797 99.8047 272.477 99.4062 272.039 99.125C271.602 98.8281 271.016 98.6797 270.281 98.6797C269.688 98.6797 269.18 98.7812 268.758 98.9844C268.336 99.1875 268.016 99.4922 267.797 99.8984C267.578 100.305 267.469 100.82 267.469 101.445H259.57C259.57 100.273 259.828 99.1875 260.344 98.1875C260.875 97.1719 261.625 96.2891 262.594 95.5391C263.578 94.7891 264.75 94.2109 266.109 93.8047C267.484 93.3828 269.016 93.1719 270.703 93.1719C272.719 93.1719 274.516 93.5078 276.094 94.1797C277.688 94.8516 278.945 95.8594 279.867 97.2031C280.789 98.5312 281.25 100.203 281.25 102.219V112.602C281.25 114.258 281.344 115.516 281.531 116.375C281.719 117.219 281.984 117.961 282.328 118.602V119H274.406C274.031 118.219 273.75 117.266 273.562 116.141C273.391 115 273.305 113.828 273.305 112.625ZM274.266 103.508L274.312 107.727H270.82C270.086 107.727 269.461 107.828 268.945 108.031C268.445 108.234 268.039 108.516 267.727 108.875C267.43 109.219 267.211 109.609 267.07 110.047C266.945 110.484 266.883 110.945 266.883 111.43C266.883 111.898 266.992 112.32 267.211 112.695C267.445 113.055 267.758 113.336 268.148 113.539C268.539 113.742 268.977 113.844 269.461 113.844C270.336 113.844 271.078 113.68 271.688 113.352C272.312 113.008 272.789 112.594 273.117 112.109C273.445 111.625 273.609 111.172 273.609 110.75L275.344 113.984C275.031 114.609 274.672 115.242 274.266 115.883C273.875 116.523 273.383 117.117 272.789 117.664C272.211 118.195 271.5 118.633 270.656 118.977C269.812 119.305 268.789 119.469 267.586 119.469C266.023 119.469 264.586 119.148 263.273 118.508C261.977 117.867 260.938 116.977 260.156 115.836C259.375 114.68 258.984 113.352 258.984 111.852C258.984 110.539 259.219 109.367 259.688 108.336C260.172 107.305 260.898 106.43 261.867 105.711C262.836 104.992 264.07 104.445 265.57 104.07C267.07 103.695 268.836 103.508 270.867 103.508H274.266ZM296.344 113.375C297.078 113.375 297.703 113.242 298.219 112.977C298.75 112.695 299.148 112.305 299.414 111.805C299.695 111.289 299.828 110.672 299.812 109.953H307.242C307.258 111.859 306.789 113.531 305.836 114.969C304.898 116.391 303.617 117.5 301.992 118.297C300.383 119.078 298.562 119.469 296.531 119.469C294.547 119.469 292.812 119.148 291.328 118.508C289.844 117.852 288.602 116.945 287.602 115.789C286.617 114.617 285.875 113.25 285.375 111.688C284.891 110.125 284.648 108.43 284.648 106.602V106.062C284.648 104.234 284.891 102.539 285.375 100.977C285.875 99.3984 286.617 98.0312 287.602 96.875C288.602 95.7031 289.836 94.7969 291.305 94.1562C292.789 93.5 294.516 93.1719 296.484 93.1719C298.594 93.1719 300.453 93.5703 302.062 94.3672C303.688 95.1641 304.961 96.3203 305.883 97.8359C306.805 99.3516 307.258 101.188 307.242 103.344H299.812C299.828 102.578 299.711 101.891 299.461 101.281C299.211 100.672 298.82 100.188 298.289 99.8281C297.773 99.4531 297.109 99.2656 296.297 99.2656C295.484 99.2656 294.828 99.4453 294.328 99.8047C293.828 100.164 293.445 100.664 293.18 101.305C292.93 101.93 292.758 102.648 292.664 103.461C292.586 104.273 292.547 105.141 292.547 106.062V106.602C292.547 107.539 292.586 108.422 292.664 109.25C292.758 110.062 292.938 110.781 293.203 111.406C293.469 112.016 293.852 112.5 294.352 112.859C294.852 113.203 295.516 113.375 296.344 113.375ZM318.586 82.9766V119H310.688V82.9766H318.586ZM334.805 93.6406L323.789 106.555L318.023 112.32L314.578 107.305L319.383 101.047L325.336 93.6406H334.805ZM326.344 119L319.57 107.445L325.406 103.297L335.391 119H326.344ZM350.156 111.875C350.156 111.438 350.008 111.062 349.711 110.75C349.43 110.422 348.93 110.125 348.211 109.859C347.492 109.578 346.484 109.297 345.188 109.016C343.953 108.75 342.789 108.398 341.695 107.961C340.617 107.523 339.672 106.992 338.859 106.367C338.047 105.742 337.406 105 336.938 104.141C336.484 103.281 336.258 102.297 336.258 101.188C336.258 100.109 336.484 99.0938 336.938 98.1406C337.406 97.1719 338.086 96.3203 338.977 95.5859C339.883 94.8359 340.984 94.25 342.281 93.8281C343.578 93.3906 345.055 93.1719 346.711 93.1719C348.992 93.1719 350.961 93.5234 352.617 94.2266C354.273 94.9141 355.547 95.8828 356.438 97.1328C357.344 98.3672 357.797 99.7969 357.797 101.422H349.898C349.898 100.781 349.789 100.234 349.57 99.7812C349.367 99.3281 349.031 98.9844 348.562 98.75C348.094 98.5 347.469 98.375 346.688 98.375C346.141 98.375 345.641 98.4766 345.188 98.6797C344.75 98.8828 344.398 99.1641 344.133 99.5234C343.867 99.8828 343.734 100.305 343.734 100.789C343.734 101.133 343.812 101.445 343.969 101.727C344.141 101.992 344.398 102.242 344.742 102.477C345.086 102.695 345.523 102.898 346.055 103.086C346.586 103.258 347.227 103.414 347.977 103.555C349.68 103.867 351.273 104.312 352.758 104.891C354.242 105.469 355.445 106.289 356.367 107.352C357.305 108.414 357.773 109.844 357.773 111.641C357.773 112.766 357.516 113.805 357 114.758C356.484 115.695 355.742 116.523 354.773 117.242C353.805 117.945 352.641 118.492 351.281 118.883C349.922 119.273 348.391 119.469 346.688 119.469C344.266 119.469 342.219 119.039 340.547 118.18C338.875 117.305 337.609 116.211 336.75 114.898C335.906 113.57 335.484 112.227 335.484 110.867H342.844C342.875 111.648 343.062 112.289 343.406 112.789C343.766 113.289 344.242 113.656 344.836 113.891C345.43 114.125 346.117 114.242 346.898 114.242C347.617 114.242 348.211 114.141 348.68 113.938C349.164 113.734 349.531 113.461 349.781 113.117C350.031 112.758 350.156 112.344 350.156 111.875Z" fill="black"/>
<path d="M1134 0H1348C1356.28 0 1363 6.71573 1363 15V148C1363 156.284 1356.28 163 1348 163H1134V0Z" fill="#B48C60"/>
<path fill-rule="evenodd" clip-rule="evenodd" d="M1219.98 53C1219.85 53 1219.73 53.0527 1219.64 53.1464C1219.55 53.2402 1219.5 53.3674 1219.5 53.5V109.5C1219.5 109.633 1219.55 109.76 1219.64 109.854C1219.73 109.947 1219.85 110 1219.98 110H1277.02C1277.15 110 1277.27 109.947 1277.36 109.854C1277.45 109.76 1277.5 109.633 1277.5 109.5V64C1277.5 63.8674 1277.45 63.7402 1277.36 63.6464C1277.27 63.5527 1277.15 63.5 1277.02 63.5H1248.5C1247.65 63.5 1246.84 63.1045 1246.29 62.4206L1238.77 53H1219.98ZM1215.58 48.9038C1216.74 47.6848 1218.33 47 1219.98 47H1240.11C1240.97 47 1241.77 47.3955 1242.32 48.0794L1249.85 57.5H1277.02C1278.67 57.5 1280.26 58.1848 1281.42 59.4038C1282.59 60.6228 1283.25 62.2761 1283.25 64V109.5C1283.25 111.224 1282.59 112.877 1281.42 114.096C1280.26 115.315 1278.67 116 1277.02 116H1219.98C1218.33 116 1216.74 115.315 1215.58 114.096C1214.41 112.877 1213.75 111.224 1213.75 109.5V53.5C1213.75 51.7761 1214.41 50.1228 1215.58 48.9038Z" fill="white"/>
<path fill-rule="evenodd" clip-rule="evenodd" d="M1244.16 75.5251C1245.47 76.892 1245.47 79.108 1244.16 80.4749L1238.15 86.75L1244.16 93.0251C1245.47 94.392 1245.47 96.608 1244.16 97.9749C1242.85 99.3417 1240.73 99.3417 1239.42 97.9749L1231.03 89.2249C1229.72 87.858 1229.72 85.642 1231.03 84.2751L1239.42 75.5251C1240.73 74.1583 1242.85 74.1583 1244.16 75.5251Z" fill="white"/>
<path fill-rule="evenodd" clip-rule="evenodd" d="M1252.12 97.9749C1250.81 96.608 1250.81 94.392 1252.12 93.0251L1258.13 86.75L1252.12 80.4749C1250.81 79.108 1250.81 76.892 1252.12 75.5251C1253.43 74.1583 1255.55 74.1583 1256.86 75.5251L1265.25 84.2751C1266.56 85.642 1266.56 87.858 1265.25 89.2249L1256.86 97.9749C1255.55 99.3417 1253.43 99.3417 1252.12 97.9749Z" fill="white"/>
</svg>
