<svg width="1363" height="163" viewBox="0 0 1363 163" fill="none" xmlns="http://www.w3.org/2000/svg">
<path d="M0 15C0 6.71573 6.71573 0 15 0H37V163H15C6.71573 163 0 156.284 0 148V15Z" fill="#424242"/>
<rect width="1097" height="163" transform="translate(37)" fill="#F0F0F0"/>
<path d="M101.906 53.9219L94.3945 51.2383V48.0859L104.602 52.375V54.6367L101.906 53.9219ZM94.3945 56.1719L101.918 53.4297L104.602 52.7852V55.0352L94.3945 59.3242V56.1719ZM119.578 53.5117H115.195L115.172 51.0977H118.852C119.5 51.0977 120.031 51.0156 120.445 50.8516C120.859 50.6797 121.168 50.4336 121.371 50.1133C121.582 49.7852 121.688 49.3867 121.688 48.918C121.688 48.3867 121.586 47.957 121.383 47.6289C121.188 47.3008 120.879 47.0625 120.457 46.9141C120.043 46.7656 119.508 46.6914 118.852 46.6914H116.414V61H112.898V43.9375H118.852C119.844 43.9375 120.73 44.0312 121.512 44.2188C122.301 44.4062 122.969 44.6914 123.516 45.0742C124.062 45.457 124.48 45.9414 124.77 46.5273C125.059 47.1055 125.203 47.793 125.203 48.5898C125.203 49.293 125.043 49.9414 124.723 50.5352C124.41 51.1289 123.914 51.6133 123.234 51.9883C122.562 52.3633 121.684 52.5703 120.598 52.6094L119.578 53.5117ZM119.426 61H114.234L115.605 58.2578H119.426C120.043 58.2578 120.547 58.1602 120.938 57.9648C121.328 57.7617 121.617 57.4883 121.805 57.1445C121.992 56.8008 122.086 56.4062 122.086 55.9609C122.086 55.4609 122 55.0273 121.828 54.6602C121.664 54.293 121.398 54.0117 121.031 53.8164C120.664 53.6133 120.18 53.5117 119.578 53.5117H116.191L116.215 51.0977H120.434L121.242 52.0469C122.281 52.0312 123.117 52.2148 123.75 52.5977C124.391 52.9727 124.855 53.4609 125.145 54.0625C125.441 54.6641 125.59 55.3086 125.59 55.9961C125.59 57.0898 125.352 58.0117 124.875 58.7617C124.398 59.5039 123.699 60.0625 122.777 60.4375C121.863 60.8125 120.746 61 119.426 61ZM134.859 58.1406V52.4922C134.859 52.0859 134.793 51.7383 134.66 51.4492C134.527 51.1523 134.32 50.9219 134.039 50.7578C133.766 50.5938 133.41 50.5117 132.973 50.5117C132.598 50.5117 132.273 50.5781 132 50.7109C131.727 50.8359 131.516 51.0195 131.367 51.2617C131.219 51.4961 131.145 51.7734 131.145 52.0938H127.77C127.77 51.5547 127.895 51.043 128.145 50.5586C128.395 50.0742 128.758 49.6484 129.234 49.2812C129.711 48.9062 130.277 48.6133 130.934 48.4023C131.598 48.1914 132.34 48.0859 133.16 48.0859C134.145 48.0859 135.02 48.25 135.785 48.5781C136.551 48.9062 137.152 49.3984 137.59 50.0547C138.035 50.7109 138.258 51.5312 138.258 52.5156V57.9414C138.258 58.6367 138.301 59.207 138.387 59.6523C138.473 60.0898 138.598 60.4727 138.762 60.8008V61H135.352C135.188 60.6562 135.062 60.2266 134.977 59.7109C134.898 59.1875 134.859 58.6641 134.859 58.1406ZM135.305 53.2773L135.328 55.1875H133.441C132.996 55.1875 132.609 55.2383 132.281 55.3398C131.953 55.4414 131.684 55.5859 131.473 55.7734C131.262 55.9531 131.105 56.1641 131.004 56.4062C130.91 56.6484 130.863 56.9141 130.863 57.2031C130.863 57.4922 130.93 57.7539 131.062 57.9883C131.195 58.2148 131.387 58.3945 131.637 58.5273C131.887 58.6523 132.18 58.7148 132.516 58.7148C133.023 58.7148 133.465 58.6133 133.84 58.4102C134.215 58.207 134.504 57.957 134.707 57.6602C134.918 57.3633 135.027 57.082 135.035 56.8164L135.926 58.2461C135.801 58.5664 135.629 58.8984 135.41 59.2422C135.199 59.5859 134.93 59.9102 134.602 60.2148C134.273 60.5117 133.879 60.7578 133.418 60.9531C132.957 61.1406 132.41 61.2344 131.777 61.2344C130.973 61.2344 130.242 61.0742 129.586 60.7539C128.938 60.4258 128.422 59.9766 128.039 59.4062C127.664 58.8281 127.477 58.1719 127.477 57.4375C127.477 56.7734 127.602 56.1836 127.852 55.668C128.102 55.1523 128.469 54.7188 128.953 54.3672C129.445 54.0078 130.059 53.7383 130.793 53.5586C131.527 53.3711 132.379 53.2773 133.348 53.2773H135.305ZM144.234 51.0859V61H140.859V48.3203H144.035L144.234 51.0859ZM148.055 48.2383L147.996 51.3672C147.832 51.3438 147.633 51.3242 147.398 51.3086C147.172 51.2852 146.965 51.2734 146.777 51.2734C146.301 51.2734 145.887 51.3359 145.535 51.4609C145.191 51.5781 144.902 51.7539 144.668 51.9883C144.441 52.2227 144.27 52.5078 144.152 52.8438C144.043 53.1797 143.98 53.5625 143.965 53.9922L143.285 53.7812C143.285 52.9609 143.367 52.207 143.531 51.5195C143.695 50.8242 143.934 50.2188 144.246 49.7031C144.566 49.1875 144.957 48.7891 145.418 48.5078C145.879 48.2266 146.406 48.0859 147 48.0859C147.188 48.0859 147.379 48.1016 147.574 48.1328C147.77 48.1562 147.93 48.1914 148.055 48.2383ZM149.648 43H153.023V58.0938L152.684 61H149.648V43ZM161.051 54.5312V54.7773C161.051 55.7227 160.949 56.5898 160.746 57.3789C160.551 58.168 160.246 58.8516 159.832 59.4297C159.418 60 158.902 60.4453 158.285 60.7656C157.676 61.0781 156.957 61.2344 156.129 61.2344C155.355 61.2344 154.684 61.0781 154.113 60.7656C153.551 60.4531 153.078 60.0117 152.695 59.4414C152.312 58.8711 152.004 58.2031 151.77 57.4375C151.535 56.6719 151.359 55.8359 151.242 54.9297V54.3906C151.359 53.4844 151.535 52.6484 151.77 51.8828C152.004 51.1172 152.312 50.4492 152.695 49.8789C153.078 49.3086 153.551 48.8672 154.113 48.5547C154.676 48.2422 155.34 48.0859 156.105 48.0859C156.941 48.0859 157.668 48.2461 158.285 48.5664C158.91 48.8789 159.426 49.3242 159.832 49.9023C160.246 50.4727 160.551 51.1523 160.746 51.9414C160.949 52.7227 161.051 53.5859 161.051 54.5312ZM157.676 54.7773V54.5312C157.676 54.0156 157.637 53.5312 157.559 53.0781C157.488 52.6172 157.363 52.2148 157.184 51.8711C157.004 51.5195 156.758 51.2422 156.445 51.0391C156.141 50.8359 155.746 50.7344 155.262 50.7344C154.801 50.7344 154.41 50.8125 154.09 50.9688C153.77 51.125 153.504 51.3438 153.293 51.625C153.09 51.9062 152.938 52.2422 152.836 52.6328C152.734 53.0156 152.672 53.4375 152.648 53.8984V55.4336C152.672 56.0508 152.773 56.5977 152.953 57.0742C153.141 57.543 153.422 57.9141 153.797 58.1875C154.18 58.4531 154.676 58.5859 155.285 58.5859C155.762 58.5859 156.156 58.4922 156.469 58.3047C156.781 58.1172 157.023 57.8516 157.195 57.5078C157.375 57.1641 157.5 56.7617 157.57 56.3008C157.641 55.832 157.676 55.3242 157.676 54.7773ZM168.984 61.2344C168 61.2344 167.117 61.0781 166.336 60.7656C165.555 60.4453 164.891 60.0039 164.344 59.4414C163.805 58.8789 163.391 58.2266 163.102 57.4844C162.812 56.7344 162.668 55.9375 162.668 55.0938V54.625C162.668 53.6641 162.805 52.7852 163.078 51.9883C163.352 51.1914 163.742 50.5 164.25 49.9141C164.766 49.3281 165.391 48.8789 166.125 48.5664C166.859 48.2461 167.688 48.0859 168.609 48.0859C169.508 48.0859 170.305 48.2344 171 48.5312C171.695 48.8281 172.277 49.25 172.746 49.7969C173.223 50.3438 173.582 51 173.824 51.7656C174.066 52.5234 174.188 53.3672 174.188 54.2969V55.7031H164.109V53.4531H170.871V53.1953C170.871 52.7266 170.785 52.3086 170.613 51.9414C170.449 51.5664 170.199 51.2695 169.863 51.0508C169.527 50.832 169.098 50.7227 168.574 50.7227C168.129 50.7227 167.746 50.8203 167.426 51.0156C167.105 51.2109 166.844 51.4844 166.641 51.8359C166.445 52.1875 166.297 52.6016 166.195 53.0781C166.102 53.5469 166.055 54.0625 166.055 54.625V55.0938C166.055 55.6016 166.125 56.0703 166.266 56.5C166.414 56.9297 166.621 57.3008 166.887 57.6133C167.16 57.9258 167.488 58.168 167.871 58.3398C168.262 58.5117 168.703 58.5977 169.195 58.5977C169.805 58.5977 170.371 58.4805 170.895 58.2461C171.426 58.0039 171.883 57.6406 172.266 57.1562L173.906 58.9375C173.641 59.3203 173.277 59.6875 172.816 60.0391C172.363 60.3906 171.816 60.6797 171.176 60.9062C170.535 61.125 169.805 61.2344 168.984 61.2344ZM179.484 51.0859V61H176.109V48.3203H179.285L179.484 51.0859ZM183.305 48.2383L183.246 51.3672C183.082 51.3438 182.883 51.3242 182.648 51.3086C182.422 51.2852 182.215 51.2734 182.027 51.2734C181.551 51.2734 181.137 51.3359 180.785 51.4609C180.441 51.5781 180.152 51.7539 179.918 51.9883C179.691 52.2227 179.52 52.5078 179.402 52.8438C179.293 53.1797 179.23 53.5625 179.215 53.9922L178.535 53.7812C178.535 52.9609 178.617 52.207 178.781 51.5195C178.945 50.8242 179.184 50.2188 179.496 49.7031C179.816 49.1875 180.207 48.7891 180.668 48.5078C181.129 48.2266 181.656 48.0859 182.25 48.0859C182.438 48.0859 182.629 48.1016 182.824 48.1328C183.02 48.1562 183.18 48.1914 183.305 48.2383ZM197.766 53.5117H193.383L193.359 51.0977H197.039C197.688 51.0977 198.219 51.0156 198.633 50.8516C199.047 50.6797 199.355 50.4336 199.559 50.1133C199.77 49.7852 199.875 49.3867 199.875 48.918C199.875 48.3867 199.773 47.957 199.57 47.6289C199.375 47.3008 199.066 47.0625 198.645 46.9141C198.23 46.7656 197.695 46.6914 197.039 46.6914H194.602V61H191.086V43.9375H197.039C198.031 43.9375 198.918 44.0312 199.699 44.2188C200.488 44.4062 201.156 44.6914 201.703 45.0742C202.25 45.457 202.668 45.9414 202.957 46.5273C203.246 47.1055 203.391 47.793 203.391 48.5898C203.391 49.293 203.23 49.9414 202.91 50.5352C202.598 51.1289 202.102 51.6133 201.422 51.9883C200.75 52.3633 199.871 52.5703 198.785 52.6094L197.766 53.5117ZM197.613 61H192.422L193.793 58.2578H197.613C198.23 58.2578 198.734 58.1602 199.125 57.9648C199.516 57.7617 199.805 57.4883 199.992 57.1445C200.18 56.8008 200.273 56.4062 200.273 55.9609C200.273 55.4609 200.188 55.0273 200.016 54.6602C199.852 54.293 199.586 54.0117 199.219 53.8164C198.852 53.6133 198.367 53.5117 197.766 53.5117H194.379L194.402 51.0977H198.621L199.43 52.0469C200.469 52.0312 201.305 52.2148 201.938 52.5977C202.578 52.9727 203.043 53.4609 203.332 54.0625C203.629 54.6641 203.777 55.3086 203.777 55.9961C203.777 57.0898 203.539 58.0117 203.062 58.7617C202.586 59.5039 201.887 60.0625 200.965 60.4375C200.051 60.8125 198.934 61 197.613 61ZM209.965 59.5703L213.328 48.3203H216.949L211.852 62.9102C211.742 63.2305 211.594 63.5742 211.406 63.9414C211.227 64.3086 210.98 64.6562 210.668 64.9844C210.363 65.3203 209.977 65.5938 209.508 65.8047C209.047 66.0156 208.48 66.1211 207.809 66.1211C207.488 66.1211 207.227 66.1016 207.023 66.0625C206.82 66.0234 206.578 65.9688 206.297 65.8984V63.4258C206.383 63.4258 206.473 63.4258 206.566 63.4258C206.66 63.4336 206.75 63.4375 206.836 63.4375C207.281 63.4375 207.645 63.3867 207.926 63.2852C208.207 63.1836 208.434 63.0273 208.605 62.8164C208.777 62.6133 208.914 62.3477 209.016 62.0195L209.965 59.5703ZM208.559 48.3203L211.312 57.5078L211.793 61.082L209.496 61.3281L204.938 48.3203H208.559ZM224.508 48.3203V50.7109H217.125V48.3203H224.508ZM218.953 45.1914H222.328V57.1797C222.328 57.5469 222.375 57.8281 222.469 58.0234C222.57 58.2188 222.719 58.3555 222.914 58.4336C223.109 58.5039 223.355 58.5391 223.652 58.5391C223.863 58.5391 224.051 58.5312 224.215 58.5156C224.387 58.4922 224.531 58.4688 224.648 58.4453L224.66 60.9297C224.371 61.0234 224.059 61.0977 223.723 61.1523C223.387 61.207 223.016 61.2344 222.609 61.2344C221.867 61.2344 221.219 61.1133 220.664 60.8711C220.117 60.6211 219.695 60.2227 219.398 59.6758C219.102 59.1289 218.953 58.4102 218.953 57.5195V45.1914ZM232.266 61.2344C231.281 61.2344 230.398 61.0781 229.617 60.7656C228.836 60.4453 228.172 60.0039 227.625 59.4414C227.086 58.8789 226.672 58.2266 226.383 57.4844C226.094 56.7344 225.949 55.9375 225.949 55.0938V54.625C225.949 53.6641 226.086 52.7852 226.359 51.9883C226.633 51.1914 227.023 50.5 227.531 49.9141C228.047 49.3281 228.672 48.8789 229.406 48.5664C230.141 48.2461 230.969 48.0859 231.891 48.0859C232.789 48.0859 233.586 48.2344 234.281 48.5312C234.977 48.8281 235.559 49.25 236.027 49.7969C236.504 50.3438 236.863 51 237.105 51.7656C237.348 52.5234 237.469 53.3672 237.469 54.2969V55.7031H227.391V53.4531H234.152V53.1953C234.152 52.7266 234.066 52.3086 233.895 51.9414C233.73 51.5664 233.48 51.2695 233.145 51.0508C232.809 50.832 232.379 50.7227 231.855 50.7227C231.41 50.7227 231.027 50.8203 230.707 51.0156C230.387 51.2109 230.125 51.4844 229.922 51.8359C229.727 52.1875 229.578 52.6016 229.477 53.0781C229.383 53.5469 229.336 54.0625 229.336 54.625V55.0938C229.336 55.6016 229.406 56.0703 229.547 56.5C229.695 56.9297 229.902 57.3008 230.168 57.6133C230.441 57.9258 230.77 58.168 231.152 58.3398C231.543 58.5117 231.984 58.5977 232.477 58.5977C233.086 58.5977 233.652 58.4805 234.176 58.2461C234.707 58.0039 235.164 57.6406 235.547 57.1562L237.188 58.9375C236.922 59.3203 236.559 59.6875 236.098 60.0391C235.645 60.3906 235.098 60.6797 234.457 60.9062C233.816 61.125 233.086 61.2344 232.266 61.2344Z" fill="#888888"/>
<path d="M104.344 84.875V119H96.1406V84.875H104.344ZM117.727 99.0078V119H109.828V93.6406H117.234L117.727 99.0078ZM116.766 105.453L114.961 105.5C114.961 103.719 115.172 102.078 115.594 100.578C116.016 99.0781 116.641 97.7734 117.469 96.6641C118.297 95.5547 119.312 94.6953 120.516 94.0859C121.734 93.4766 123.141 93.1719 124.734 93.1719C125.844 93.1719 126.852 93.3438 127.758 93.6875C128.664 94.0156 129.445 94.5391 130.102 95.2578C130.758 95.9609 131.258 96.8828 131.602 98.0234C131.961 99.1484 132.141 100.5 132.141 102.078V119H124.242V103.086C124.242 102.008 124.117 101.195 123.867 100.648C123.633 100.102 123.289 99.7344 122.836 99.5469C122.383 99.3594 121.828 99.2656 121.172 99.2656C120.484 99.2656 119.867 99.4219 119.32 99.7344C118.773 100.047 118.305 100.484 117.914 101.047C117.539 101.594 117.25 102.242 117.047 102.992C116.859 103.742 116.766 104.562 116.766 105.453ZM131.25 105.453L129.047 105.5C129.047 103.719 129.242 102.078 129.633 100.578C130.039 99.0781 130.641 97.7734 131.438 96.6641C132.25 95.5547 133.258 94.6953 134.461 94.0859C135.664 93.4766 137.062 93.1719 138.656 93.1719C139.812 93.1719 140.875 93.3438 141.844 93.6875C142.812 94.0312 143.648 94.5859 144.352 95.3516C145.055 96.1172 145.602 97.1328 145.992 98.3984C146.383 99.6484 146.578 101.195 146.578 103.039V119H138.656V103.039C138.656 101.992 138.531 101.203 138.281 100.672C138.047 100.125 137.703 99.7578 137.25 99.5703C136.797 99.3672 136.258 99.2656 135.633 99.2656C134.883 99.2656 134.234 99.4219 133.688 99.7344C133.141 100.047 132.68 100.484 132.305 101.047C131.945 101.594 131.68 102.242 131.508 102.992C131.336 103.742 131.25 104.562 131.25 105.453ZM159.07 98.5156V128.75H151.172V93.6406H158.531L159.07 98.5156ZM174.633 106.016V106.508C174.633 108.352 174.422 110.062 174 111.641C173.578 113.219 172.953 114.594 172.125 115.766C171.297 116.938 170.266 117.852 169.031 118.508C167.812 119.148 166.398 119.469 164.789 119.469C163.273 119.469 161.969 119.133 160.875 118.461C159.781 117.789 158.867 116.859 158.133 115.672C157.398 114.484 156.805 113.125 156.352 111.594C155.898 110.062 155.539 108.445 155.273 106.742V106.109C155.539 104.281 155.898 102.586 156.352 101.023C156.805 99.4453 157.398 98.0703 158.133 96.8984C158.867 95.7266 159.773 94.8125 160.852 94.1562C161.945 93.5 163.25 93.1719 164.766 93.1719C166.375 93.1719 167.789 93.4766 169.008 94.0859C170.242 94.6953 171.273 95.5703 172.102 96.7109C172.945 97.8359 173.578 99.1875 174 100.766C174.422 102.344 174.633 104.094 174.633 106.016ZM166.734 106.508V106.016C166.734 105.031 166.664 104.133 166.523 103.32C166.383 102.492 166.156 101.773 165.844 101.164C165.547 100.555 165.148 100.086 164.648 99.7578C164.148 99.4297 163.531 99.2656 162.797 99.2656C161.953 99.2656 161.242 99.3984 160.664 99.6641C160.102 99.9141 159.648 100.305 159.305 100.836C158.977 101.352 158.742 102 158.602 102.781C158.477 103.547 158.422 104.445 158.438 105.477V107.398C158.406 108.586 158.523 109.633 158.789 110.539C159.055 111.43 159.516 112.125 160.172 112.625C160.828 113.125 161.719 113.375 162.844 113.375C163.594 113.375 164.219 113.203 164.719 112.859C165.219 112.5 165.617 112.008 165.914 111.383C166.211 110.742 166.422 110.008 166.547 109.18C166.672 108.352 166.734 107.461 166.734 106.508ZM186.492 83V119H178.57V83H186.492ZM203.648 119.469C201.586 119.469 199.742 119.148 198.117 118.508C196.492 117.852 195.117 116.953 193.992 115.812C192.883 114.672 192.031 113.359 191.438 111.875C190.859 110.391 190.57 108.82 190.57 107.164V106.273C190.57 104.414 190.828 102.695 191.344 101.117C191.859 99.5234 192.625 98.1328 193.641 96.9453C194.656 95.7578 195.93 94.8359 197.461 94.1797C198.992 93.5078 200.773 93.1719 202.805 93.1719C204.602 93.1719 206.211 93.4609 207.633 94.0391C209.055 94.6172 210.258 95.4453 211.242 96.5234C212.242 97.6016 213 98.9062 213.516 100.438C214.047 101.969 214.312 103.688 214.312 105.594V108.805H193.594V103.859H206.602V103.25C206.617 102.406 206.469 101.688 206.156 101.094C205.859 100.5 205.422 100.047 204.844 99.7344C204.266 99.4219 203.562 99.2656 202.734 99.2656C201.875 99.2656 201.164 99.4531 200.602 99.8281C200.055 100.203 199.625 100.719 199.312 101.375C199.016 102.016 198.805 102.758 198.68 103.602C198.555 104.445 198.492 105.336 198.492 106.273V107.164C198.492 108.102 198.617 108.953 198.867 109.719C199.133 110.484 199.508 111.141 199.992 111.688C200.492 112.219 201.086 112.633 201.773 112.93C202.477 113.227 203.273 113.375 204.164 113.375C205.242 113.375 206.305 113.172 207.352 112.766C208.398 112.359 209.297 111.688 210.047 110.75L213.633 115.016C213.117 115.75 212.383 116.461 211.43 117.148C210.492 117.836 209.367 118.398 208.055 118.836C206.742 119.258 205.273 119.469 203.648 119.469ZM225.492 99.0078V119H217.594V93.6406H225L225.492 99.0078ZM224.531 105.453L222.727 105.5C222.727 103.719 222.938 102.078 223.359 100.578C223.781 99.0781 224.406 97.7734 225.234 96.6641C226.062 95.5547 227.078 94.6953 228.281 94.0859C229.5 93.4766 230.906 93.1719 232.5 93.1719C233.609 93.1719 234.617 93.3438 235.523 93.6875C236.43 94.0156 237.211 94.5391 237.867 95.2578C238.523 95.9609 239.023 96.8828 239.367 98.0234C239.727 99.1484 239.906 100.5 239.906 102.078V119H232.008V103.086C232.008 102.008 231.883 101.195 231.633 100.648C231.398 100.102 231.055 99.7344 230.602 99.5469C230.148 99.3594 229.594 99.2656 228.938 99.2656C228.25 99.2656 227.633 99.4219 227.086 99.7344C226.539 100.047 226.07 100.484 225.68 101.047C225.305 101.594 225.016 102.242 224.812 102.992C224.625 103.742 224.531 104.562 224.531 105.453ZM239.016 105.453L236.812 105.5C236.812 103.719 237.008 102.078 237.398 100.578C237.805 99.0781 238.406 97.7734 239.203 96.6641C240.016 95.5547 241.023 94.6953 242.227 94.0859C243.43 93.4766 244.828 93.1719 246.422 93.1719C247.578 93.1719 248.641 93.3438 249.609 93.6875C250.578 94.0312 251.414 94.5859 252.117 95.3516C252.82 96.1172 253.367 97.1328 253.758 98.3984C254.148 99.6484 254.344 101.195 254.344 103.039V119H246.422V103.039C246.422 101.992 246.297 101.203 246.047 100.672C245.812 100.125 245.469 99.7578 245.016 99.5703C244.562 99.3672 244.023 99.2656 243.398 99.2656C242.648 99.2656 242 99.4219 241.453 99.7344C240.906 100.047 240.445 100.484 240.07 101.047C239.711 101.594 239.445 102.242 239.273 102.992C239.102 103.742 239.016 104.562 239.016 105.453ZM271.148 119.469C269.086 119.469 267.242 119.148 265.617 118.508C263.992 117.852 262.617 116.953 261.492 115.812C260.383 114.672 259.531 113.359 258.938 111.875C258.359 110.391 258.07 108.82 258.07 107.164V106.273C258.07 104.414 258.328 102.695 258.844 101.117C259.359 99.5234 260.125 98.1328 261.141 96.9453C262.156 95.7578 263.43 94.8359 264.961 94.1797C266.492 93.5078 268.273 93.1719 270.305 93.1719C272.102 93.1719 273.711 93.4609 275.133 94.0391C276.555 94.6172 277.758 95.4453 278.742 96.5234C279.742 97.6016 280.5 98.9062 281.016 100.438C281.547 101.969 281.812 103.688 281.812 105.594V108.805H261.094V103.859H274.102V103.25C274.117 102.406 273.969 101.688 273.656 101.094C273.359 100.5 272.922 100.047 272.344 99.7344C271.766 99.4219 271.062 99.2656 270.234 99.2656C269.375 99.2656 268.664 99.4531 268.102 99.8281C267.555 100.203 267.125 100.719 266.812 101.375C266.516 102.016 266.305 102.758 266.18 103.602C266.055 104.445 265.992 105.336 265.992 106.273V107.164C265.992 108.102 266.117 108.953 266.367 109.719C266.633 110.484 267.008 111.141 267.492 111.688C267.992 112.219 268.586 112.633 269.273 112.93C269.977 113.227 270.773 113.375 271.664 113.375C272.742 113.375 273.805 113.172 274.852 112.766C275.898 112.359 276.797 111.688 277.547 110.75L281.133 115.016C280.617 115.75 279.883 116.461 278.93 117.148C277.992 117.836 276.867 118.398 275.555 118.836C274.242 119.258 272.773 119.469 271.148 119.469ZM292.781 99.0547V119H284.883V93.6406H292.289L292.781 99.0547ZM291.844 105.453L289.992 105.5C289.992 103.562 290.227 101.836 290.695 100.32C291.164 98.7891 291.828 97.4922 292.688 96.4297C293.547 95.3672 294.57 94.5625 295.758 94.0156C296.961 93.4531 298.297 93.1719 299.766 93.1719C300.938 93.1719 302.008 93.3438 302.977 93.6875C303.961 94.0312 304.805 94.5859 305.508 95.3516C306.227 96.1172 306.773 97.1328 307.148 98.3984C307.539 99.6484 307.734 101.195 307.734 103.039V119H299.789V103.016C299.789 102 299.648 101.227 299.367 100.695C299.086 100.148 298.68 99.7734 298.148 99.5703C297.617 99.3672 296.969 99.2656 296.203 99.2656C295.391 99.2656 294.703 99.4219 294.141 99.7344C293.578 100.047 293.125 100.484 292.781 101.047C292.453 101.594 292.211 102.242 292.055 102.992C291.914 103.742 291.844 104.562 291.844 105.453ZM325.477 93.6406V99.125H310.195V93.6406H325.477ZM313.406 87.3359H321.305V110.727C321.305 111.398 321.383 111.922 321.539 112.297C321.695 112.656 321.961 112.914 322.336 113.07C322.727 113.211 323.242 113.281 323.883 113.281C324.336 113.281 324.711 113.273 325.008 113.258C325.305 113.227 325.586 113.188 325.852 113.141V118.789C325.18 119.008 324.477 119.172 323.742 119.281C323.008 119.406 322.227 119.469 321.398 119.469C319.711 119.469 318.266 119.203 317.062 118.672C315.875 118.141 314.969 117.305 314.344 116.164C313.719 115.023 313.406 113.539 313.406 111.711V87.3359ZM341.789 112.625V102.172C341.789 101.453 341.688 100.836 341.484 100.32C341.281 99.8047 340.961 99.4062 340.523 99.125C340.086 98.8281 339.5 98.6797 338.766 98.6797C338.172 98.6797 337.664 98.7812 337.242 98.9844C336.82 99.1875 336.5 99.4922 336.281 99.8984C336.062 100.305 335.953 100.82 335.953 101.445H328.055C328.055 100.273 328.312 99.1875 328.828 98.1875C329.359 97.1719 330.109 96.2891 331.078 95.5391C332.062 94.7891 333.234 94.2109 334.594 93.8047C335.969 93.3828 337.5 93.1719 339.188 93.1719C341.203 93.1719 343 93.5078 344.578 94.1797C346.172 94.8516 347.43 95.8594 348.352 97.2031C349.273 98.5312 349.734 100.203 349.734 102.219V112.602C349.734 114.258 349.828 115.516 350.016 116.375C350.203 117.219 350.469 117.961 350.812 118.602V119H342.891C342.516 118.219 342.234 117.266 342.047 116.141C341.875 115 341.789 113.828 341.789 112.625ZM342.75 103.508L342.797 107.727H339.305C338.57 107.727 337.945 107.828 337.43 108.031C336.93 108.234 336.523 108.516 336.211 108.875C335.914 109.219 335.695 109.609 335.555 110.047C335.43 110.484 335.367 110.945 335.367 111.43C335.367 111.898 335.477 112.32 335.695 112.695C335.93 113.055 336.242 113.336 336.633 113.539C337.023 113.742 337.461 113.844 337.945 113.844C338.82 113.844 339.562 113.68 340.172 113.352C340.797 113.008 341.273 112.594 341.602 112.109C341.93 111.625 342.094 111.172 342.094 110.75L343.828 113.984C343.516 114.609 343.156 115.242 342.75 115.883C342.359 116.523 341.867 117.117 341.273 117.664C340.695 118.195 339.984 118.633 339.141 118.977C338.297 119.305 337.273 119.469 336.07 119.469C334.508 119.469 333.07 119.148 331.758 118.508C330.461 117.867 329.422 116.977 328.641 115.836C327.859 114.68 327.469 113.352 327.469 111.852C327.469 110.539 327.703 109.367 328.172 108.336C328.656 107.305 329.383 106.43 330.352 105.711C331.32 104.992 332.555 104.445 334.055 104.07C335.555 103.695 337.32 103.508 339.352 103.508H342.75ZM367.477 93.6406V99.125H352.195V93.6406H367.477ZM355.406 87.3359H363.305V110.727C363.305 111.398 363.383 111.922 363.539 112.297C363.695 112.656 363.961 112.914 364.336 113.07C364.727 113.211 365.242 113.281 365.883 113.281C366.336 113.281 366.711 113.273 367.008 113.258C367.305 113.227 367.586 113.188 367.852 113.141V118.789C367.18 119.008 366.477 119.172 365.742 119.281C365.008 119.406 364.227 119.469 363.398 119.469C361.711 119.469 360.266 119.203 359.062 118.672C357.875 118.141 356.969 117.305 356.344 116.164C355.719 115.023 355.406 113.539 355.406 111.711V87.3359ZM378.961 93.6406V119H371.039V93.6406H378.961ZM370.57 87.1016C370.57 85.9766 370.977 85.0547 371.789 84.3359C372.602 83.6172 373.656 83.2578 374.953 83.2578C376.25 83.2578 377.305 83.6172 378.117 84.3359C378.93 85.0547 379.336 85.9766 379.336 87.1016C379.336 88.2266 378.93 89.1484 378.117 89.8672C377.305 90.5859 376.25 90.9453 374.953 90.9453C373.656 90.9453 372.602 90.5859 371.789 89.8672C370.977 89.1484 370.57 88.2266 370.57 87.1016ZM382.852 106.578V106.086C382.852 104.227 383.117 102.516 383.648 100.953C384.18 99.375 384.961 98.0078 385.992 96.8516C387.023 95.6953 388.297 94.7969 389.812 94.1562C391.328 93.5 393.078 93.1719 395.062 93.1719C397.062 93.1719 398.82 93.5 400.336 94.1562C401.867 94.7969 403.148 95.6953 404.18 96.8516C405.211 98.0078 405.992 99.375 406.523 100.953C407.055 102.516 407.32 104.227 407.32 106.086V106.578C407.32 108.422 407.055 110.133 406.523 111.711C405.992 113.273 405.211 114.641 404.18 115.812C403.148 116.969 401.875 117.867 400.359 118.508C398.844 119.148 397.094 119.469 395.109 119.469C393.125 119.469 391.367 119.148 389.836 118.508C388.305 117.867 387.023 116.969 385.992 115.812C384.961 114.641 384.18 113.273 383.648 111.711C383.117 110.133 382.852 108.422 382.852 106.578ZM390.75 106.086V106.578C390.75 107.531 390.82 108.422 390.961 109.25C391.102 110.078 391.336 110.805 391.664 111.43C391.992 112.039 392.438 112.516 393 112.859C393.562 113.203 394.266 113.375 395.109 113.375C395.938 113.375 396.625 113.203 397.172 112.859C397.734 112.516 398.18 112.039 398.508 111.43C398.836 110.805 399.07 110.078 399.211 109.25C399.352 108.422 399.422 107.531 399.422 106.578V106.086C399.422 105.164 399.352 104.297 399.211 103.484C399.07 102.656 398.836 101.93 398.508 101.305C398.18 100.664 397.734 100.164 397.172 99.8047C396.609 99.4453 395.906 99.2656 395.062 99.2656C394.234 99.2656 393.539 99.4453 392.977 99.8047C392.43 100.164 391.992 100.664 391.664 101.305C391.336 101.93 391.102 102.656 390.961 103.484C390.82 104.297 390.75 105.164 390.75 106.086ZM418.594 99.0547V119H410.695V93.6406H418.102L418.594 99.0547ZM417.656 105.453L415.805 105.5C415.805 103.562 416.039 101.836 416.508 100.32C416.977 98.7891 417.641 97.4922 418.5 96.4297C419.359 95.3672 420.383 94.5625 421.57 94.0156C422.773 93.4531 424.109 93.1719 425.578 93.1719C426.75 93.1719 427.82 93.3438 428.789 93.6875C429.773 94.0312 430.617 94.5859 431.32 95.3516C432.039 96.1172 432.586 97.1328 432.961 98.3984C433.352 99.6484 433.547 101.195 433.547 103.039V119H425.602V103.016C425.602 102 425.461 101.227 425.18 100.695C424.898 100.148 424.492 99.7734 423.961 99.5703C423.43 99.3672 422.781 99.2656 422.016 99.2656C421.203 99.2656 420.516 99.4219 419.953 99.7344C419.391 100.047 418.938 100.484 418.594 101.047C418.266 101.594 418.023 102.242 417.867 102.992C417.727 103.742 417.656 104.562 417.656 105.453Z" fill="black"/>
<path d="M1134 0H1348C1356.28 0 1363 6.71573 1363 15V148C1363 156.284 1356.28 163 1348 163H1134V0Z" fill="#916A3F"/>
<path d="M1281 46.5H1216L1213.5 49V114L1216 116.5H1281L1283.5 114V49L1281 46.5ZM1278.5 111.5H1233.5V101.5H1245C1246.5 104.5 1250 106.5 1253.5 106.5C1259 106.5 1263.5 102 1263.5 96.5C1263.5 91 1259 86.5 1253.5 86.5C1248 86.5 1243.5 91 1243.5 96.5H1228.5V111.5H1218.5V51.5H1228.5V63C1225.5 64.5 1223.5 68 1223.5 71.5C1223.5 77 1228 81.5 1233.5 81.5C1239 81.5 1243.5 77 1243.5 71.5H1253.5C1253.5 77 1258 81.5 1263.5 81.5C1269 81.5 1273.5 77 1273.5 71.5C1273.5 66 1269 61.5 1263.5 61.5C1260 61.5 1256.5 63.5 1255 66.5H1242C1240.5 63.5 1237 61.5 1233.5 61.5V51.5H1278.5V111.5ZM1248.5 96.5C1248.5 93.5 1250.5 91.5 1253.5 91.5C1256.5 91.5 1258.5 93.5 1258.5 96.5C1258.5 99.5 1256.5 101.5 1253.5 101.5C1250.5 101.5 1248.5 99.5 1248.5 96.5ZM1233.5 66.5C1236.5 66.5 1238.5 68.5 1238.5 71.5C1238.5 74.5 1236.5 76.5 1233.5 76.5C1230.5 76.5 1228.5 74.5 1228.5 71.5C1228.5 68.5 1230.5 66.5 1233.5 66.5ZM1263.5 66.5C1266.5 66.5 1268.5 68.5 1268.5 71.5C1268.5 74.5 1266.5 76.5 1263.5 76.5C1260.5 76.5 1258.5 74.5 1258.5 71.5C1258.5 68.5 1260.5 66.5 1263.5 66.5Z" fill="white"/>
</svg>
