<svg width="1363" height="297" viewBox="0 0 1363 297" fill="none" xmlns="http://www.w3.org/2000/svg">
<path d="M0 15C0 6.71573 6.71573 0 15 0H37V297H15C6.71573 297 0 290.284 0 282V15Z" fill="#B48C60"/>
<path d="M37 0H1066V297H37V0Z" fill="#F0F0F0"/>
<path d="M105.691 53.7832L98.7305 75H93.123L102.633 49.4062H106.201L105.691 53.7832ZM111.475 75L104.496 53.7832L103.934 49.4062H107.537L117.1 75H111.475ZM111.158 65.4727V69.6035H97.6406V65.4727H111.158ZM119.156 48H124.219V70.6406L123.709 75H119.156V48ZM136.26 65.2969V65.666C136.26 67.084 136.107 68.3848 135.803 69.5684C135.51 70.752 135.053 71.7773 134.432 72.6445C133.811 73.5 133.037 74.168 132.111 74.6484C131.197 75.1172 130.119 75.3516 128.877 75.3516C127.717 75.3516 126.709 75.1172 125.854 74.6484C125.01 74.1797 124.301 73.5176 123.727 72.6621C123.152 71.8066 122.689 70.8047 122.338 69.6562C121.986 68.5078 121.723 67.2539 121.547 65.8945V65.0859C121.723 63.7266 121.986 62.4727 122.338 61.3242C122.689 60.1758 123.152 59.1738 123.727 58.3184C124.301 57.4629 125.01 56.8008 125.854 56.332C126.697 55.8633 127.693 55.6289 128.842 55.6289C130.096 55.6289 131.186 55.8691 132.111 56.3496C133.049 56.8184 133.822 57.4863 134.432 58.3535C135.053 59.209 135.51 60.2285 135.803 61.4121C136.107 62.584 136.26 63.8789 136.26 65.2969ZM131.197 65.666V65.2969C131.197 64.5234 131.139 63.7969 131.021 63.1172C130.916 62.4258 130.729 61.8223 130.459 61.3066C130.189 60.7793 129.82 60.3633 129.352 60.0586C128.895 59.7539 128.303 59.6016 127.576 59.6016C126.885 59.6016 126.299 59.7188 125.818 59.9531C125.338 60.1875 124.939 60.5156 124.623 60.9375C124.318 61.3594 124.09 61.8633 123.938 62.4492C123.785 63.0234 123.691 63.6562 123.656 64.3477V66.6504C123.691 67.5762 123.844 68.3965 124.113 69.1113C124.395 69.8145 124.816 70.3711 125.379 70.7812C125.953 71.1797 126.697 71.3789 127.611 71.3789C128.326 71.3789 128.918 71.2383 129.387 70.957C129.855 70.6758 130.219 70.2773 130.477 69.7617C130.746 69.2461 130.934 68.6426 131.039 67.9512C131.145 67.248 131.197 66.4863 131.197 65.666ZM148.16 75.3516C146.684 75.3516 145.359 75.1172 144.188 74.6484C143.016 74.168 142.02 73.5059 141.199 72.6621C140.391 71.8184 139.77 70.8398 139.336 69.7266C138.902 68.6016 138.686 67.4062 138.686 66.1406V65.4375C138.686 63.9961 138.891 62.6777 139.301 61.4824C139.711 60.2871 140.297 59.25 141.059 58.3711C141.832 57.4922 142.77 56.8184 143.871 56.3496C144.973 55.8691 146.215 55.6289 147.598 55.6289C148.945 55.6289 150.141 55.8516 151.184 56.2969C152.227 56.7422 153.1 57.375 153.803 58.1953C154.518 59.0156 155.057 60 155.42 61.1484C155.783 62.2852 155.965 63.5508 155.965 64.9453V67.0547H140.848V63.6797H150.99V63.293C150.99 62.5898 150.861 61.9629 150.604 61.4121C150.357 60.8496 149.982 60.4043 149.479 60.0762C148.975 59.748 148.33 59.584 147.545 59.584C146.877 59.584 146.303 59.7305 145.822 60.0234C145.342 60.3164 144.949 60.7266 144.645 61.2539C144.352 61.7812 144.129 62.4023 143.977 63.1172C143.836 63.8203 143.766 64.5938 143.766 65.4375V66.1406C143.766 66.9023 143.871 67.6055 144.082 68.25C144.305 68.8945 144.615 69.4512 145.014 69.9199C145.424 70.3887 145.916 70.752 146.49 71.0098C147.076 71.2676 147.738 71.3965 148.477 71.3965C149.391 71.3965 150.24 71.2207 151.025 70.8691C151.822 70.5059 152.508 69.9609 153.082 69.2344L155.543 71.9062C155.145 72.4805 154.6 73.0312 153.908 73.5586C153.229 74.0859 152.408 74.5195 151.447 74.8594C150.486 75.1875 149.391 75.3516 148.16 75.3516ZM170.08 70.8516V48H175.178V75H170.59L170.08 70.8516ZM158.057 65.7188V65.3496C158.057 63.8965 158.221 62.5781 158.549 61.3945C158.877 60.1992 159.357 59.1738 159.99 58.3184C160.623 57.4629 161.402 56.8008 162.328 56.332C163.254 55.8633 164.309 55.6289 165.492 55.6289C166.605 55.6289 167.578 55.8633 168.41 56.332C169.254 56.8008 169.969 57.4688 170.555 58.3359C171.152 59.1914 171.633 60.2051 171.996 61.377C172.359 62.5371 172.623 63.8086 172.787 65.1914V66C172.623 67.3242 172.359 68.5547 171.996 69.6914C171.633 70.8281 171.152 71.8242 170.555 72.6797C169.969 73.5234 169.254 74.1797 168.41 74.6484C167.566 75.1172 166.582 75.3516 165.457 75.3516C164.273 75.3516 163.219 75.1113 162.293 74.6309C161.379 74.1504 160.605 73.4766 159.973 72.6094C159.352 71.7422 158.877 70.7227 158.549 69.5508C158.221 68.3789 158.057 67.1016 158.057 65.7188ZM163.119 65.3496V65.7188C163.119 66.5039 163.178 67.2363 163.295 67.916C163.424 68.5957 163.629 69.1992 163.91 69.7266C164.203 70.2422 164.578 70.6465 165.035 70.9395C165.504 71.2207 166.072 71.3613 166.74 71.3613C167.607 71.3613 168.322 71.168 168.885 70.7812C169.447 70.3828 169.875 69.8379 170.168 69.1465C170.473 68.4551 170.648 67.6582 170.695 66.7559V64.4531C170.66 63.7148 170.555 63.0527 170.379 62.4668C170.215 61.8691 169.969 61.3594 169.641 60.9375C169.324 60.5156 168.926 60.1875 168.445 59.9531C167.977 59.7188 167.42 59.6016 166.775 59.6016C166.119 59.6016 165.557 59.7539 165.088 60.0586C164.619 60.3516 164.238 60.7559 163.945 61.2715C163.664 61.7871 163.453 62.3965 163.312 63.0996C163.184 63.791 163.119 64.541 163.119 65.3496ZM198.82 53.7832L191.859 75H186.252L195.762 49.4062H199.33L198.82 53.7832ZM204.604 75L197.625 53.7832L197.062 49.4062H200.666L210.229 75H204.604ZM204.287 65.4727V69.6035H190.77V65.4727H204.287ZM217.629 48V75H212.549V48H217.629ZM251.379 61.623V71.7656C250.98 72.2461 250.365 72.7676 249.533 73.3301C248.701 73.8809 247.629 74.3555 246.316 74.7539C245.004 75.1523 243.416 75.3516 241.553 75.3516C239.9 75.3516 238.395 75.082 237.035 74.543C235.676 73.9922 234.504 73.1895 233.52 72.1348C232.547 71.0801 231.797 69.791 231.27 68.2676C230.742 66.7324 230.479 64.9805 230.479 63.0117V61.4121C230.479 59.4434 230.73 57.6914 231.234 56.1562C231.75 54.6211 232.482 53.3262 233.432 52.2715C234.381 51.2168 235.512 50.4141 236.824 49.8633C238.137 49.3125 239.596 49.0371 241.201 49.0371C243.428 49.0371 245.256 49.4004 246.686 50.127C248.115 50.8418 249.205 51.8379 249.955 53.1152C250.717 54.3809 251.186 55.834 251.361 57.4746H246.246C246.117 56.6074 245.871 55.8516 245.508 55.207C245.145 54.5625 244.623 54.0586 243.943 53.6953C243.275 53.332 242.408 53.1504 241.342 53.1504C240.463 53.1504 239.678 53.332 238.986 53.6953C238.307 54.0469 237.732 54.5684 237.264 55.2598C236.795 55.9512 236.438 56.8066 236.191 57.8262C235.945 58.8457 235.822 60.0293 235.822 61.377V63.0117C235.822 64.3477 235.951 65.5312 236.209 66.5625C236.467 67.582 236.848 68.4434 237.352 69.1465C237.867 69.8379 238.5 70.3594 239.25 70.7109C240 71.0625 240.873 71.2383 241.869 71.2383C242.701 71.2383 243.393 71.168 243.943 71.0273C244.506 70.8867 244.957 70.7168 245.297 70.5176C245.648 70.3066 245.918 70.1074 246.105 69.9199V65.3848H241.289V61.623H251.379ZM260.256 48V75H255.193V48H260.256ZM259.535 64.8223H258.146C258.158 63.498 258.334 62.2793 258.674 61.166C259.014 60.041 259.5 59.0684 260.133 58.248C260.766 57.416 261.521 56.7715 262.4 56.3145C263.291 55.8574 264.275 55.6289 265.354 55.6289C266.291 55.6289 267.141 55.7637 267.902 56.0332C268.676 56.291 269.338 56.7129 269.889 57.2988C270.451 57.873 270.885 58.6289 271.189 59.5664C271.494 60.5039 271.646 61.6406 271.646 62.9766V75H266.549V62.9414C266.549 62.0977 266.426 61.4355 266.18 60.9551C265.945 60.4629 265.6 60.1172 265.143 59.918C264.697 59.707 264.146 59.6016 263.49 59.6016C262.764 59.6016 262.143 59.7363 261.627 60.0059C261.123 60.2754 260.719 60.6504 260.414 61.1309C260.109 61.5996 259.887 62.1504 259.746 62.7832C259.605 63.416 259.535 64.0957 259.535 64.8223ZM285.762 70.7109V62.2383C285.762 61.6289 285.662 61.1074 285.463 60.6738C285.264 60.2285 284.953 59.8828 284.531 59.6367C284.121 59.3906 283.588 59.2676 282.932 59.2676C282.369 59.2676 281.883 59.3672 281.473 59.5664C281.062 59.7539 280.746 60.0293 280.523 60.3926C280.301 60.7441 280.189 61.1602 280.189 61.6406H275.127C275.127 60.832 275.314 60.0645 275.689 59.3379C276.064 58.6113 276.609 57.9727 277.324 57.4219C278.039 56.8594 278.889 56.4199 279.873 56.1035C280.869 55.7871 281.982 55.6289 283.213 55.6289C284.689 55.6289 286.002 55.875 287.15 56.3672C288.299 56.8594 289.201 57.5977 289.857 58.582C290.525 59.5664 290.859 60.7969 290.859 62.2734V70.4121C290.859 71.4551 290.924 72.3105 291.053 72.9785C291.182 73.6348 291.369 74.209 291.615 74.7012V75H286.5C286.254 74.4844 286.066 73.8398 285.938 73.0664C285.82 72.2812 285.762 71.4961 285.762 70.7109ZM286.43 63.416L286.465 66.2812H283.635C282.967 66.2812 282.387 66.3574 281.895 66.5098C281.402 66.6621 280.998 66.8789 280.682 67.1602C280.365 67.4297 280.131 67.7461 279.979 68.1094C279.838 68.4727 279.768 68.8711 279.768 69.3047C279.768 69.7383 279.867 70.1309 280.066 70.4824C280.266 70.8223 280.553 71.0918 280.928 71.291C281.303 71.4785 281.742 71.5723 282.246 71.5723C283.008 71.5723 283.67 71.4199 284.232 71.1152C284.795 70.8105 285.229 70.4355 285.533 69.9902C285.85 69.5449 286.014 69.123 286.025 68.7246L287.361 70.8691C287.174 71.3496 286.916 71.8477 286.588 72.3633C286.271 72.8789 285.867 73.3652 285.375 73.8223C284.883 74.2676 284.291 74.6367 283.6 74.9297C282.908 75.2109 282.088 75.3516 281.139 75.3516C279.932 75.3516 278.836 75.1113 277.852 74.6309C276.879 74.1387 276.105 73.4648 275.531 72.6094C274.969 71.7422 274.688 70.7578 274.688 69.6562C274.688 68.6602 274.875 67.7754 275.25 67.002C275.625 66.2285 276.176 65.5781 276.902 65.0508C277.641 64.5117 278.561 64.1074 279.662 63.8379C280.764 63.5566 282.041 63.416 283.494 63.416H286.43ZM299.719 60.041V75H294.656V55.9805H299.402L299.719 60.041ZM298.98 64.8223H297.609C297.609 63.416 297.791 62.1504 298.154 61.0254C298.518 59.8887 299.027 58.9219 299.684 58.125C300.34 57.3164 301.119 56.7012 302.021 56.2793C302.936 55.8457 303.955 55.6289 305.08 55.6289C305.971 55.6289 306.785 55.7578 307.523 56.0156C308.262 56.2734 308.895 56.6836 309.422 57.2461C309.961 57.8086 310.371 58.5527 310.652 59.4785C310.945 60.4043 311.092 61.5352 311.092 62.8711V75H305.994V62.8535C305.994 62.0098 305.877 61.3535 305.643 60.8848C305.408 60.416 305.062 60.0879 304.605 59.9004C304.16 59.7012 303.609 59.6016 302.953 59.6016C302.273 59.6016 301.682 59.7363 301.178 60.0059C300.686 60.2754 300.275 60.6504 299.947 61.1309C299.631 61.5996 299.391 62.1504 299.227 62.7832C299.062 63.416 298.98 64.0957 298.98 64.8223ZM320.285 55.9805V75H315.205V55.9805H320.285ZM314.889 51.0234C314.889 50.2852 315.146 49.6758 315.662 49.1953C316.178 48.7148 316.869 48.4746 317.736 48.4746C318.592 48.4746 319.277 48.7148 319.793 49.1953C320.32 49.6758 320.584 50.2852 320.584 51.0234C320.584 51.7617 320.32 52.3711 319.793 52.8516C319.277 53.332 318.592 53.5723 317.736 53.5723C316.869 53.5723 316.178 53.332 315.662 52.8516C315.146 52.3711 314.889 51.7617 314.889 51.0234ZM336.158 49.4062H340.623L347.197 68.1973L353.771 49.4062H358.236L348.99 75H345.404L336.158 49.4062ZM333.75 49.4062H338.197L339.006 67.7227V75H333.75V49.4062ZM356.197 49.4062H360.662V75H355.389V67.7227L356.197 49.4062ZM364.16 65.6836V65.3145C364.16 63.9199 364.359 62.6367 364.758 61.4648C365.156 60.2812 365.736 59.2559 366.498 58.3887C367.26 57.5215 368.197 56.8477 369.311 56.3672C370.424 55.875 371.701 55.6289 373.143 55.6289C374.584 55.6289 375.867 55.875 376.992 56.3672C378.117 56.8477 379.061 57.5215 379.822 58.3887C380.596 59.2559 381.182 60.2812 381.58 61.4648C381.979 62.6367 382.178 63.9199 382.178 65.3145V65.6836C382.178 67.0664 381.979 68.3496 381.58 69.5332C381.182 70.7051 380.596 71.7305 379.822 72.6094C379.061 73.4766 378.123 74.1504 377.01 74.6309C375.896 75.1113 374.619 75.3516 373.178 75.3516C371.736 75.3516 370.453 75.1113 369.328 74.6309C368.215 74.1504 367.271 73.4766 366.498 72.6094C365.736 71.7305 365.156 70.7051 364.758 69.5332C364.359 68.3496 364.16 67.0664 364.16 65.6836ZM369.223 65.3145V65.6836C369.223 66.4805 369.293 67.2246 369.434 67.916C369.574 68.6074 369.797 69.2168 370.102 69.7441C370.418 70.2598 370.828 70.6641 371.332 70.957C371.836 71.25 372.451 71.3965 373.178 71.3965C373.881 71.3965 374.484 71.25 374.988 70.957C375.492 70.6641 375.896 70.2598 376.201 69.7441C376.506 69.2168 376.729 68.6074 376.869 67.916C377.021 67.2246 377.098 66.4805 377.098 65.6836V65.3145C377.098 64.541 377.021 63.8145 376.869 63.1348C376.729 62.4434 376.5 61.834 376.184 61.3066C375.879 60.7676 375.475 60.3457 374.971 60.041C374.467 59.7363 373.857 59.584 373.143 59.584C372.428 59.584 371.818 59.7363 371.314 60.041C370.822 60.3457 370.418 60.7676 370.102 61.3066C369.797 61.834 369.574 62.4434 369.434 63.1348C369.293 63.8145 369.223 64.541 369.223 65.3145ZM395.572 69.7441C395.572 69.3809 395.467 69.0527 395.256 68.7598C395.045 68.4668 394.652 68.1973 394.078 67.9512C393.516 67.6934 392.701 67.459 391.635 67.248C390.674 67.0371 389.777 66.7734 388.945 66.457C388.125 66.1289 387.41 65.7363 386.801 65.2793C386.203 64.8223 385.734 64.2832 385.395 63.6621C385.055 63.0293 384.885 62.3086 384.885 61.5C384.885 60.7031 385.055 59.9531 385.395 59.25C385.746 58.5469 386.244 57.9258 386.889 57.3867C387.545 56.8359 388.342 56.4082 389.279 56.1035C390.229 55.7871 391.295 55.6289 392.479 55.6289C394.131 55.6289 395.549 55.8926 396.732 56.4199C397.928 56.9473 398.842 57.6738 399.475 58.5996C400.119 59.5137 400.441 60.5566 400.441 61.7285H395.379C395.379 61.2363 395.273 60.7969 395.062 60.4102C394.863 60.0117 394.547 59.7012 394.113 59.4785C393.691 59.2441 393.141 59.127 392.461 59.127C391.898 59.127 391.412 59.2266 391.002 59.4258C390.592 59.6133 390.275 59.8711 390.053 60.1992C389.842 60.5156 389.736 60.8672 389.736 61.2539C389.736 61.5469 389.795 61.8105 389.912 62.0449C390.041 62.2676 390.246 62.4727 390.527 62.6602C390.809 62.8477 391.172 63.0234 391.617 63.1875C392.074 63.3398 392.637 63.4805 393.305 63.6094C394.676 63.8906 395.9 64.2598 396.979 64.7168C398.057 65.1621 398.912 65.7715 399.545 66.5449C400.178 67.3066 400.494 68.3086 400.494 69.5508C400.494 70.3945 400.307 71.168 399.932 71.8711C399.557 72.5742 399.018 73.1895 398.314 73.7168C397.611 74.2324 396.768 74.6367 395.783 74.9297C394.811 75.2109 393.715 75.3516 392.496 75.3516C390.727 75.3516 389.227 75.0352 387.996 74.4023C386.777 73.7695 385.852 72.9668 385.219 71.9941C384.598 71.0098 384.287 70.002 384.287 68.9707H389.086C389.109 69.6621 389.285 70.2188 389.613 70.6406C389.953 71.0625 390.381 71.3672 390.896 71.5547C391.424 71.7422 391.992 71.8359 392.602 71.8359C393.258 71.8359 393.803 71.748 394.236 71.5723C394.67 71.3848 394.998 71.1387 395.221 70.834C395.455 70.5176 395.572 70.1543 395.572 69.7441ZM403.781 48H408.844V70.6406L408.334 75H403.781V48ZM420.885 65.2969V65.666C420.885 67.084 420.732 68.3848 420.428 69.5684C420.135 70.752 419.678 71.7773 419.057 72.6445C418.436 73.5 417.662 74.168 416.736 74.6484C415.822 75.1172 414.744 75.3516 413.502 75.3516C412.342 75.3516 411.334 75.1172 410.479 74.6484C409.635 74.1797 408.926 73.5176 408.352 72.6621C407.777 71.8066 407.314 70.8047 406.963 69.6562C406.611 68.5078 406.348 67.2539 406.172 65.8945V65.0859C406.348 63.7266 406.611 62.4727 406.963 61.3242C407.314 60.1758 407.777 59.1738 408.352 58.3184C408.926 57.4629 409.635 56.8008 410.479 56.332C411.322 55.8633 412.318 55.6289 413.467 55.6289C414.721 55.6289 415.811 55.8691 416.736 56.3496C417.674 56.8184 418.447 57.4863 419.057 58.3535C419.678 59.209 420.135 60.2285 420.428 61.4121C420.732 62.584 420.885 63.8789 420.885 65.2969ZM415.822 65.666V65.2969C415.822 64.5234 415.764 63.7969 415.646 63.1172C415.541 62.4258 415.354 61.8223 415.084 61.3066C414.814 60.7793 414.445 60.3633 413.977 60.0586C413.52 59.7539 412.928 59.6016 412.201 59.6016C411.51 59.6016 410.924 59.7188 410.443 59.9531C409.963 60.1875 409.564 60.5156 409.248 60.9375C408.943 61.3594 408.715 61.8633 408.562 62.4492C408.41 63.0234 408.316 63.6562 408.281 64.3477V66.6504C408.316 67.5762 408.469 68.3965 408.738 69.1113C409.02 69.8145 409.441 70.3711 410.004 70.7812C410.578 71.1797 411.322 71.3789 412.236 71.3789C412.951 71.3789 413.543 71.2383 414.012 70.957C414.48 70.6758 414.844 70.2773 415.102 69.7617C415.371 69.2461 415.559 68.6426 415.664 67.9512C415.77 67.248 415.822 66.4863 415.822 65.666ZM434.297 70.7109V62.2383C434.297 61.6289 434.197 61.1074 433.998 60.6738C433.799 60.2285 433.488 59.8828 433.066 59.6367C432.656 59.3906 432.123 59.2676 431.467 59.2676C430.904 59.2676 430.418 59.3672 430.008 59.5664C429.598 59.7539 429.281 60.0293 429.059 60.3926C428.836 60.7441 428.725 61.1602 428.725 61.6406H423.662C423.662 60.832 423.85 60.0645 424.225 59.3379C424.6 58.6113 425.145 57.9727 425.859 57.4219C426.574 56.8594 427.424 56.4199 428.408 56.1035C429.404 55.7871 430.518 55.6289 431.748 55.6289C433.225 55.6289 434.537 55.875 435.686 56.3672C436.834 56.8594 437.736 57.5977 438.393 58.582C439.061 59.5664 439.395 60.7969 439.395 62.2734V70.4121C439.395 71.4551 439.459 72.3105 439.588 72.9785C439.717 73.6348 439.904 74.209 440.15 74.7012V75H435.035C434.789 74.4844 434.602 73.8398 434.473 73.0664C434.355 72.2812 434.297 71.4961 434.297 70.7109ZM434.965 63.416L435 66.2812H432.17C431.502 66.2812 430.922 66.3574 430.43 66.5098C429.938 66.6621 429.533 66.8789 429.217 67.1602C428.9 67.4297 428.666 67.7461 428.514 68.1094C428.373 68.4727 428.303 68.8711 428.303 69.3047C428.303 69.7383 428.402 70.1309 428.602 70.4824C428.801 70.8223 429.088 71.0918 429.463 71.291C429.838 71.4785 430.277 71.5723 430.781 71.5723C431.543 71.5723 432.205 71.4199 432.768 71.1152C433.33 70.8105 433.764 70.4355 434.068 69.9902C434.385 69.5449 434.549 69.123 434.561 68.7246L435.896 70.8691C435.709 71.3496 435.451 71.8477 435.123 72.3633C434.807 72.8789 434.402 73.3652 433.91 73.8223C433.418 74.2676 432.826 74.6367 432.135 74.9297C431.443 75.2109 430.623 75.3516 429.674 75.3516C428.467 75.3516 427.371 75.1113 426.387 74.6309C425.414 74.1387 424.641 73.4648 424.066 72.6094C423.504 71.7422 423.223 70.7578 423.223 69.6562C423.223 68.6602 423.41 67.7754 423.785 67.002C424.16 66.2285 424.711 65.5781 425.438 65.0508C426.176 64.5117 427.096 64.1074 428.197 63.8379C429.299 63.5566 430.576 63.416 432.029 63.416H434.965ZM448.236 48V75H443.174V48H448.236ZM447.516 64.8223H446.127C446.139 63.498 446.314 62.2793 446.654 61.166C446.994 60.041 447.48 59.0684 448.113 58.248C448.746 57.416 449.502 56.7715 450.381 56.3145C451.271 55.8574 452.256 55.6289 453.334 55.6289C454.271 55.6289 455.121 55.7637 455.883 56.0332C456.656 56.291 457.318 56.7129 457.869 57.2988C458.432 57.873 458.865 58.6289 459.17 59.5664C459.475 60.5039 459.627 61.6406 459.627 62.9766V75H454.529V62.9414C454.529 62.0977 454.406 61.4355 454.16 60.9551C453.926 60.4629 453.58 60.1172 453.123 59.918C452.678 59.707 452.127 59.6016 451.471 59.6016C450.744 59.6016 450.123 59.7363 449.607 60.0059C449.104 60.2754 448.699 60.6504 448.395 61.1309C448.09 61.5996 447.867 62.1504 447.727 62.7832C447.586 63.416 447.516 64.0957 447.516 64.8223ZM486.082 68.3027C486.082 67.8457 486.012 67.4355 485.871 67.0723C485.742 66.6973 485.496 66.3574 485.133 66.0527C484.77 65.7363 484.26 65.4258 483.604 65.1211C482.947 64.8164 482.098 64.5 481.055 64.1719C479.895 63.7969 478.793 63.375 477.75 62.9062C476.719 62.4375 475.805 61.8926 475.008 61.2715C474.223 60.6387 473.602 59.9062 473.145 59.0742C472.699 58.2422 472.477 57.2754 472.477 56.1738C472.477 55.1074 472.711 54.1406 473.18 53.2734C473.648 52.3945 474.305 51.6445 475.148 51.0234C475.992 50.3906 476.988 49.9043 478.137 49.5645C479.297 49.2246 480.568 49.0547 481.951 49.0547C483.838 49.0547 485.484 49.3945 486.891 50.0742C488.297 50.7539 489.387 51.6855 490.16 52.8691C490.945 54.0527 491.338 55.4062 491.338 56.9297H486.1C486.1 56.1797 485.941 55.5234 485.625 54.9609C485.32 54.3867 484.852 53.9355 484.219 53.6074C483.598 53.2793 482.812 53.1152 481.863 53.1152C480.949 53.1152 480.188 53.2559 479.578 53.5371C478.969 53.8066 478.512 54.1758 478.207 54.6445C477.902 55.1016 477.75 55.6172 477.75 56.1914C477.75 56.625 477.855 57.0176 478.066 57.3691C478.289 57.7207 478.617 58.0488 479.051 58.3535C479.484 58.6582 480.018 58.9453 480.65 59.2148C481.283 59.4844 482.016 59.748 482.848 60.0059C484.242 60.4277 485.467 60.9023 486.521 61.4297C487.588 61.957 488.479 62.5488 489.193 63.2051C489.908 63.8613 490.447 64.6055 490.811 65.4375C491.174 66.2695 491.355 67.2129 491.355 68.2676C491.355 69.3809 491.139 70.377 490.705 71.2559C490.271 72.1348 489.645 72.8789 488.824 73.4883C488.004 74.0977 487.025 74.5605 485.889 74.877C484.752 75.1934 483.48 75.3516 482.074 75.3516C480.809 75.3516 479.561 75.1875 478.33 74.8594C477.1 74.5195 475.98 74.0098 474.973 73.3301C473.977 72.6504 473.18 71.7832 472.582 70.7285C471.984 69.6738 471.686 68.4258 471.686 66.9844H476.977C476.977 67.7812 477.1 68.4551 477.346 69.0059C477.592 69.5566 477.938 70.002 478.383 70.3418C478.84 70.6816 479.379 70.9277 480 71.0801C480.633 71.2324 481.324 71.3086 482.074 71.3086C482.988 71.3086 483.738 71.1797 484.324 70.9219C484.922 70.6641 485.361 70.3066 485.643 69.8496C485.936 69.3926 486.082 68.877 486.082 68.3027ZM499.564 48V75H494.502V48H499.564ZM498.844 64.8223H497.455C497.467 63.498 497.643 62.2793 497.982 61.166C498.322 60.041 498.809 59.0684 499.441 58.248C500.074 57.416 500.83 56.7715 501.709 56.3145C502.6 55.8574 503.584 55.6289 504.662 55.6289C505.6 55.6289 506.449 55.7637 507.211 56.0332C507.984 56.291 508.646 56.7129 509.197 57.2988C509.76 57.873 510.193 58.6289 510.498 59.5664C510.803 60.5039 510.955 61.6406 510.955 62.9766V75H505.857V62.9414C505.857 62.0977 505.734 61.4355 505.488 60.9551C505.254 60.4629 504.908 60.1172 504.451 59.918C504.006 59.707 503.455 59.6016 502.799 59.6016C502.072 59.6016 501.451 59.7363 500.936 60.0059C500.432 60.2754 500.027 60.6504 499.723 61.1309C499.418 61.5996 499.195 62.1504 499.055 62.7832C498.914 63.416 498.844 64.0957 498.844 64.8223ZM525.07 70.7109V62.2383C525.07 61.6289 524.971 61.1074 524.771 60.6738C524.572 60.2285 524.262 59.8828 523.84 59.6367C523.43 59.3906 522.896 59.2676 522.24 59.2676C521.678 59.2676 521.191 59.3672 520.781 59.5664C520.371 59.7539 520.055 60.0293 519.832 60.3926C519.609 60.7441 519.498 61.1602 519.498 61.6406H514.436C514.436 60.832 514.623 60.0645 514.998 59.3379C515.373 58.6113 515.918 57.9727 516.633 57.4219C517.348 56.8594 518.197 56.4199 519.182 56.1035C520.178 55.7871 521.291 55.6289 522.521 55.6289C523.998 55.6289 525.311 55.875 526.459 56.3672C527.607 56.8594 528.51 57.5977 529.166 58.582C529.834 59.5664 530.168 60.7969 530.168 62.2734V70.4121C530.168 71.4551 530.232 72.3105 530.361 72.9785C530.49 73.6348 530.678 74.209 530.924 74.7012V75H525.809C525.562 74.4844 525.375 73.8398 525.246 73.0664C525.129 72.2812 525.07 71.4961 525.07 70.7109ZM525.738 63.416L525.773 66.2812H522.943C522.275 66.2812 521.695 66.3574 521.203 66.5098C520.711 66.6621 520.307 66.8789 519.99 67.1602C519.674 67.4297 519.439 67.7461 519.287 68.1094C519.146 68.4727 519.076 68.8711 519.076 69.3047C519.076 69.7383 519.176 70.1309 519.375 70.4824C519.574 70.8223 519.861 71.0918 520.236 71.291C520.611 71.4785 521.051 71.5723 521.555 71.5723C522.316 71.5723 522.979 71.4199 523.541 71.1152C524.104 70.8105 524.537 70.4355 524.842 69.9902C525.158 69.5449 525.322 69.123 525.334 68.7246L526.67 70.8691C526.482 71.3496 526.225 71.8477 525.896 72.3633C525.58 72.8789 525.176 73.3652 524.684 73.8223C524.191 74.2676 523.6 74.6367 522.908 74.9297C522.217 75.2109 521.396 75.3516 520.447 75.3516C519.24 75.3516 518.145 75.1113 517.16 74.6309C516.188 74.1387 515.414 73.4648 514.84 72.6094C514.277 71.7422 513.996 70.7578 513.996 69.6562C513.996 68.6602 514.184 67.7754 514.559 67.002C514.934 66.2285 515.484 65.5781 516.211 65.0508C516.949 64.5117 517.869 64.1074 518.971 63.8379C520.072 63.5566 521.35 63.416 522.803 63.416H525.738ZM544.336 70.7109V62.2383C544.336 61.6289 544.236 61.1074 544.037 60.6738C543.838 60.2285 543.527 59.8828 543.105 59.6367C542.695 59.3906 542.162 59.2676 541.506 59.2676C540.943 59.2676 540.457 59.3672 540.047 59.5664C539.637 59.7539 539.32 60.0293 539.098 60.3926C538.875 60.7441 538.764 61.1602 538.764 61.6406H533.701C533.701 60.832 533.889 60.0645 534.264 59.3379C534.639 58.6113 535.184 57.9727 535.898 57.4219C536.613 56.8594 537.463 56.4199 538.447 56.1035C539.443 55.7871 540.557 55.6289 541.787 55.6289C543.264 55.6289 544.576 55.875 545.725 56.3672C546.873 56.8594 547.775 57.5977 548.432 58.582C549.1 59.5664 549.434 60.7969 549.434 62.2734V70.4121C549.434 71.4551 549.498 72.3105 549.627 72.9785C549.756 73.6348 549.943 74.209 550.189 74.7012V75H545.074C544.828 74.4844 544.641 73.8398 544.512 73.0664C544.395 72.2812 544.336 71.4961 544.336 70.7109ZM545.004 63.416L545.039 66.2812H542.209C541.541 66.2812 540.961 66.3574 540.469 66.5098C539.977 66.6621 539.572 66.8789 539.256 67.1602C538.939 67.4297 538.705 67.7461 538.553 68.1094C538.412 68.4727 538.342 68.8711 538.342 69.3047C538.342 69.7383 538.441 70.1309 538.641 70.4824C538.84 70.8223 539.127 71.0918 539.502 71.291C539.877 71.4785 540.316 71.5723 540.82 71.5723C541.582 71.5723 542.244 71.4199 542.807 71.1152C543.369 70.8105 543.803 70.4355 544.107 69.9902C544.424 69.5449 544.588 69.123 544.6 68.7246L545.936 70.8691C545.748 71.3496 545.49 71.8477 545.162 72.3633C544.846 72.8789 544.441 73.3652 543.949 73.8223C543.457 74.2676 542.865 74.6367 542.174 74.9297C541.482 75.2109 540.662 75.3516 539.713 75.3516C538.506 75.3516 537.41 75.1113 536.426 74.6309C535.453 74.1387 534.68 73.4648 534.105 72.6094C533.543 71.7422 533.262 70.7578 533.262 69.6562C533.262 68.6602 533.449 67.7754 533.824 67.002C534.199 66.2285 534.75 65.5781 535.477 65.0508C536.215 64.5117 537.135 64.1074 538.236 63.8379C539.338 63.5566 540.615 63.416 542.068 63.416H545.004ZM553.336 48H558.398V70.6406L557.889 75H553.336V48ZM570.439 65.2969V65.666C570.439 67.084 570.287 68.3848 569.982 69.5684C569.689 70.752 569.232 71.7773 568.611 72.6445C567.99 73.5 567.217 74.168 566.291 74.6484C565.377 75.1172 564.299 75.3516 563.057 75.3516C561.896 75.3516 560.889 75.1172 560.033 74.6484C559.189 74.1797 558.48 73.5176 557.906 72.6621C557.332 71.8066 556.869 70.8047 556.518 69.6562C556.166 68.5078 555.902 67.2539 555.727 65.8945V65.0859C555.902 63.7266 556.166 62.4727 556.518 61.3242C556.869 60.1758 557.332 59.1738 557.906 58.3184C558.48 57.4629 559.189 56.8008 560.033 56.332C560.877 55.8633 561.873 55.6289 563.021 55.6289C564.275 55.6289 565.365 55.8691 566.291 56.3496C567.229 56.8184 568.002 57.4863 568.611 58.3535C569.232 59.209 569.689 60.2285 569.982 61.4121C570.287 62.584 570.439 63.8789 570.439 65.2969ZM565.377 65.666V65.2969C565.377 64.5234 565.318 63.7969 565.201 63.1172C565.096 62.4258 564.908 61.8223 564.639 61.3066C564.369 60.7793 564 60.3633 563.531 60.0586C563.074 59.7539 562.482 59.6016 561.756 59.6016C561.064 59.6016 560.479 59.7188 559.998 59.9531C559.518 60.1875 559.119 60.5156 558.803 60.9375C558.498 61.3594 558.27 61.8633 558.117 62.4492C557.965 63.0234 557.871 63.6562 557.836 64.3477V66.6504C557.871 67.5762 558.023 68.3965 558.293 69.1113C558.574 69.8145 558.996 70.3711 559.559 70.7812C560.133 71.1797 560.877 71.3789 561.791 71.3789C562.506 71.3789 563.098 71.2383 563.566 70.957C564.035 70.6758 564.398 70.2773 564.656 69.7617C564.926 69.2461 565.113 68.6426 565.219 67.9512C565.324 67.248 565.377 66.4863 565.377 65.666ZM583.852 70.7109V62.2383C583.852 61.6289 583.752 61.1074 583.553 60.6738C583.354 60.2285 583.043 59.8828 582.621 59.6367C582.211 59.3906 581.678 59.2676 581.021 59.2676C580.459 59.2676 579.973 59.3672 579.562 59.5664C579.152 59.7539 578.836 60.0293 578.613 60.3926C578.391 60.7441 578.279 61.1602 578.279 61.6406H573.217C573.217 60.832 573.404 60.0645 573.779 59.3379C574.154 58.6113 574.699 57.9727 575.414 57.4219C576.129 56.8594 576.979 56.4199 577.963 56.1035C578.959 55.7871 580.072 55.6289 581.303 55.6289C582.779 55.6289 584.092 55.875 585.24 56.3672C586.389 56.8594 587.291 57.5977 587.947 58.582C588.615 59.5664 588.949 60.7969 588.949 62.2734V70.4121C588.949 71.4551 589.014 72.3105 589.143 72.9785C589.271 73.6348 589.459 74.209 589.705 74.7012V75H584.59C584.344 74.4844 584.156 73.8398 584.027 73.0664C583.91 72.2812 583.852 71.4961 583.852 70.7109ZM584.52 63.416L584.555 66.2812H581.725C581.057 66.2812 580.477 66.3574 579.984 66.5098C579.492 66.6621 579.088 66.8789 578.771 67.1602C578.455 67.4297 578.221 67.7461 578.068 68.1094C577.928 68.4727 577.857 68.8711 577.857 69.3047C577.857 69.7383 577.957 70.1309 578.156 70.4824C578.355 70.8223 578.643 71.0918 579.018 71.291C579.393 71.4785 579.832 71.5723 580.336 71.5723C581.098 71.5723 581.76 71.4199 582.322 71.1152C582.885 70.8105 583.318 70.4355 583.623 69.9902C583.939 69.5449 584.104 69.123 584.115 68.7246L585.451 70.8691C585.264 71.3496 585.006 71.8477 584.678 72.3633C584.361 72.8789 583.957 73.3652 583.465 73.8223C582.973 74.2676 582.381 74.6367 581.689 74.9297C580.998 75.2109 580.178 75.3516 579.229 75.3516C578.021 75.3516 576.926 75.1113 575.941 74.6309C574.969 74.1387 574.195 73.4648 573.621 72.6094C573.059 71.7422 572.777 70.7578 572.777 69.6562C572.777 68.6602 572.965 67.7754 573.34 67.002C573.715 66.2285 574.266 65.5781 574.992 65.0508C575.73 64.5117 576.65 64.1074 577.752 63.8379C578.854 63.5566 580.131 63.416 581.584 63.416H584.52ZM597.809 60.041V75H592.746V55.9805H597.492L597.809 60.041ZM597.07 64.8223H595.699C595.699 63.416 595.881 62.1504 596.244 61.0254C596.607 59.8887 597.117 58.9219 597.773 58.125C598.43 57.3164 599.209 56.7012 600.111 56.2793C601.025 55.8457 602.045 55.6289 603.17 55.6289C604.061 55.6289 604.875 55.7578 605.613 56.0156C606.352 56.2734 606.984 56.6836 607.512 57.2461C608.051 57.8086 608.461 58.5527 608.742 59.4785C609.035 60.4043 609.182 61.5352 609.182 62.8711V75H604.084V62.8535C604.084 62.0098 603.967 61.3535 603.732 60.8848C603.498 60.416 603.152 60.0879 602.695 59.9004C602.25 59.7012 601.699 59.6016 601.043 59.6016C600.363 59.6016 599.771 59.7363 599.268 60.0059C598.775 60.2754 598.365 60.6504 598.037 61.1309C597.721 61.5996 597.48 62.1504 597.316 62.7832C597.152 63.416 597.07 64.0957 597.07 64.8223Z" fill="#888888"/>
<path d="M112.277 123.074H102.023L101.969 116.785H110.281C111.776 116.785 112.97 116.621 113.863 116.293C114.757 115.947 115.404 115.445 115.805 114.789C116.224 114.133 116.434 113.312 116.434 112.328C116.434 111.198 116.224 110.286 115.805 109.594C115.385 108.901 114.72 108.4 113.809 108.09C112.915 107.762 111.758 107.598 110.336 107.598H105.633V140H96.0352V100.188H110.336C112.797 100.188 114.993 100.415 116.926 100.871C118.858 101.309 120.499 101.983 121.848 102.895C123.215 103.806 124.254 104.954 124.965 106.34C125.676 107.707 126.031 109.32 126.031 111.18C126.031 112.802 125.685 114.324 124.992 115.746C124.299 117.168 123.142 118.326 121.52 119.219C119.915 120.094 117.719 120.549 114.93 120.586L112.277 123.074ZM111.895 140H99.6992L102.98 132.617H111.895C113.207 132.617 114.255 132.417 115.039 132.016C115.841 131.596 116.415 131.049 116.762 130.375C117.126 129.682 117.309 128.917 117.309 128.078C117.309 127.057 117.135 126.173 116.789 125.426C116.461 124.678 115.932 124.104 115.203 123.703C114.474 123.284 113.499 123.074 112.277 123.074H104.211L104.266 116.785H113.918L116.16 119.301C118.822 119.191 120.927 119.565 122.477 120.422C124.044 121.279 125.165 122.409 125.84 123.812C126.514 125.216 126.852 126.684 126.852 128.215C126.852 130.822 126.286 133 125.156 134.75C124.044 136.5 122.376 137.812 120.152 138.688C117.928 139.562 115.176 140 111.895 140ZM147.113 132.562V120.367C147.113 119.529 146.995 118.809 146.758 118.207C146.521 117.605 146.147 117.141 145.637 116.812C145.126 116.466 144.443 116.293 143.586 116.293C142.893 116.293 142.301 116.411 141.809 116.648C141.316 116.885 140.943 117.241 140.688 117.715C140.432 118.189 140.305 118.79 140.305 119.52H131.09C131.09 118.152 131.391 116.885 131.992 115.719C132.612 114.534 133.487 113.504 134.617 112.629C135.766 111.754 137.133 111.079 138.719 110.605C140.323 110.113 142.109 109.867 144.078 109.867C146.43 109.867 148.526 110.259 150.367 111.043C152.227 111.827 153.694 113.003 154.77 114.57C155.845 116.12 156.383 118.07 156.383 120.422V132.535C156.383 134.467 156.492 135.935 156.711 136.938C156.93 137.922 157.24 138.788 157.641 139.535V140H148.398C147.961 139.089 147.633 137.977 147.414 136.664C147.214 135.333 147.113 133.966 147.113 132.562ZM148.234 121.926L148.289 126.848H144.215C143.358 126.848 142.629 126.966 142.027 127.203C141.444 127.44 140.97 127.768 140.605 128.188C140.259 128.589 140.004 129.044 139.84 129.555C139.694 130.065 139.621 130.603 139.621 131.168C139.621 131.715 139.749 132.207 140.004 132.645C140.277 133.064 140.642 133.392 141.098 133.629C141.553 133.866 142.064 133.984 142.629 133.984C143.65 133.984 144.516 133.793 145.227 133.41C145.956 133.009 146.512 132.526 146.895 131.961C147.277 131.396 147.469 130.867 147.469 130.375L149.492 134.148C149.128 134.878 148.708 135.616 148.234 136.363C147.779 137.111 147.204 137.803 146.512 138.441C145.837 139.061 145.008 139.572 144.023 139.973C143.039 140.355 141.845 140.547 140.441 140.547C138.618 140.547 136.941 140.173 135.41 139.426C133.897 138.678 132.685 137.639 131.773 136.309C130.862 134.96 130.406 133.41 130.406 131.66C130.406 130.129 130.68 128.762 131.227 127.559C131.792 126.355 132.639 125.335 133.77 124.496C134.9 123.658 136.34 123.02 138.09 122.582C139.84 122.145 141.9 121.926 144.27 121.926H148.234ZM170.793 117.742V140H161.578V110.414H170.191L170.793 117.742ZM179.543 110.195L179.379 118.754C179.014 118.717 178.522 118.672 177.902 118.617C177.283 118.562 176.763 118.535 176.344 118.535C175.268 118.535 174.339 118.663 173.555 118.918C172.789 119.155 172.151 119.52 171.641 120.012C171.148 120.486 170.784 121.087 170.547 121.816C170.328 122.546 170.228 123.393 170.246 124.359L168.578 123.266C168.578 121.279 168.77 119.474 169.152 117.852C169.553 116.211 170.118 114.798 170.848 113.613C171.577 112.41 172.461 111.49 173.5 110.852C174.539 110.195 175.706 109.867 177 109.867C177.456 109.867 177.902 109.895 178.34 109.949C178.796 110.004 179.197 110.086 179.543 110.195ZM182.797 98H192.012V132.727L191.055 140H182.797V98ZM210.168 124.879V125.453C210.168 127.695 209.94 129.737 209.484 131.578C209.029 133.419 208.327 135.014 207.379 136.363C206.431 137.694 205.237 138.724 203.797 139.453C202.357 140.182 200.652 140.547 198.684 140.547C196.897 140.547 195.366 140.164 194.09 139.398C192.814 138.615 191.747 137.539 190.891 136.172C190.034 134.786 189.341 133.191 188.812 131.387C188.284 129.564 187.865 127.613 187.555 125.535V124.852C187.865 122.792 188.284 120.859 188.812 119.055C189.341 117.232 190.034 115.637 190.891 114.27C191.747 112.884 192.805 111.809 194.062 111.043C195.339 110.259 196.861 109.867 198.629 109.867C200.616 109.867 202.329 110.241 203.77 110.988C205.228 111.736 206.431 112.784 207.379 114.133C208.327 115.482 209.029 117.068 209.484 118.891C209.94 120.714 210.168 122.71 210.168 124.879ZM200.953 125.453V124.879C200.953 123.803 200.889 122.792 200.762 121.844C200.634 120.896 200.406 120.057 200.078 119.328C199.75 118.599 199.285 118.025 198.684 117.605C198.082 117.186 197.298 116.977 196.332 116.977C195.348 116.977 194.518 117.141 193.844 117.469C193.188 117.797 192.659 118.271 192.258 118.891C191.875 119.492 191.602 120.24 191.438 121.133C191.273 122.008 191.201 123.001 191.219 124.113V126.273C191.182 127.786 191.319 129.081 191.629 130.156C191.939 131.232 192.477 132.052 193.242 132.617C194.008 133.182 195.056 133.465 196.387 133.465C197.371 133.465 198.164 133.273 198.766 132.891C199.385 132.508 199.85 131.961 200.16 131.25C200.47 130.539 200.68 129.691 200.789 128.707C200.898 127.723 200.953 126.638 200.953 125.453ZM228.598 140.547C226.191 140.547 224.04 140.173 222.145 139.426C220.249 138.66 218.645 137.612 217.332 136.281C216.038 134.951 215.044 133.419 214.352 131.688C213.677 129.956 213.34 128.124 213.34 126.191V125.152C213.34 122.983 213.641 120.978 214.242 119.137C214.844 117.277 215.737 115.655 216.922 114.27C218.107 112.884 219.592 111.809 221.379 111.043C223.165 110.259 225.243 109.867 227.613 109.867C229.71 109.867 231.587 110.204 233.246 110.879C234.905 111.553 236.309 112.52 237.457 113.777C238.624 115.035 239.508 116.557 240.109 118.344C240.729 120.13 241.039 122.135 241.039 124.359V128.105H216.867V122.336H232.043V121.625C232.061 120.641 231.888 119.802 231.523 119.109C231.177 118.417 230.667 117.888 229.992 117.523C229.318 117.159 228.497 116.977 227.531 116.977C226.529 116.977 225.699 117.195 225.043 117.633C224.405 118.07 223.904 118.672 223.539 119.438C223.193 120.185 222.947 121.051 222.801 122.035C222.655 123.02 222.582 124.059 222.582 125.152V126.191C222.582 127.285 222.728 128.279 223.02 129.172C223.329 130.065 223.767 130.831 224.332 131.469C224.915 132.089 225.608 132.572 226.41 132.918C227.23 133.264 228.16 133.438 229.199 133.438C230.457 133.438 231.697 133.201 232.918 132.727C234.139 132.253 235.188 131.469 236.062 130.375L240.246 135.352C239.645 136.208 238.788 137.038 237.676 137.84C236.582 138.642 235.27 139.298 233.738 139.809C232.207 140.301 230.493 140.547 228.598 140.547ZM254.082 117.742V140H244.867V110.414H253.48L254.082 117.742ZM262.832 110.195L262.668 118.754C262.303 118.717 261.811 118.672 261.191 118.617C260.572 118.562 260.052 118.535 259.633 118.535C258.557 118.535 257.628 118.663 256.844 118.918C256.078 119.155 255.44 119.52 254.93 120.012C254.438 120.486 254.073 121.087 253.836 121.816C253.617 122.546 253.517 123.393 253.535 124.359L251.867 123.266C251.867 121.279 252.059 119.474 252.441 117.852C252.842 116.211 253.408 114.798 254.137 113.613C254.866 112.41 255.75 111.49 256.789 110.852C257.828 110.195 258.995 109.867 260.289 109.867C260.745 109.867 261.191 109.895 261.629 109.949C262.085 110.004 262.486 110.086 262.832 110.195ZM296.629 123.074H286.375L286.32 116.785H294.633C296.128 116.785 297.322 116.621 298.215 116.293C299.108 115.947 299.755 115.445 300.156 114.789C300.576 114.133 300.785 113.312 300.785 112.328C300.785 111.198 300.576 110.286 300.156 109.594C299.737 108.901 299.072 108.4 298.16 108.09C297.267 107.762 296.109 107.598 294.688 107.598H289.984V140H280.387V100.188H294.688C297.148 100.188 299.345 100.415 301.277 100.871C303.21 101.309 304.85 101.983 306.199 102.895C307.566 103.806 308.605 104.954 309.316 106.34C310.027 107.707 310.383 109.32 310.383 111.18C310.383 112.802 310.036 114.324 309.344 115.746C308.651 117.168 307.493 118.326 305.871 119.219C304.267 120.094 302.07 120.549 299.281 120.586L296.629 123.074ZM296.246 140H284.051L287.332 132.617H296.246C297.559 132.617 298.607 132.417 299.391 132.016C300.193 131.596 300.767 131.049 301.113 130.375C301.478 129.682 301.66 128.917 301.66 128.078C301.66 127.057 301.487 126.173 301.141 125.426C300.812 124.678 300.284 124.104 299.555 123.703C298.826 123.284 297.85 123.074 296.629 123.074H288.562L288.617 116.785H298.27L300.512 119.301C303.173 119.191 305.279 119.565 306.828 120.422C308.396 121.279 309.517 122.409 310.191 123.812C310.866 125.216 311.203 126.684 311.203 128.215C311.203 130.822 310.638 133 309.508 134.75C308.396 136.5 306.728 137.812 304.504 138.688C302.28 139.562 299.527 140 296.246 140ZM325.176 136.527L332.832 110.414H342.73L330.836 144.402C330.581 145.15 330.243 145.952 329.824 146.809C329.405 147.684 328.831 148.513 328.102 149.297C327.372 150.081 326.434 150.719 325.285 151.211C324.155 151.703 322.751 151.949 321.074 151.949C320.181 151.949 319.525 151.904 319.105 151.812C318.704 151.74 318.085 151.603 317.246 151.402V144.812C317.483 144.812 317.684 144.812 317.848 144.812C318.03 144.812 318.23 144.812 318.449 144.812C319.434 144.812 320.217 144.712 320.801 144.512C321.402 144.311 321.858 144.02 322.168 143.637C322.496 143.254 322.751 142.789 322.934 142.242L325.176 136.527ZM323.234 110.414L329.059 131.113L330.07 140.875H323.891L313.363 110.414H323.234ZM360.723 110.414V116.812H342.895V110.414H360.723ZM346.641 103.059H355.855V130.348C355.855 131.132 355.947 131.742 356.129 132.18C356.311 132.599 356.621 132.9 357.059 133.082C357.514 133.246 358.116 133.328 358.863 133.328C359.392 133.328 359.829 133.319 360.176 133.301C360.522 133.264 360.85 133.219 361.16 133.164V139.754C360.376 140.009 359.556 140.201 358.699 140.328C357.842 140.474 356.931 140.547 355.965 140.547C353.996 140.547 352.31 140.237 350.906 139.617C349.521 138.997 348.464 138.022 347.734 136.691C347.005 135.361 346.641 133.629 346.641 131.496V103.059ZM378.715 140.547C376.309 140.547 374.158 140.173 372.262 139.426C370.366 138.66 368.762 137.612 367.449 136.281C366.155 134.951 365.161 133.419 364.469 131.688C363.794 129.956 363.457 128.124 363.457 126.191V125.152C363.457 122.983 363.758 120.978 364.359 119.137C364.961 117.277 365.854 115.655 367.039 114.27C368.224 112.884 369.71 111.809 371.496 111.043C373.283 110.259 375.361 109.867 377.73 109.867C379.827 109.867 381.704 110.204 383.363 110.879C385.022 111.553 386.426 112.52 387.574 113.777C388.741 115.035 389.625 116.557 390.227 118.344C390.846 120.13 391.156 122.135 391.156 124.359V128.105H366.984V122.336H382.16V121.625C382.178 120.641 382.005 119.802 381.641 119.109C381.294 118.417 380.784 117.888 380.109 117.523C379.435 117.159 378.615 116.977 377.648 116.977C376.646 116.977 375.816 117.195 375.16 117.633C374.522 118.07 374.021 118.672 373.656 119.438C373.31 120.185 373.064 121.051 372.918 122.035C372.772 123.02 372.699 124.059 372.699 125.152V126.191C372.699 127.285 372.845 128.279 373.137 129.172C373.447 130.065 373.884 130.831 374.449 131.469C375.033 132.089 375.725 132.572 376.527 132.918C377.348 133.264 378.277 133.438 379.316 133.438C380.574 133.438 381.814 133.201 383.035 132.727C384.257 132.253 385.305 131.469 386.18 130.375L390.363 135.352C389.762 136.208 388.905 137.038 387.793 137.84C386.699 138.642 385.387 139.298 383.855 139.809C382.324 140.301 380.611 140.547 378.715 140.547Z" fill="black"/>
<rect x="93" y="178" width="917" height="77" rx="10" fill="#D3D3D3"/>
<rect x="111" y="196" width="102" height="41" rx="3" fill="#424242"/>
<rect x="111" y="196" width="102" height="41" rx="3" stroke="#424242" stroke-width="4"/>
<path d="M144.932 210.203V223H141.855L137.329 215.037V223H134.244V210.203H137.329L141.855 218.166V210.203H144.932ZM151.348 223.176C150.574 223.176 149.883 223.056 149.273 222.815C148.664 222.569 148.148 222.232 147.727 221.805C147.311 221.377 146.991 220.885 146.769 220.328C146.552 219.771 146.443 219.183 146.443 218.562V218.228C146.443 217.53 146.54 216.886 146.733 216.294C146.927 215.696 147.214 215.175 147.595 214.729C147.976 214.284 148.453 213.938 149.027 213.692C149.602 213.44 150.27 213.314 151.031 213.314C151.705 213.314 152.309 213.423 152.842 213.64C153.375 213.856 153.826 214.167 154.195 214.571C154.57 214.976 154.854 215.465 155.048 216.039C155.247 216.613 155.347 217.258 155.347 217.973V219.177H147.577V217.322H152.455V217.094C152.461 216.777 152.405 216.508 152.288 216.285C152.177 216.062 152.013 215.893 151.796 215.775C151.579 215.658 151.315 215.6 151.005 215.6C150.683 215.6 150.416 215.67 150.205 215.811C150 215.951 149.839 216.145 149.722 216.391C149.61 216.631 149.531 216.909 149.484 217.226C149.438 217.542 149.414 217.876 149.414 218.228V218.562C149.414 218.913 149.461 219.232 149.555 219.52C149.654 219.807 149.795 220.053 149.977 220.258C150.164 220.457 150.387 220.612 150.645 220.724C150.908 220.835 151.207 220.891 151.541 220.891C151.945 220.891 152.344 220.814 152.736 220.662C153.129 220.51 153.466 220.258 153.747 219.906L155.092 221.506C154.898 221.781 154.623 222.048 154.266 222.306C153.914 222.563 153.492 222.774 153 222.938C152.508 223.097 151.957 223.176 151.348 223.176ZM159.064 213.49L160.4 216.109L161.78 213.49H164.856L162.36 218.122L164.988 223H161.886L160.4 220.188L158.924 223H155.821L158.449 218.122L155.962 213.49H159.064ZM170.842 213.49V215.547H165.111V213.49H170.842ZM166.315 211.126H169.277V219.897C169.277 220.149 169.307 220.346 169.365 220.486C169.424 220.621 169.523 220.718 169.664 220.776C169.811 220.829 170.004 220.855 170.244 220.855C170.414 220.855 170.555 220.853 170.666 220.847C170.777 220.835 170.883 220.82 170.982 220.803V222.921C170.73 223.003 170.467 223.064 170.191 223.105C169.916 223.152 169.623 223.176 169.312 223.176C168.68 223.176 168.138 223.076 167.687 222.877C167.241 222.678 166.901 222.364 166.667 221.937C166.433 221.509 166.315 220.952 166.315 220.267V211.126ZM172.213 221.611C172.213 221.189 172.365 220.838 172.67 220.557C172.975 220.27 173.367 220.126 173.848 220.126C174.334 220.126 174.727 220.27 175.025 220.557C175.33 220.838 175.482 221.189 175.482 221.611C175.482 222.033 175.33 222.388 175.025 222.675C174.727 222.956 174.334 223.097 173.848 223.097C173.367 223.097 172.975 222.956 172.67 222.675C172.365 222.388 172.213 222.033 172.213 221.611ZM177.688 213.49H180.659V223.308C180.659 224.069 180.513 224.711 180.22 225.232C179.927 225.76 179.508 226.158 178.963 226.428C178.418 226.703 177.768 226.841 177.012 226.841C176.76 226.841 176.528 226.829 176.317 226.806C176.101 226.788 175.863 226.75 175.605 226.691V224.45C175.758 224.474 175.898 224.491 176.027 224.503C176.156 224.521 176.297 224.529 176.449 224.529C176.719 224.529 176.944 224.485 177.126 224.397C177.308 224.31 177.445 224.175 177.539 223.993C177.639 223.812 177.688 223.583 177.688 223.308V213.49ZM177.469 211.038C177.469 210.616 177.621 210.271 177.926 210.001C178.23 209.731 178.626 209.597 179.112 209.597C179.599 209.597 179.994 209.731 180.299 210.001C180.604 210.271 180.756 210.616 180.756 211.038C180.756 211.46 180.604 211.806 180.299 212.075C179.994 212.345 179.599 212.479 179.112 212.479C178.626 212.479 178.23 212.345 177.926 212.075C177.621 211.806 177.469 211.46 177.469 211.038ZM187.321 220.328C187.321 220.164 187.266 220.023 187.154 219.906C187.049 219.783 186.861 219.672 186.592 219.572C186.322 219.467 185.944 219.361 185.458 219.256C184.995 219.156 184.559 219.024 184.148 218.86C183.744 218.696 183.39 218.497 183.085 218.263C182.78 218.028 182.54 217.75 182.364 217.428C182.194 217.105 182.109 216.736 182.109 216.32C182.109 215.916 182.194 215.535 182.364 215.178C182.54 214.814 182.795 214.495 183.129 214.22C183.469 213.938 183.882 213.719 184.368 213.561C184.854 213.396 185.408 213.314 186.029 213.314C186.885 213.314 187.623 213.446 188.244 213.71C188.865 213.968 189.343 214.331 189.677 214.8C190.017 215.263 190.187 215.799 190.187 216.408H187.225C187.225 216.168 187.184 215.963 187.102 215.793C187.025 215.623 186.899 215.494 186.724 215.406C186.548 215.312 186.313 215.266 186.021 215.266C185.815 215.266 185.628 215.304 185.458 215.38C185.294 215.456 185.162 215.562 185.062 215.696C184.963 215.831 184.913 215.989 184.913 216.171C184.913 216.3 184.942 216.417 185.001 216.522C185.065 216.622 185.162 216.716 185.291 216.804C185.42 216.886 185.584 216.962 185.783 217.032C185.982 217.097 186.223 217.155 186.504 217.208C187.143 217.325 187.74 217.492 188.297 217.709C188.854 217.926 189.305 218.233 189.65 218.632C190.002 219.03 190.178 219.566 190.178 220.24C190.178 220.662 190.081 221.052 189.888 221.409C189.694 221.761 189.416 222.071 189.053 222.341C188.689 222.604 188.253 222.81 187.743 222.956C187.233 223.103 186.659 223.176 186.021 223.176C185.112 223.176 184.345 223.015 183.718 222.692C183.091 222.364 182.616 221.954 182.294 221.462C181.978 220.964 181.819 220.46 181.819 219.95H184.579C184.591 220.243 184.661 220.483 184.79 220.671C184.925 220.858 185.104 220.996 185.326 221.084C185.549 221.172 185.807 221.216 186.1 221.216C186.369 221.216 186.592 221.178 186.768 221.102C186.949 221.025 187.087 220.923 187.181 220.794C187.274 220.659 187.321 220.504 187.321 220.328Z" fill="white"/>
<rect x="233" y="196" width="131" height="41" rx="3" fill="#424242"/>
<rect x="233" y="196" width="131" height="41" rx="3" stroke="#424242" stroke-width="4"/>
<path d="M262.359 210.203V223H259.274V210.203H262.359ZM266.209 210.203V212.585H255.513V210.203H266.209ZM269.575 221.884L272.036 213.49H275.218L271.395 224.415C271.312 224.655 271.204 224.913 271.069 225.188C270.935 225.47 270.75 225.736 270.516 225.988C270.281 226.24 269.979 226.445 269.61 226.604C269.247 226.762 268.796 226.841 268.257 226.841C267.97 226.841 267.759 226.826 267.624 226.797C267.495 226.773 267.296 226.729 267.026 226.665V224.547C267.103 224.547 267.167 224.547 267.22 224.547C267.278 224.547 267.343 224.547 267.413 224.547C267.729 224.547 267.981 224.515 268.169 224.45C268.362 224.386 268.509 224.292 268.608 224.169C268.714 224.046 268.796 223.896 268.854 223.721L269.575 221.884ZM268.951 213.49L270.823 220.144L271.148 223.281H269.162L265.778 213.49H268.951ZM278.979 215.318V226.656H276.018V213.49H278.777L278.979 215.318ZM284.815 218.131V218.315C284.815 219.007 284.736 219.648 284.578 220.24C284.42 220.832 284.186 221.348 283.875 221.787C283.564 222.227 283.178 222.569 282.715 222.815C282.258 223.056 281.728 223.176 281.124 223.176C280.556 223.176 280.066 223.05 279.656 222.798C279.246 222.546 278.903 222.197 278.628 221.752C278.353 221.307 278.13 220.797 277.96 220.223C277.79 219.648 277.655 219.042 277.556 218.403V218.166C277.655 217.48 277.79 216.845 277.96 216.259C278.13 215.667 278.353 215.151 278.628 214.712C278.903 214.272 279.243 213.93 279.647 213.684C280.058 213.438 280.547 213.314 281.115 213.314C281.719 213.314 282.249 213.429 282.706 213.657C283.169 213.886 283.556 214.214 283.866 214.642C284.183 215.063 284.42 215.57 284.578 216.162C284.736 216.754 284.815 217.41 284.815 218.131ZM281.854 218.315V218.131C281.854 217.762 281.827 217.425 281.774 217.12C281.722 216.81 281.637 216.54 281.52 216.312C281.408 216.083 281.259 215.907 281.071 215.784C280.884 215.661 280.652 215.6 280.377 215.6C280.061 215.6 279.794 215.649 279.577 215.749C279.366 215.843 279.196 215.989 279.067 216.188C278.944 216.382 278.856 216.625 278.804 216.918C278.757 217.205 278.736 217.542 278.742 217.929V218.649C278.73 219.095 278.774 219.487 278.874 219.827C278.974 220.161 279.146 220.422 279.393 220.609C279.639 220.797 279.973 220.891 280.395 220.891C280.676 220.891 280.91 220.826 281.098 220.697C281.285 220.562 281.435 220.378 281.546 220.144C281.657 219.903 281.736 219.628 281.783 219.317C281.83 219.007 281.854 218.673 281.854 218.315ZM290.739 223.176C289.966 223.176 289.274 223.056 288.665 222.815C288.056 222.569 287.54 222.232 287.118 221.805C286.702 221.377 286.383 220.885 286.16 220.328C285.943 219.771 285.835 219.183 285.835 218.562V218.228C285.835 217.53 285.932 216.886 286.125 216.294C286.318 215.696 286.605 215.175 286.986 214.729C287.367 214.284 287.845 213.938 288.419 213.692C288.993 213.44 289.661 213.314 290.423 213.314C291.097 213.314 291.7 213.423 292.233 213.64C292.767 213.856 293.218 214.167 293.587 214.571C293.962 214.976 294.246 215.465 294.439 216.039C294.639 216.613 294.738 217.258 294.738 217.973V219.177H286.969V217.322H291.847V217.094C291.853 216.777 291.797 216.508 291.68 216.285C291.568 216.062 291.404 215.893 291.188 215.775C290.971 215.658 290.707 215.6 290.396 215.6C290.074 215.6 289.808 215.67 289.597 215.811C289.392 215.951 289.23 216.145 289.113 216.391C289.002 216.631 288.923 216.909 288.876 217.226C288.829 217.542 288.806 217.876 288.806 218.228V218.562C288.806 218.913 288.853 219.232 288.946 219.52C289.046 219.807 289.187 220.053 289.368 220.258C289.556 220.457 289.778 220.612 290.036 220.724C290.3 220.835 290.599 220.891 290.933 220.891C291.337 220.891 291.735 220.814 292.128 220.662C292.521 220.51 292.857 220.258 293.139 219.906L294.483 221.506C294.29 221.781 294.015 222.048 293.657 222.306C293.306 222.563 292.884 222.774 292.392 222.938C291.899 223.097 291.349 223.176 290.739 223.176ZM300.926 220.328C300.926 220.164 300.87 220.023 300.759 219.906C300.653 219.783 300.466 219.672 300.196 219.572C299.927 219.467 299.549 219.361 299.062 219.256C298.6 219.156 298.163 219.024 297.753 218.86C297.349 218.696 296.994 218.497 296.689 218.263C296.385 218.028 296.145 217.75 295.969 217.428C295.799 217.105 295.714 216.736 295.714 216.32C295.714 215.916 295.799 215.535 295.969 215.178C296.145 214.814 296.399 214.495 296.733 214.22C297.073 213.938 297.486 213.719 297.973 213.561C298.459 213.396 299.013 213.314 299.634 213.314C300.489 213.314 301.228 213.446 301.849 213.71C302.47 213.968 302.947 214.331 303.281 214.8C303.621 215.263 303.791 215.799 303.791 216.408H300.829C300.829 216.168 300.788 215.963 300.706 215.793C300.63 215.623 300.504 215.494 300.328 215.406C300.152 215.312 299.918 215.266 299.625 215.266C299.42 215.266 299.232 215.304 299.062 215.38C298.898 215.456 298.767 215.562 298.667 215.696C298.567 215.831 298.518 215.989 298.518 216.171C298.518 216.3 298.547 216.417 298.605 216.522C298.67 216.622 298.767 216.716 298.896 216.804C299.024 216.886 299.188 216.962 299.388 217.032C299.587 217.097 299.827 217.155 300.108 217.208C300.747 217.325 301.345 217.492 301.901 217.709C302.458 217.926 302.909 218.233 303.255 218.632C303.606 219.03 303.782 219.566 303.782 220.24C303.782 220.662 303.686 221.052 303.492 221.409C303.299 221.761 303.021 222.071 302.657 222.341C302.294 222.604 301.857 222.81 301.348 222.956C300.838 223.103 300.264 223.176 299.625 223.176C298.717 223.176 297.949 223.015 297.322 222.692C296.695 222.364 296.221 221.954 295.898 221.462C295.582 220.964 295.424 220.46 295.424 219.95H298.184C298.195 220.243 298.266 220.483 298.395 220.671C298.529 220.858 298.708 220.996 298.931 221.084C299.153 221.172 299.411 221.216 299.704 221.216C299.974 221.216 300.196 221.178 300.372 221.102C300.554 221.025 300.691 220.923 300.785 220.794C300.879 220.659 300.926 220.504 300.926 220.328ZM309.188 220.891C309.463 220.891 309.697 220.841 309.891 220.741C310.09 220.636 310.239 220.489 310.339 220.302C310.444 220.108 310.494 219.877 310.488 219.607H313.274C313.28 220.322 313.104 220.949 312.747 221.488C312.396 222.021 311.915 222.438 311.306 222.736C310.702 223.029 310.02 223.176 309.258 223.176C308.514 223.176 307.863 223.056 307.307 222.815C306.75 222.569 306.284 222.229 305.909 221.796C305.54 221.356 305.262 220.844 305.074 220.258C304.893 219.672 304.802 219.036 304.802 218.351V218.148C304.802 217.463 304.893 216.827 305.074 216.241C305.262 215.649 305.54 215.137 305.909 214.703C306.284 214.264 306.747 213.924 307.298 213.684C307.854 213.438 308.502 213.314 309.24 213.314C310.031 213.314 310.729 213.464 311.332 213.763C311.941 214.062 312.419 214.495 312.765 215.063C313.11 215.632 313.28 216.32 313.274 217.129H310.488C310.494 216.842 310.45 216.584 310.356 216.355C310.263 216.127 310.116 215.945 309.917 215.811C309.724 215.67 309.475 215.6 309.17 215.6C308.865 215.6 308.619 215.667 308.432 215.802C308.244 215.937 308.101 216.124 308.001 216.364C307.907 216.599 307.843 216.868 307.808 217.173C307.778 217.478 307.764 217.803 307.764 218.148V218.351C307.764 218.702 307.778 219.033 307.808 219.344C307.843 219.648 307.91 219.918 308.01 220.152C308.109 220.381 308.253 220.562 308.44 220.697C308.628 220.826 308.877 220.891 309.188 220.891ZM317.528 215.846V223H314.566V213.49H317.335L317.528 215.846ZM320.341 213.42L320.288 216.171C320.171 216.159 320.013 216.145 319.813 216.127C319.614 216.109 319.447 216.101 319.312 216.101C318.967 216.101 318.668 216.142 318.416 216.224C318.17 216.3 317.965 216.417 317.801 216.575C317.643 216.728 317.525 216.921 317.449 217.155C317.379 217.39 317.347 217.662 317.353 217.973L316.816 217.621C316.816 216.982 316.878 216.402 317.001 215.881C317.13 215.354 317.312 214.899 317.546 214.519C317.78 214.132 318.064 213.836 318.398 213.631C318.732 213.42 319.107 213.314 319.523 213.314C319.67 213.314 319.813 213.323 319.954 213.341C320.101 213.358 320.229 213.385 320.341 213.42ZM324.489 213.49V223H321.519V213.49H324.489ZM321.343 211.038C321.343 210.616 321.495 210.271 321.8 210.001C322.104 209.731 322.5 209.597 322.986 209.597C323.473 209.597 323.868 209.731 324.173 210.001C324.478 210.271 324.63 210.616 324.63 211.038C324.63 211.46 324.478 211.806 324.173 212.075C323.868 212.345 323.473 212.479 322.986 212.479C322.5 212.479 322.104 212.345 321.8 212.075C321.495 211.806 321.343 211.46 321.343 211.038ZM329.306 215.318V226.656H326.344V213.49H329.104L329.306 215.318ZM335.142 218.131V218.315C335.142 219.007 335.062 219.648 334.904 220.24C334.746 220.832 334.512 221.348 334.201 221.787C333.891 222.227 333.504 222.569 333.041 222.815C332.584 223.056 332.054 223.176 331.45 223.176C330.882 223.176 330.393 223.05 329.982 222.798C329.572 222.546 329.229 222.197 328.954 221.752C328.679 221.307 328.456 220.797 328.286 220.223C328.116 219.648 327.981 219.042 327.882 218.403V218.166C327.981 217.48 328.116 216.845 328.286 216.259C328.456 215.667 328.679 215.151 328.954 214.712C329.229 214.272 329.569 213.93 329.974 213.684C330.384 213.438 330.873 213.314 331.441 213.314C332.045 213.314 332.575 213.429 333.032 213.657C333.495 213.886 333.882 214.214 334.192 214.642C334.509 215.063 334.746 215.57 334.904 216.162C335.062 216.754 335.142 217.41 335.142 218.131ZM332.18 218.315V218.131C332.18 217.762 332.153 217.425 332.101 217.12C332.048 216.81 331.963 216.54 331.846 216.312C331.734 216.083 331.585 215.907 331.397 215.784C331.21 215.661 330.979 215.6 330.703 215.6C330.387 215.6 330.12 215.649 329.903 215.749C329.692 215.843 329.522 215.989 329.394 216.188C329.271 216.382 329.183 216.625 329.13 216.918C329.083 217.205 329.062 217.542 329.068 217.929V218.649C329.057 219.095 329.101 219.487 329.2 219.827C329.3 220.161 329.473 220.422 329.719 220.609C329.965 220.797 330.299 220.891 330.721 220.891C331.002 220.891 331.236 220.826 331.424 220.697C331.611 220.562 331.761 220.378 331.872 220.144C331.983 219.903 332.062 219.628 332.109 219.317C332.156 219.007 332.18 218.673 332.18 218.315ZM341.47 213.49V215.547H335.739V213.49H341.47ZM336.943 211.126H339.905V219.897C339.905 220.149 339.935 220.346 339.993 220.486C340.052 220.621 340.151 220.718 340.292 220.776C340.438 220.829 340.632 220.855 340.872 220.855C341.042 220.855 341.183 220.853 341.294 220.847C341.405 220.835 341.511 220.82 341.61 220.803V222.921C341.358 223.003 341.095 223.064 340.819 223.105C340.544 223.152 340.251 223.176 339.94 223.176C339.308 223.176 338.766 223.076 338.314 222.877C337.869 222.678 337.529 222.364 337.295 221.937C337.061 221.509 336.943 220.952 336.943 220.267V211.126Z" fill="white"/>
<rect x="384" y="196" width="104" height="41" rx="3" fill="#424242"/>
<rect x="384" y="196" width="104" height="41" rx="3" stroke="#424242" stroke-width="4"/>
<path d="M415.812 220.627V223H409.343V220.627H415.812ZM410.441 210.203V223H407.356V210.203H410.441ZM421.911 220.609V216.689C421.911 216.42 421.873 216.188 421.797 215.995C421.721 215.802 421.601 215.652 421.437 215.547C421.272 215.436 421.053 215.38 420.777 215.38C420.555 215.38 420.364 215.418 420.206 215.494C420.048 215.57 419.928 215.685 419.846 215.837C419.764 215.989 419.723 216.183 419.723 216.417H416.761C416.761 215.978 416.857 215.57 417.051 215.195C417.25 214.814 417.531 214.483 417.895 214.202C418.264 213.921 418.703 213.704 419.213 213.552C419.729 213.394 420.303 213.314 420.936 213.314C421.691 213.314 422.365 213.44 422.957 213.692C423.555 213.944 424.026 214.322 424.372 214.826C424.718 215.324 424.891 215.951 424.891 216.707V220.601C424.891 221.222 424.926 221.693 424.996 222.016C425.066 222.332 425.166 222.61 425.295 222.851V223H422.324C422.184 222.707 422.078 222.35 422.008 221.928C421.943 221.5 421.911 221.061 421.911 220.609ZM422.271 217.19L422.289 218.772H420.979C420.704 218.772 420.47 218.811 420.276 218.887C420.089 218.963 419.937 219.068 419.819 219.203C419.708 219.332 419.626 219.479 419.573 219.643C419.526 219.807 419.503 219.979 419.503 220.161C419.503 220.337 419.544 220.495 419.626 220.636C419.714 220.771 419.831 220.876 419.978 220.952C420.124 221.028 420.288 221.066 420.47 221.066C420.798 221.066 421.076 221.005 421.305 220.882C421.539 220.753 421.718 220.598 421.841 220.416C421.964 220.234 422.025 220.064 422.025 219.906L422.676 221.119C422.559 221.354 422.424 221.591 422.271 221.831C422.125 222.071 421.94 222.294 421.718 222.499C421.501 222.698 421.234 222.862 420.918 222.991C420.602 223.114 420.218 223.176 419.767 223.176C419.181 223.176 418.642 223.056 418.149 222.815C417.663 222.575 417.273 222.241 416.98 221.813C416.688 221.38 416.541 220.882 416.541 220.319C416.541 219.827 416.629 219.388 416.805 219.001C416.986 218.614 417.259 218.286 417.622 218.017C417.985 217.747 418.448 217.542 419.011 217.401C419.573 217.261 420.235 217.19 420.997 217.19H422.271ZM429.522 215.846V223H426.561V213.49H429.329L429.522 215.846ZM432.335 213.42L432.282 216.171C432.165 216.159 432.007 216.145 431.808 216.127C431.608 216.109 431.441 216.101 431.307 216.101C430.961 216.101 430.662 216.142 430.41 216.224C430.164 216.3 429.959 216.417 429.795 216.575C429.637 216.728 429.52 216.921 429.443 217.155C429.373 217.39 429.341 217.662 429.347 217.973L428.811 217.621C428.811 216.982 428.872 216.402 428.995 215.881C429.124 215.354 429.306 214.899 429.54 214.519C429.774 214.132 430.059 213.836 430.393 213.631C430.727 213.42 431.102 213.314 431.518 213.314C431.664 213.314 431.808 213.323 431.948 213.341C432.095 213.358 432.224 213.385 432.335 213.42ZM438.03 220.609V216.689C438.03 216.42 437.992 216.188 437.916 215.995C437.84 215.802 437.72 215.652 437.556 215.547C437.392 215.436 437.172 215.38 436.896 215.38C436.674 215.38 436.483 215.418 436.325 215.494C436.167 215.57 436.047 215.685 435.965 215.837C435.883 215.989 435.842 216.183 435.842 216.417H432.88C432.88 215.978 432.977 215.57 433.17 215.195C433.369 214.814 433.65 214.483 434.014 214.202C434.383 213.921 434.822 213.704 435.332 213.552C435.848 213.394 436.422 213.314 437.055 213.314C437.811 213.314 438.484 213.44 439.076 213.692C439.674 213.944 440.146 214.322 440.491 214.826C440.837 215.324 441.01 215.951 441.01 216.707V220.601C441.01 221.222 441.045 221.693 441.115 222.016C441.186 222.332 441.285 222.61 441.414 222.851V223H438.443C438.303 222.707 438.197 222.35 438.127 221.928C438.062 221.5 438.03 221.061 438.03 220.609ZM438.391 217.19L438.408 218.772H437.099C436.823 218.772 436.589 218.811 436.396 218.887C436.208 218.963 436.056 219.068 435.938 219.203C435.827 219.332 435.745 219.479 435.692 219.643C435.646 219.807 435.622 219.979 435.622 220.161C435.622 220.337 435.663 220.495 435.745 220.636C435.833 220.771 435.95 220.876 436.097 220.952C436.243 221.028 436.407 221.066 436.589 221.066C436.917 221.066 437.195 221.005 437.424 220.882C437.658 220.753 437.837 220.598 437.96 220.416C438.083 220.234 438.145 220.064 438.145 219.906L438.795 221.119C438.678 221.354 438.543 221.591 438.391 221.831C438.244 222.071 438.06 222.294 437.837 222.499C437.62 222.698 437.354 222.862 437.037 222.991C436.721 223.114 436.337 223.176 435.886 223.176C435.3 223.176 434.761 223.056 434.269 222.815C433.782 222.575 433.393 222.241 433.1 221.813C432.807 221.38 432.66 220.882 432.66 220.319C432.66 219.827 432.748 219.388 432.924 219.001C433.105 218.614 433.378 218.286 433.741 218.017C434.104 217.747 434.567 217.542 435.13 217.401C435.692 217.261 436.354 217.19 437.116 217.19H438.391ZM445.94 220.97L447.812 213.49H450.933L447.821 223H445.976L445.94 220.97ZM444.833 213.49L446.679 220.97L446.661 223H444.807L441.704 213.49H444.833ZM456.294 223.176C455.521 223.176 454.829 223.056 454.22 222.815C453.61 222.569 453.095 222.232 452.673 221.805C452.257 221.377 451.938 220.885 451.715 220.328C451.498 219.771 451.39 219.183 451.39 218.562V218.228C451.39 217.53 451.486 216.886 451.68 216.294C451.873 215.696 452.16 215.175 452.541 214.729C452.922 214.284 453.399 213.938 453.974 213.692C454.548 213.44 455.216 213.314 455.978 213.314C456.651 213.314 457.255 213.423 457.788 213.64C458.321 213.856 458.772 214.167 459.142 214.571C459.517 214.976 459.801 215.465 459.994 216.039C460.193 216.613 460.293 217.258 460.293 217.973V219.177H452.523V217.322H457.401V217.094C457.407 216.777 457.352 216.508 457.234 216.285C457.123 216.062 456.959 215.893 456.742 215.775C456.525 215.658 456.262 215.6 455.951 215.6C455.629 215.6 455.362 215.67 455.151 215.811C454.946 215.951 454.785 216.145 454.668 216.391C454.557 216.631 454.478 216.909 454.431 217.226C454.384 217.542 454.36 217.876 454.36 218.228V218.562C454.36 218.913 454.407 219.232 454.501 219.52C454.601 219.807 454.741 220.053 454.923 220.258C455.11 220.457 455.333 220.612 455.591 220.724C455.854 220.835 456.153 220.891 456.487 220.891C456.892 220.891 457.29 220.814 457.683 220.662C458.075 220.51 458.412 220.258 458.693 219.906L460.038 221.506C459.845 221.781 459.569 222.048 459.212 222.306C458.86 222.563 458.438 222.774 457.946 222.938C457.454 223.097 456.903 223.176 456.294 223.176ZM464.626 209.5V223H461.655V209.5H464.626Z" fill="white"/>
<rect x="508" y="196" width="86" height="41" rx="3" fill="#424242"/>
<rect x="508" y="196" width="86" height="41" rx="3" stroke="#424242" stroke-width="4"/>
<path d="M537.491 210.203V223H534.406V210.203H537.491ZM541.341 210.203V212.585H530.645V210.203H541.341ZM545.955 220.609V216.689C545.955 216.42 545.917 216.188 545.841 215.995C545.765 215.802 545.645 215.652 545.48 215.547C545.316 215.436 545.097 215.38 544.821 215.38C544.599 215.38 544.408 215.418 544.25 215.494C544.092 215.57 543.972 215.685 543.89 215.837C543.808 215.989 543.767 216.183 543.767 216.417H540.805C540.805 215.978 540.901 215.57 541.095 215.195C541.294 214.814 541.575 214.483 541.938 214.202C542.308 213.921 542.747 213.704 543.257 213.552C543.772 213.394 544.347 213.314 544.979 213.314C545.735 213.314 546.409 213.44 547.001 213.692C547.599 213.944 548.07 214.322 548.416 214.826C548.762 215.324 548.935 215.951 548.935 216.707V220.601C548.935 221.222 548.97 221.693 549.04 222.016C549.11 222.332 549.21 222.61 549.339 222.851V223H546.368C546.228 222.707 546.122 222.35 546.052 221.928C545.987 221.5 545.955 221.061 545.955 220.609ZM546.315 217.19L546.333 218.772H545.023C544.748 218.772 544.514 218.811 544.32 218.887C544.133 218.963 543.98 219.068 543.863 219.203C543.752 219.332 543.67 219.479 543.617 219.643C543.57 219.807 543.547 219.979 543.547 220.161C543.547 220.337 543.588 220.495 543.67 220.636C543.758 220.771 543.875 220.876 544.021 220.952C544.168 221.028 544.332 221.066 544.514 221.066C544.842 221.066 545.12 221.005 545.349 220.882C545.583 220.753 545.762 220.598 545.885 220.416C546.008 220.234 546.069 220.064 546.069 219.906L546.72 221.119C546.603 221.354 546.468 221.591 546.315 221.831C546.169 222.071 545.984 222.294 545.762 222.499C545.545 222.698 545.278 222.862 544.962 222.991C544.646 223.114 544.262 223.176 543.811 223.176C543.225 223.176 542.686 223.056 542.193 222.815C541.707 222.575 541.317 222.241 541.024 221.813C540.731 221.38 540.585 220.882 540.585 220.319C540.585 219.827 540.673 219.388 540.849 219.001C541.03 218.614 541.303 218.286 541.666 218.017C542.029 217.747 542.492 217.542 543.055 217.401C543.617 217.261 544.279 217.19 545.041 217.19H546.315ZM556.133 220.688V213.49H559.104V223H556.326L556.133 220.688ZM556.414 218.755L557.188 218.737C557.188 219.376 557.111 219.968 556.959 220.513C556.807 221.052 556.581 221.521 556.282 221.919C555.989 222.317 555.626 222.628 555.192 222.851C554.765 223.067 554.27 223.176 553.707 223.176C553.238 223.176 552.808 223.111 552.415 222.982C552.028 222.848 551.694 222.64 551.413 222.358C551.132 222.071 550.912 221.705 550.754 221.26C550.602 220.809 550.525 220.27 550.525 219.643V213.49H553.487V219.66C553.487 219.871 553.514 220.053 553.566 220.205C553.619 220.357 553.695 220.486 553.795 220.592C553.895 220.691 554.018 220.768 554.164 220.82C554.316 220.867 554.489 220.891 554.683 220.891C555.128 220.891 555.477 220.797 555.729 220.609C555.98 220.422 556.156 220.167 556.256 219.845C556.361 219.522 556.414 219.159 556.414 218.755ZM563.727 215.846V223H560.765V213.49H563.533L563.727 215.846ZM566.539 213.42L566.486 216.171C566.369 216.159 566.211 216.145 566.012 216.127C565.812 216.109 565.646 216.101 565.511 216.101C565.165 216.101 564.866 216.142 564.614 216.224C564.368 216.3 564.163 216.417 563.999 216.575C563.841 216.728 563.724 216.921 563.647 217.155C563.577 217.39 563.545 217.662 563.551 217.973L563.015 217.621C563.015 216.982 563.076 216.402 563.199 215.881C563.328 215.354 563.51 214.899 563.744 214.519C563.979 214.132 564.263 213.836 564.597 213.631C564.931 213.42 565.306 213.314 565.722 213.314C565.868 213.314 566.012 213.323 566.152 213.341C566.299 213.358 566.428 213.385 566.539 213.42ZM570.688 213.49V223H567.717V213.49H570.688ZM567.541 211.038C567.541 210.616 567.693 210.271 567.998 210.001C568.303 209.731 568.698 209.597 569.185 209.597C569.671 209.597 570.066 209.731 570.371 210.001C570.676 210.271 570.828 210.616 570.828 211.038C570.828 211.46 570.676 211.806 570.371 212.075C570.066 212.345 569.671 212.479 569.185 212.479C568.698 212.479 568.303 212.345 567.998 212.075C567.693 211.806 567.541 211.46 567.541 211.038Z" fill="white"/>
<rect x="614" y="196" width="90" height="41" rx="3" fill="#424242"/>
<rect x="614" y="196" width="90" height="41" rx="3" stroke="#424242" stroke-width="4"/>
<path d="M637.142 210.203H642.178C643.162 210.203 644.018 210.35 644.744 210.643C645.471 210.936 646.03 211.369 646.423 211.943C646.821 212.518 647.021 213.227 647.021 214.07C647.021 214.803 646.906 215.415 646.678 215.907C646.449 216.399 646.13 216.807 645.72 217.129C645.315 217.445 644.844 217.706 644.305 217.911L643.294 218.482H639.066L639.049 216.101H642.178C642.57 216.101 642.896 216.03 643.153 215.89C643.411 215.749 643.604 215.55 643.733 215.292C643.868 215.028 643.936 214.715 643.936 214.352C643.936 213.982 643.868 213.666 643.733 213.402C643.599 213.139 643.399 212.937 643.136 212.796C642.878 212.655 642.559 212.585 642.178 212.585H640.227V223H637.142V210.203ZM644.146 223L641.316 217.34L644.586 217.322L647.451 222.868V223H644.146ZM653.683 220.609V216.689C653.683 216.42 653.645 216.188 653.568 215.995C653.492 215.802 653.372 215.652 653.208 215.547C653.044 215.436 652.824 215.38 652.549 215.38C652.326 215.38 652.136 215.418 651.978 215.494C651.819 215.57 651.699 215.685 651.617 215.837C651.535 215.989 651.494 216.183 651.494 216.417H648.532C648.532 215.978 648.629 215.57 648.822 215.195C649.021 214.814 649.303 214.483 649.666 214.202C650.035 213.921 650.475 213.704 650.984 213.552C651.5 213.394 652.074 213.314 652.707 213.314C653.463 213.314 654.137 213.44 654.729 213.692C655.326 213.944 655.798 214.322 656.144 214.826C656.489 215.324 656.662 215.951 656.662 216.707V220.601C656.662 221.222 656.697 221.693 656.768 222.016C656.838 222.332 656.938 222.61 657.066 222.851V223H654.096C653.955 222.707 653.85 222.35 653.779 221.928C653.715 221.5 653.683 221.061 653.683 220.609ZM654.043 217.19L654.061 218.772H652.751C652.476 218.772 652.241 218.811 652.048 218.887C651.86 218.963 651.708 219.068 651.591 219.203C651.479 219.332 651.397 219.479 651.345 219.643C651.298 219.807 651.274 219.979 651.274 220.161C651.274 220.337 651.315 220.495 651.397 220.636C651.485 220.771 651.603 220.876 651.749 220.952C651.896 221.028 652.06 221.066 652.241 221.066C652.569 221.066 652.848 221.005 653.076 220.882C653.311 220.753 653.489 220.598 653.612 220.416C653.735 220.234 653.797 220.064 653.797 219.906L654.447 221.119C654.33 221.354 654.195 221.591 654.043 221.831C653.896 222.071 653.712 222.294 653.489 222.499C653.272 222.698 653.006 222.862 652.689 222.991C652.373 223.114 651.989 223.176 651.538 223.176C650.952 223.176 650.413 223.056 649.921 222.815C649.435 222.575 649.045 222.241 648.752 221.813C648.459 221.38 648.312 220.882 648.312 220.319C648.312 219.827 648.4 219.388 648.576 219.001C648.758 218.614 649.03 218.286 649.394 218.017C649.757 217.747 650.22 217.542 650.782 217.401C651.345 217.261 652.007 217.19 652.769 217.19H654.043ZM663.772 220.82V209.5H666.752V223H664.08L663.772 220.82ZM657.937 218.359V218.175C657.937 217.454 658.016 216.798 658.174 216.206C658.332 215.608 658.566 215.096 658.877 214.668C659.188 214.234 659.574 213.9 660.037 213.666C660.5 213.432 661.033 213.314 661.637 213.314C662.176 213.314 662.647 213.44 663.052 213.692C663.456 213.938 663.802 214.284 664.089 214.729C664.376 215.175 664.61 215.696 664.792 216.294C664.974 216.886 665.111 217.524 665.205 218.21V218.43C665.111 219.074 664.974 219.684 664.792 220.258C664.61 220.826 664.376 221.33 664.089 221.77C663.802 222.209 663.453 222.555 663.043 222.807C662.639 223.053 662.164 223.176 661.619 223.176C661.016 223.176 660.482 223.056 660.02 222.815C659.562 222.575 659.179 222.238 658.868 221.805C658.563 221.371 658.332 220.861 658.174 220.275C658.016 219.689 657.937 219.051 657.937 218.359ZM660.898 218.175V218.359C660.898 218.717 660.922 219.048 660.969 219.353C661.016 219.657 661.095 219.927 661.206 220.161C661.323 220.39 661.476 220.568 661.663 220.697C661.856 220.826 662.094 220.891 662.375 220.891C662.756 220.891 663.069 220.8 663.315 220.618C663.567 220.437 663.752 220.179 663.869 219.845C663.992 219.511 664.045 219.118 664.027 218.667V217.973C664.039 217.586 664.013 217.246 663.948 216.953C663.884 216.654 663.781 216.405 663.641 216.206C663.506 216.007 663.333 215.857 663.122 215.758C662.917 215.652 662.674 215.6 662.393 215.6C662.117 215.6 661.883 215.664 661.689 215.793C661.502 215.922 661.35 216.104 661.232 216.338C661.115 216.566 661.03 216.839 660.978 217.155C660.925 217.466 660.898 217.806 660.898 218.175ZM671.56 213.49V223H668.589V213.49H671.56ZM668.413 211.038C668.413 210.616 668.565 210.271 668.87 210.001C669.175 209.731 669.57 209.597 670.057 209.597C670.543 209.597 670.938 209.731 671.243 210.001C671.548 210.271 671.7 210.616 671.7 211.038C671.7 211.46 671.548 211.806 671.243 212.075C670.938 212.345 670.543 212.479 670.057 212.479C669.57 212.479 669.175 212.345 668.87 212.075C668.565 211.806 668.413 211.46 668.413 211.038ZM675.901 213.49L677.237 216.109L678.617 213.49H681.693L679.197 218.122L681.825 223H678.723L677.237 220.188L675.761 223H672.658L675.286 218.122L672.799 213.49H675.901Z" fill="white"/>
<path d="M1066 0H1348C1356.28 0 1363 6.71573 1363 15V282C1363 290.284 1356.28 297 1348 297H1066V0Z" fill="white"/>
<rect x="1104" y="38" width="221" height="221" rx="110.5" fill="#B48C60"/>
<path d="M1136.86 91.2978C1128.05 101.442 1124.34 108.086 1126.89 106.045L1137.73 95.7168C1138.5 94.9854 1139.71 94.9806 1140.48 95.706L1193.43 145.343C1194.25 146.116 1194.27 147.417 1193.47 148.216L1183.1 158.591C1182.24 159.448 1183.36 160.805 1184.37 160.127L1193.33 154.073C1196.69 151.811 1201.13 152.061 1204.21 154.685L1276.61 216.44C1277.43 217.134 1278.65 217.017 1279.32 216.183C1279.94 215.405 1279.86 214.277 1279.12 213.604L1145.25 90.8871C1142.81 88.6558 1139.02 88.8042 1136.86 91.2978Z" fill="#382B23"/>
<path d="M1141.01 94.4513L1141.81 95.2982L1128.88 107.466C1128.65 107.686 1128.28 107.675 1128.06 107.441V107.441C1127.84 107.207 1127.85 106.839 1128.09 106.619L1141.01 94.4513Z" fill="#382B23"/>
<path d="M1143.25 96.5128L1144.05 97.3598L1131.13 109.527C1130.89 109.748 1130.52 109.737 1130.3 109.503V109.503C1130.08 109.269 1130.09 108.901 1130.33 108.681L1143.25 96.5128Z" fill="#382B23"/>
<path d="M1145.5 98.5742L1146.29 99.4212L1133.37 111.589C1133.14 111.809 1132.77 111.798 1132.55 111.564V111.564C1132.33 111.33 1132.34 110.962 1132.57 110.742L1145.5 98.5742Z" fill="#382B23"/>
<path d="M1147.74 100.636L1148.54 101.483L1135.61 113.65C1135.38 113.871 1135.01 113.859 1134.79 113.626V113.626C1134.57 113.392 1134.58 113.024 1134.81 112.803L1147.74 100.636Z" fill="#382B23"/>
<path d="M1149.98 102.696L1150.78 103.543L1137.85 115.711C1137.62 115.931 1137.25 115.92 1137.03 115.686V115.686C1136.81 115.452 1136.82 115.084 1137.06 114.864L1149.98 102.696Z" fill="#382B23"/>
<path d="M1152.22 104.757L1153.02 105.604L1140.1 117.772C1139.86 117.992 1139.49 117.981 1139.27 117.747V117.747C1139.05 117.513 1139.07 117.145 1139.3 116.925L1152.22 104.757Z" fill="#382B23"/>
<path d="M1154.47 106.819L1155.26 107.666L1142.34 119.833C1142.11 120.054 1141.74 120.043 1141.52 119.809V119.809C1141.3 119.575 1141.31 119.207 1141.54 118.987L1154.47 106.819Z" fill="#382B23"/>
<path d="M1156.71 108.88L1157.51 109.727L1144.58 121.895C1144.35 122.115 1143.98 122.104 1143.76 121.87V121.87C1143.54 121.636 1143.55 121.268 1143.78 121.048L1156.71 108.88Z" fill="#382B23"/>
<path d="M1158.95 110.942L1159.75 111.789L1146.82 123.956C1146.59 124.177 1146.22 124.165 1146 123.932V123.932C1145.78 123.698 1145.79 123.33 1146.03 123.109L1158.95 110.942Z" fill="#382B23"/>
<path d="M1161.19 113.002L1161.99 113.849L1149.07 126.016C1148.83 126.237 1148.46 126.225 1148.24 125.992V125.992C1148.02 125.758 1148.04 125.39 1148.27 125.17L1161.19 113.002Z" fill="#382B23"/>
<path d="M1163.44 115.063L1164.24 115.91L1151.31 128.078C1151.08 128.298 1150.71 128.287 1150.49 128.053V128.053C1150.27 127.819 1150.28 127.451 1150.51 127.231L1163.44 115.063Z" fill="#382B23"/>
<path d="M1165.68 117.125L1166.48 117.972L1153.55 130.139C1153.32 130.36 1152.95 130.348 1152.73 130.115V130.115C1152.51 129.881 1152.52 129.513 1152.75 129.292L1165.68 117.125Z" fill="#382B23"/>
<path d="M1167.92 119.186L1168.72 120.033L1155.79 132.201C1155.56 132.421 1155.19 132.41 1154.97 132.176V132.176C1154.75 131.942 1154.76 131.574 1155 131.354L1167.92 119.186Z" fill="#382B23"/>
<path d="M1170.17 121.248L1170.96 122.095L1158.04 134.262C1157.8 134.482 1157.43 134.471 1157.21 134.237V134.237C1156.99 134.004 1157.01 133.636 1157.24 133.415L1170.17 121.248Z" fill="#382B23"/>
<path d="M1172.41 123.308L1173.21 124.155L1160.28 136.322C1160.05 136.543 1159.68 136.532 1159.46 136.298V136.298C1159.24 136.064 1159.25 135.696 1159.48 135.476L1172.41 123.308Z" fill="#382B23"/>
<path d="M1174.65 125.369L1175.45 126.216L1162.52 138.384C1162.29 138.604 1161.92 138.593 1161.7 138.359V138.359C1161.48 138.125 1161.49 137.757 1161.73 137.537L1174.65 125.369Z" fill="#382B23"/>
<path d="M1176.89 127.431L1177.69 128.278L1164.76 140.445C1164.53 140.666 1164.16 140.654 1163.94 140.421V140.421C1163.72 140.187 1163.73 139.819 1163.97 139.598L1176.89 127.431Z" fill="#382B23"/>
<path d="M1179.14 129.492L1179.93 130.339L1167.01 142.507C1166.77 142.727 1166.4 142.716 1166.18 142.482V142.482C1165.96 142.248 1165.98 141.88 1166.21 141.66L1179.14 129.492Z" fill="#382B23"/>
<path d="M1181.38 131.554L1182.18 132.401L1169.25 144.568C1169.02 144.788 1168.65 144.777 1168.43 144.543V144.543C1168.21 144.31 1168.22 143.942 1168.45 143.721L1181.38 131.554Z" fill="#382B23"/>
<path d="M1183.62 133.614L1184.42 134.461L1171.49 146.628C1171.26 146.849 1170.89 146.837 1170.67 146.604V146.604C1170.45 146.37 1170.46 146.002 1170.7 145.782L1183.62 133.614Z" fill="#382B23"/>
<path d="M1185.86 135.675L1186.66 136.522L1173.73 148.69C1173.5 148.91 1173.13 148.899 1172.91 148.665V148.665C1172.69 148.431 1172.7 148.063 1172.94 147.843L1185.86 135.675Z" fill="#382B23"/>
<path d="M1188.11 137.737L1188.9 138.584L1175.98 150.751C1175.74 150.972 1175.38 150.96 1175.15 150.727V150.727C1174.93 150.493 1174.95 150.125 1175.18 149.904L1188.11 137.737Z" fill="#382B23"/>
<path d="M1190.35 139.798L1191.15 140.645L1178.22 152.813C1177.99 153.033 1177.62 153.022 1177.4 152.788V152.788C1177.18 152.554 1177.19 152.186 1177.42 151.966L1190.35 139.798Z" fill="#382B23"/>
<path d="M1192.59 141.86L1193.39 142.707L1180.46 154.874C1180.23 155.094 1179.86 155.083 1179.64 154.849V154.849C1179.42 154.616 1179.43 154.248 1179.67 154.027L1192.59 141.86Z" fill="#382B23"/>
<path d="M1194.83 143.92L1195.63 144.767L1182.71 156.934C1182.47 157.155 1182.1 157.144 1181.88 156.91V156.91C1181.66 156.676 1181.67 156.308 1181.91 156.088L1194.83 143.92Z" fill="#382B23"/>
<path d="M1291.77 91.2978C1300.57 101.442 1304.29 108.086 1301.74 106.045L1290.89 95.7168C1290.12 94.9854 1288.92 94.9806 1288.15 95.706L1235.2 145.343C1234.38 146.116 1234.35 147.417 1235.15 148.216L1245.53 158.591C1246.38 159.448 1245.27 160.805 1244.26 160.127L1235.29 154.073C1231.94 151.811 1227.49 152.061 1224.42 154.685L1152.01 216.44C1151.2 217.134 1149.97 217.017 1149.31 216.183C1148.68 215.405 1148.77 214.277 1149.51 213.604L1283.38 90.8871C1285.81 88.6558 1289.6 88.8042 1291.77 91.2978Z" fill="#382B23"/>
<path d="M1287.61 94.4513L1286.82 95.2982L1299.74 107.466C1299.98 107.686 1300.34 107.675 1300.56 107.441V107.441C1300.78 107.207 1300.77 106.839 1300.54 106.619L1287.61 94.4513Z" fill="#382B23"/>
<path d="M1285.37 96.5128L1284.57 97.3598L1297.5 109.527C1297.73 109.748 1298.1 109.737 1298.32 109.503V109.503C1298.54 109.269 1298.53 108.901 1298.3 108.681L1285.37 96.5128Z" fill="#382B23"/>
<path d="M1283.13 98.5742L1282.33 99.4212L1295.26 111.589C1295.49 111.809 1295.86 111.798 1296.08 111.564V111.564C1296.3 111.33 1296.29 110.962 1296.05 110.742L1283.13 98.5742Z" fill="#382B23"/>
<path d="M1280.89 100.636L1280.09 101.483L1293.02 113.65C1293.25 113.871 1293.62 113.859 1293.84 113.626V113.626C1294.06 113.392 1294.05 113.024 1293.81 112.803L1280.89 100.636Z" fill="#382B23"/>
<path d="M1278.64 102.696L1277.85 103.543L1290.77 115.711C1291.01 115.931 1291.37 115.92 1291.59 115.686V115.686C1291.81 115.452 1291.8 115.084 1291.57 114.864L1278.64 102.696Z" fill="#382B23"/>
<path d="M1276.4 104.757L1275.6 105.604L1288.53 117.772C1288.76 117.992 1289.13 117.981 1289.35 117.747V117.747C1289.57 117.513 1289.56 117.145 1289.33 116.925L1276.4 104.757Z" fill="#382B23"/>
<path d="M1274.16 106.819L1273.36 107.666L1286.29 119.833C1286.52 120.054 1286.89 120.043 1287.11 119.809V119.809C1287.33 119.575 1287.32 119.207 1287.08 118.987L1274.16 106.819Z" fill="#382B23"/>
<path d="M1271.92 108.88L1271.12 109.727L1284.04 121.895C1284.28 122.115 1284.65 122.104 1284.87 121.87V121.87C1285.09 121.636 1285.08 121.268 1284.84 121.048L1271.92 108.88Z" fill="#382B23"/>
<path d="M1269.67 110.942L1268.88 111.789L1281.8 123.956C1282.04 124.177 1282.4 124.165 1282.62 123.932V123.932C1282.84 123.698 1282.83 123.33 1282.6 123.109L1269.67 110.942Z" fill="#382B23"/>
<path d="M1267.43 113.002L1266.63 113.849L1279.56 126.016C1279.79 126.237 1280.16 126.225 1280.38 125.992V125.992C1280.6 125.758 1280.59 125.39 1280.36 125.17L1267.43 113.002Z" fill="#382B23"/>
<path d="M1265.19 115.063L1264.39 115.91L1277.32 128.078C1277.55 128.298 1277.92 128.287 1278.14 128.053V128.053C1278.36 127.819 1278.35 127.451 1278.11 127.231L1265.19 115.063Z" fill="#382B23"/>
<path d="M1262.95 117.125L1262.15 117.972L1275.07 130.139C1275.31 130.36 1275.68 130.348 1275.9 130.115V130.115C1276.12 129.881 1276.11 129.513 1275.87 129.292L1262.95 117.125Z" fill="#382B23"/>
<path d="M1260.7 119.186L1259.91 120.033L1272.83 132.201C1273.07 132.421 1273.43 132.41 1273.65 132.176V132.176C1273.87 131.942 1273.86 131.574 1273.63 131.354L1260.7 119.186Z" fill="#382B23"/>
<path d="M1258.46 121.248L1257.66 122.095L1270.59 134.262C1270.82 134.482 1271.19 134.471 1271.41 134.237V134.237C1271.63 134.004 1271.62 133.636 1271.39 133.415L1258.46 121.248Z" fill="#382B23"/>
<path d="M1256.22 123.308L1255.42 124.155L1268.35 136.322C1268.58 136.543 1268.95 136.532 1269.17 136.298V136.298C1269.39 136.064 1269.38 135.696 1269.14 135.476L1256.22 123.308Z" fill="#382B23"/>
<path d="M1253.98 125.369L1253.18 126.216L1266.1 138.384C1266.34 138.604 1266.71 138.593 1266.93 138.359V138.359C1267.15 138.125 1267.14 137.757 1266.9 137.537L1253.98 125.369Z" fill="#382B23"/>
<path d="M1251.73 127.431L1250.94 128.278L1263.86 140.445C1264.09 140.666 1264.46 140.654 1264.68 140.421V140.421C1264.9 140.187 1264.89 139.819 1264.66 139.598L1251.73 127.431Z" fill="#382B23"/>
<path d="M1249.49 129.492L1248.69 130.339L1261.62 142.507C1261.85 142.727 1262.22 142.716 1262.44 142.482V142.482C1262.66 142.248 1262.65 141.88 1262.42 141.66L1249.49 129.492Z" fill="#382B23"/>
<path d="M1247.25 131.554L1246.45 132.401L1259.38 144.568C1259.61 144.788 1259.98 144.777 1260.2 144.543V144.543C1260.42 144.31 1260.41 143.942 1260.17 143.721L1247.25 131.554Z" fill="#382B23"/>
<path d="M1245.01 133.614L1244.21 134.461L1257.13 146.628C1257.37 146.849 1257.74 146.837 1257.96 146.604V146.604C1258.18 146.37 1258.17 146.002 1257.93 145.782L1245.01 133.614Z" fill="#382B23"/>
<path d="M1242.76 135.675L1241.97 136.522L1254.89 148.69C1255.12 148.91 1255.49 148.899 1255.71 148.665V148.665C1255.93 148.431 1255.92 148.063 1255.69 147.843L1242.76 135.675Z" fill="#382B23"/>
<path d="M1240.52 137.737L1239.72 138.584L1252.65 150.751C1252.88 150.972 1253.25 150.96 1253.47 150.727V150.727C1253.69 150.493 1253.68 150.125 1253.45 149.904L1240.52 137.737Z" fill="#382B23"/>
<path d="M1238.28 139.798L1237.48 140.645L1250.41 152.813C1250.64 153.033 1251.01 153.022 1251.23 152.788V152.788C1251.45 152.554 1251.44 152.186 1251.2 151.966L1238.28 139.798Z" fill="#382B23"/>
<path d="M1236.03 141.86L1235.24 142.707L1248.16 154.874C1248.4 155.094 1248.76 155.083 1248.98 154.849V154.849C1249.2 154.616 1249.19 154.248 1248.96 154.027L1236.03 141.86Z" fill="#382B23"/>
<path d="M1233.79 143.92L1232.99 144.767L1245.92 156.934C1246.15 157.155 1246.52 157.144 1246.74 156.91V156.91C1246.96 156.676 1246.95 156.308 1246.72 156.088L1233.79 143.92Z" fill="#382B23"/>
<path d="M1227.12 69.7264C1230.79 65.765 1224.73 116.686 1220.73 143.421C1219.96 148.54 1219.97 153.767 1221.03 158.833C1226.63 185.615 1234.61 198.143 1238.17 201.163L1230.03 204.653C1228.72 188.11 1219.84 172.994 1214.74 166.353C1214.26 165.727 1213.31 165.792 1212.9 166.465C1202.41 183.604 1199.39 198.986 1199.2 204.653L1191.64 201.163C1202.57 189.815 1206.41 167.489 1207.19 154.848C1207.34 152.385 1207.17 149.934 1206.84 147.49C1202.7 117.374 1196.08 64.8141 1199.2 69.7264C1202.46 74.8443 1210.64 111.057 1214.32 126.953C1216.65 111.25 1224.21 72.8662 1227.12 69.7264Z" fill="url(#paint0_linear_3_61)"/>
<path fill-rule="evenodd" clip-rule="evenodd" d="M1243.1 227.316C1249.24 225.159 1252.17 217.608 1249.66 210.45C1247.14 203.291 1240.13 199.236 1233.99 201.392C1227.86 203.549 1224.92 211.1 1227.44 218.258C1229.95 225.417 1236.97 229.472 1243.1 227.316ZM1242.34 225.155C1247.46 223.358 1249.9 217.066 1247.8 211.1C1245.71 205.135 1239.86 201.756 1234.75 203.553C1229.64 205.35 1227.19 211.642 1229.29 217.608C1231.38 223.573 1237.23 226.952 1242.34 225.155Z" fill="url(#paint1_linear_3_61)"/>
<path fill-rule="evenodd" clip-rule="evenodd" d="M1185.9 227.316C1179.76 225.159 1176.83 217.608 1179.34 210.45C1181.86 203.291 1188.87 199.236 1195.01 201.392C1201.14 203.549 1204.08 211.1 1201.56 218.258C1199.05 225.417 1192.03 229.472 1185.9 227.316ZM1186.66 225.155C1181.54 223.358 1179.1 217.066 1181.19 211.1C1183.29 205.135 1189.14 201.756 1194.25 203.553C1199.36 205.35 1201.81 211.642 1199.71 217.608C1197.61 223.573 1191.77 226.952 1186.66 225.155Z" fill="url(#paint2_linear_3_61)"/>
<circle cx="1214.32" cy="137.422" r="2.90789" fill="black"/>
<defs>
<linearGradient id="paint0_linear_3_61" x1="1214.5" y1="69.405" x2="1214.5" y2="227.894" gradientUnits="userSpaceOnUse">
<stop stop-color="#9C918B"/>
<stop offset="0.333333" stop-color="white"/>
</linearGradient>
<linearGradient id="paint1_linear_3_61" x1="1214.5" y1="69.405" x2="1214.5" y2="227.894" gradientUnits="userSpaceOnUse">
<stop stop-color="#9C918B"/>
<stop offset="0.333333" stop-color="white"/>
</linearGradient>
<linearGradient id="paint2_linear_3_61" x1="1214.5" y1="69.405" x2="1214.5" y2="227.894" gradientUnits="userSpaceOnUse">
<stop stop-color="#9C918B"/>
<stop offset="0.333333" stop-color="white"/>
</linearGradient>
</defs>
</svg>
