<svg width="1363" height="163" viewBox="0 0 1363 163" fill="none" xmlns="http://www.w3.org/2000/svg">
<path d="M0 15C0 6.71573 6.71573 0 15 0H37V163H15C6.71573 163 0 156.284 0 148V15Z" fill="#424242"/>
<rect width="1097" height="163" transform="translate(37)" fill="#F0F0F0"/>
<path d="M101.906 53.9219L94.3945 51.2383V48.0859L104.602 52.375V54.6367L101.906 53.9219ZM94.3945 56.1719L101.918 53.4297L104.602 52.7852V55.0352L94.3945 59.3242V56.1719ZM119.578 53.5117H115.195L115.172 51.0977H118.852C119.5 51.0977 120.031 51.0156 120.445 50.8516C120.859 50.6797 121.168 50.4336 121.371 50.1133C121.582 49.7852 121.688 49.3867 121.688 48.918C121.688 48.3867 121.586 47.957 121.383 47.6289C121.188 47.3008 120.879 47.0625 120.457 46.9141C120.043 46.7656 119.508 46.6914 118.852 46.6914H116.414V61H112.898V43.9375H118.852C119.844 43.9375 120.73 44.0312 121.512 44.2188C122.301 44.4062 122.969 44.6914 123.516 45.0742C124.062 45.457 124.48 45.9414 124.77 46.5273C125.059 47.1055 125.203 47.793 125.203 48.5898C125.203 49.293 125.043 49.9414 124.723 50.5352C124.41 51.1289 123.914 51.6133 123.234 51.9883C122.562 52.3633 121.684 52.5703 120.598 52.6094L119.578 53.5117ZM119.426 61H114.234L115.605 58.2578H119.426C120.043 58.2578 120.547 58.1602 120.938 57.9648C121.328 57.7617 121.617 57.4883 121.805 57.1445C121.992 56.8008 122.086 56.4062 122.086 55.9609C122.086 55.4609 122 55.0273 121.828 54.6602C121.664 54.293 121.398 54.0117 121.031 53.8164C120.664 53.6133 120.18 53.5117 119.578 53.5117H116.191L116.215 51.0977H120.434L121.242 52.0469C122.281 52.0312 123.117 52.2148 123.75 52.5977C124.391 52.9727 124.855 53.4609 125.145 54.0625C125.441 54.6641 125.59 55.3086 125.59 55.9961C125.59 57.0898 125.352 58.0117 124.875 58.7617C124.398 59.5039 123.699 60.0625 122.777 60.4375C121.863 60.8125 120.746 61 119.426 61ZM134.859 58.1406V52.4922C134.859 52.0859 134.793 51.7383 134.66 51.4492C134.527 51.1523 134.32 50.9219 134.039 50.7578C133.766 50.5938 133.41 50.5117 132.973 50.5117C132.598 50.5117 132.273 50.5781 132 50.7109C131.727 50.8359 131.516 51.0195 131.367 51.2617C131.219 51.4961 131.145 51.7734 131.145 52.0938H127.77C127.77 51.5547 127.895 51.043 128.145 50.5586C128.395 50.0742 128.758 49.6484 129.234 49.2812C129.711 48.9062 130.277 48.6133 130.934 48.4023C131.598 48.1914 132.34 48.0859 133.16 48.0859C134.145 48.0859 135.02 48.25 135.785 48.5781C136.551 48.9062 137.152 49.3984 137.59 50.0547C138.035 50.7109 138.258 51.5312 138.258 52.5156V57.9414C138.258 58.6367 138.301 59.207 138.387 59.6523C138.473 60.0898 138.598 60.4727 138.762 60.8008V61H135.352C135.188 60.6562 135.062 60.2266 134.977 59.7109C134.898 59.1875 134.859 58.6641 134.859 58.1406ZM135.305 53.2773L135.328 55.1875H133.441C132.996 55.1875 132.609 55.2383 132.281 55.3398C131.953 55.4414 131.684 55.5859 131.473 55.7734C131.262 55.9531 131.105 56.1641 131.004 56.4062C130.91 56.6484 130.863 56.9141 130.863 57.2031C130.863 57.4922 130.93 57.7539 131.062 57.9883C131.195 58.2148 131.387 58.3945 131.637 58.5273C131.887 58.6523 132.18 58.7148 132.516 58.7148C133.023 58.7148 133.465 58.6133 133.84 58.4102C134.215 58.207 134.504 57.957 134.707 57.6602C134.918 57.3633 135.027 57.082 135.035 56.8164L135.926 58.2461C135.801 58.5664 135.629 58.8984 135.41 59.2422C135.199 59.5859 134.93 59.9102 134.602 60.2148C134.273 60.5117 133.879 60.7578 133.418 60.9531C132.957 61.1406 132.41 61.2344 131.777 61.2344C130.973 61.2344 130.242 61.0742 129.586 60.7539C128.938 60.4258 128.422 59.9766 128.039 59.4062C127.664 58.8281 127.477 58.1719 127.477 57.4375C127.477 56.7734 127.602 56.1836 127.852 55.668C128.102 55.1523 128.469 54.7188 128.953 54.3672C129.445 54.0078 130.059 53.7383 130.793 53.5586C131.527 53.3711 132.379 53.2773 133.348 53.2773H135.305ZM144.234 51.0859V61H140.859V48.3203H144.035L144.234 51.0859ZM148.055 48.2383L147.996 51.3672C147.832 51.3438 147.633 51.3242 147.398 51.3086C147.172 51.2852 146.965 51.2734 146.777 51.2734C146.301 51.2734 145.887 51.3359 145.535 51.4609C145.191 51.5781 144.902 51.7539 144.668 51.9883C144.441 52.2227 144.27 52.5078 144.152 52.8438C144.043 53.1797 143.98 53.5625 143.965 53.9922L143.285 53.7812C143.285 52.9609 143.367 52.207 143.531 51.5195C143.695 50.8242 143.934 50.2188 144.246 49.7031C144.566 49.1875 144.957 48.7891 145.418 48.5078C145.879 48.2266 146.406 48.0859 147 48.0859C147.188 48.0859 147.379 48.1016 147.574 48.1328C147.77 48.1562 147.93 48.1914 148.055 48.2383ZM149.648 43H153.023V58.0938L152.684 61H149.648V43ZM161.051 54.5312V54.7773C161.051 55.7227 160.949 56.5898 160.746 57.3789C160.551 58.168 160.246 58.8516 159.832 59.4297C159.418 60 158.902 60.4453 158.285 60.7656C157.676 61.0781 156.957 61.2344 156.129 61.2344C155.355 61.2344 154.684 61.0781 154.113 60.7656C153.551 60.4531 153.078 60.0117 152.695 59.4414C152.312 58.8711 152.004 58.2031 151.77 57.4375C151.535 56.6719 151.359 55.8359 151.242 54.9297V54.3906C151.359 53.4844 151.535 52.6484 151.77 51.8828C152.004 51.1172 152.312 50.4492 152.695 49.8789C153.078 49.3086 153.551 48.8672 154.113 48.5547C154.676 48.2422 155.34 48.0859 156.105 48.0859C156.941 48.0859 157.668 48.2461 158.285 48.5664C158.91 48.8789 159.426 49.3242 159.832 49.9023C160.246 50.4727 160.551 51.1523 160.746 51.9414C160.949 52.7227 161.051 53.5859 161.051 54.5312ZM157.676 54.7773V54.5312C157.676 54.0156 157.637 53.5312 157.559 53.0781C157.488 52.6172 157.363 52.2148 157.184 51.8711C157.004 51.5195 156.758 51.2422 156.445 51.0391C156.141 50.8359 155.746 50.7344 155.262 50.7344C154.801 50.7344 154.41 50.8125 154.09 50.9688C153.77 51.125 153.504 51.3438 153.293 51.625C153.09 51.9062 152.938 52.2422 152.836 52.6328C152.734 53.0156 152.672 53.4375 152.648 53.8984V55.4336C152.672 56.0508 152.773 56.5977 152.953 57.0742C153.141 57.543 153.422 57.9141 153.797 58.1875C154.18 58.4531 154.676 58.5859 155.285 58.5859C155.762 58.5859 156.156 58.4922 156.469 58.3047C156.781 58.1172 157.023 57.8516 157.195 57.5078C157.375 57.1641 157.5 56.7617 157.57 56.3008C157.641 55.832 157.676 55.3242 157.676 54.7773ZM168.984 61.2344C168 61.2344 167.117 61.0781 166.336 60.7656C165.555 60.4453 164.891 60.0039 164.344 59.4414C163.805 58.8789 163.391 58.2266 163.102 57.4844C162.812 56.7344 162.668 55.9375 162.668 55.0938V54.625C162.668 53.6641 162.805 52.7852 163.078 51.9883C163.352 51.1914 163.742 50.5 164.25 49.9141C164.766 49.3281 165.391 48.8789 166.125 48.5664C166.859 48.2461 167.688 48.0859 168.609 48.0859C169.508 48.0859 170.305 48.2344 171 48.5312C171.695 48.8281 172.277 49.25 172.746 49.7969C173.223 50.3438 173.582 51 173.824 51.7656C174.066 52.5234 174.188 53.3672 174.188 54.2969V55.7031H164.109V53.4531H170.871V53.1953C170.871 52.7266 170.785 52.3086 170.613 51.9414C170.449 51.5664 170.199 51.2695 169.863 51.0508C169.527 50.832 169.098 50.7227 168.574 50.7227C168.129 50.7227 167.746 50.8203 167.426 51.0156C167.105 51.2109 166.844 51.4844 166.641 51.8359C166.445 52.1875 166.297 52.6016 166.195 53.0781C166.102 53.5469 166.055 54.0625 166.055 54.625V55.0938C166.055 55.6016 166.125 56.0703 166.266 56.5C166.414 56.9297 166.621 57.3008 166.887 57.6133C167.16 57.9258 167.488 58.168 167.871 58.3398C168.262 58.5117 168.703 58.5977 169.195 58.5977C169.805 58.5977 170.371 58.4805 170.895 58.2461C171.426 58.0039 171.883 57.6406 172.266 57.1562L173.906 58.9375C173.641 59.3203 173.277 59.6875 172.816 60.0391C172.363 60.3906 171.816 60.6797 171.176 60.9062C170.535 61.125 169.805 61.2344 168.984 61.2344ZM179.484 51.0859V61H176.109V48.3203H179.285L179.484 51.0859ZM183.305 48.2383L183.246 51.3672C183.082 51.3438 182.883 51.3242 182.648 51.3086C182.422 51.2852 182.215 51.2734 182.027 51.2734C181.551 51.2734 181.137 51.3359 180.785 51.4609C180.441 51.5781 180.152 51.7539 179.918 51.9883C179.691 52.2227 179.52 52.5078 179.402 52.8438C179.293 53.1797 179.23 53.5625 179.215 53.9922L178.535 53.7812C178.535 52.9609 178.617 52.207 178.781 51.5195C178.945 50.8242 179.184 50.2188 179.496 49.7031C179.816 49.1875 180.207 48.7891 180.668 48.5078C181.129 48.2266 181.656 48.0859 182.25 48.0859C182.438 48.0859 182.629 48.1016 182.824 48.1328C183.02 48.1562 183.18 48.1914 183.305 48.2383ZM197.766 53.5117H193.383L193.359 51.0977H197.039C197.688 51.0977 198.219 51.0156 198.633 50.8516C199.047 50.6797 199.355 50.4336 199.559 50.1133C199.77 49.7852 199.875 49.3867 199.875 48.918C199.875 48.3867 199.773 47.957 199.57 47.6289C199.375 47.3008 199.066 47.0625 198.645 46.9141C198.23 46.7656 197.695 46.6914 197.039 46.6914H194.602V61H191.086V43.9375H197.039C198.031 43.9375 198.918 44.0312 199.699 44.2188C200.488 44.4062 201.156 44.6914 201.703 45.0742C202.25 45.457 202.668 45.9414 202.957 46.5273C203.246 47.1055 203.391 47.793 203.391 48.5898C203.391 49.293 203.23 49.9414 202.91 50.5352C202.598 51.1289 202.102 51.6133 201.422 51.9883C200.75 52.3633 199.871 52.5703 198.785 52.6094L197.766 53.5117ZM197.613 61H192.422L193.793 58.2578H197.613C198.23 58.2578 198.734 58.1602 199.125 57.9648C199.516 57.7617 199.805 57.4883 199.992 57.1445C200.18 56.8008 200.273 56.4062 200.273 55.9609C200.273 55.4609 200.188 55.0273 200.016 54.6602C199.852 54.293 199.586 54.0117 199.219 53.8164C198.852 53.6133 198.367 53.5117 197.766 53.5117H194.379L194.402 51.0977H198.621L199.43 52.0469C200.469 52.0312 201.305 52.2148 201.938 52.5977C202.578 52.9727 203.043 53.4609 203.332 54.0625C203.629 54.6641 203.777 55.3086 203.777 55.9961C203.777 57.0898 203.539 58.0117 203.062 58.7617C202.586 59.5039 201.887 60.0625 200.965 60.4375C200.051 60.8125 198.934 61 197.613 61ZM209.965 59.5703L213.328 48.3203H216.949L211.852 62.9102C211.742 63.2305 211.594 63.5742 211.406 63.9414C211.227 64.3086 210.98 64.6562 210.668 64.9844C210.363 65.3203 209.977 65.5938 209.508 65.8047C209.047 66.0156 208.48 66.1211 207.809 66.1211C207.488 66.1211 207.227 66.1016 207.023 66.0625C206.82 66.0234 206.578 65.9688 206.297 65.8984V63.4258C206.383 63.4258 206.473 63.4258 206.566 63.4258C206.66 63.4336 206.75 63.4375 206.836 63.4375C207.281 63.4375 207.645 63.3867 207.926 63.2852C208.207 63.1836 208.434 63.0273 208.605 62.8164C208.777 62.6133 208.914 62.3477 209.016 62.0195L209.965 59.5703ZM208.559 48.3203L211.312 57.5078L211.793 61.082L209.496 61.3281L204.938 48.3203H208.559ZM224.508 48.3203V50.7109H217.125V48.3203H224.508ZM218.953 45.1914H222.328V57.1797C222.328 57.5469 222.375 57.8281 222.469 58.0234C222.57 58.2188 222.719 58.3555 222.914 58.4336C223.109 58.5039 223.355 58.5391 223.652 58.5391C223.863 58.5391 224.051 58.5312 224.215 58.5156C224.387 58.4922 224.531 58.4688 224.648 58.4453L224.66 60.9297C224.371 61.0234 224.059 61.0977 223.723 61.1523C223.387 61.207 223.016 61.2344 222.609 61.2344C221.867 61.2344 221.219 61.1133 220.664 60.8711C220.117 60.6211 219.695 60.2227 219.398 59.6758C219.102 59.1289 218.953 58.4102 218.953 57.5195V45.1914ZM232.266 61.2344C231.281 61.2344 230.398 61.0781 229.617 60.7656C228.836 60.4453 228.172 60.0039 227.625 59.4414C227.086 58.8789 226.672 58.2266 226.383 57.4844C226.094 56.7344 225.949 55.9375 225.949 55.0938V54.625C225.949 53.6641 226.086 52.7852 226.359 51.9883C226.633 51.1914 227.023 50.5 227.531 49.9141C228.047 49.3281 228.672 48.8789 229.406 48.5664C230.141 48.2461 230.969 48.0859 231.891 48.0859C232.789 48.0859 233.586 48.2344 234.281 48.5312C234.977 48.8281 235.559 49.25 236.027 49.7969C236.504 50.3438 236.863 51 237.105 51.7656C237.348 52.5234 237.469 53.3672 237.469 54.2969V55.7031H227.391V53.4531H234.152V53.1953C234.152 52.7266 234.066 52.3086 233.895 51.9414C233.73 51.5664 233.48 51.2695 233.145 51.0508C232.809 50.832 232.379 50.7227 231.855 50.7227C231.41 50.7227 231.027 50.8203 230.707 51.0156C230.387 51.2109 230.125 51.4844 229.922 51.8359C229.727 52.1875 229.578 52.6016 229.477 53.0781C229.383 53.5469 229.336 54.0625 229.336 54.625V55.0938C229.336 55.6016 229.406 56.0703 229.547 56.5C229.695 56.9297 229.902 57.3008 230.168 57.6133C230.441 57.9258 230.77 58.168 231.152 58.3398C231.543 58.5117 231.984 58.5977 232.477 58.5977C233.086 58.5977 233.652 58.4805 234.176 58.2461C234.707 58.0039 235.164 57.6406 235.547 57.1562L237.188 58.9375C236.922 59.3203 236.559 59.6875 236.098 60.0391C235.645 60.3906 235.098 60.6797 234.457 60.9062C233.816 61.125 233.086 61.2344 232.266 61.2344Z" fill="#888888"/>
<path d="M114.117 84.875H122.344V107.164C122.344 109.82 121.789 112.07 120.68 113.914C119.57 115.742 118.016 117.125 116.016 118.062C114.016 119 111.664 119.469 108.961 119.469C106.289 119.469 103.938 119 101.906 118.062C99.8906 117.125 98.3125 115.742 97.1719 113.914C96.0469 112.07 95.4844 109.82 95.4844 107.164V84.875H103.734V107.164C103.734 108.57 103.938 109.719 104.344 110.609C104.75 111.484 105.344 112.125 106.125 112.531C106.906 112.938 107.852 113.141 108.961 113.141C110.086 113.141 111.031 112.938 111.797 112.531C112.562 112.125 113.141 111.484 113.531 110.609C113.922 109.719 114.117 108.57 114.117 107.164V84.875ZM134.906 99.0547V119H127.008V93.6406H134.414L134.906 99.0547ZM133.969 105.453L132.117 105.5C132.117 103.562 132.352 101.836 132.82 100.32C133.289 98.7891 133.953 97.4922 134.812 96.4297C135.672 95.3672 136.695 94.5625 137.883 94.0156C139.086 93.4531 140.422 93.1719 141.891 93.1719C143.062 93.1719 144.133 93.3438 145.102 93.6875C146.086 94.0312 146.93 94.5859 147.633 95.3516C148.352 96.1172 148.898 97.1328 149.273 98.3984C149.664 99.6484 149.859 101.195 149.859 103.039V119H141.914V103.016C141.914 102 141.773 101.227 141.492 100.695C141.211 100.148 140.805 99.7734 140.273 99.5703C139.742 99.3672 139.094 99.2656 138.328 99.2656C137.516 99.2656 136.828 99.4219 136.266 99.7344C135.703 100.047 135.25 100.484 134.906 101.047C134.578 101.594 134.336 102.242 134.18 102.992C134.039 103.742 133.969 104.562 133.969 105.453ZM162.586 93.6406V119H154.664V93.6406H162.586ZM154.195 87.1016C154.195 85.9766 154.602 85.0547 155.414 84.3359C156.227 83.6172 157.281 83.2578 158.578 83.2578C159.875 83.2578 160.93 83.6172 161.742 84.3359C162.555 85.0547 162.961 85.9766 162.961 87.1016C162.961 88.2266 162.555 89.1484 161.742 89.8672C160.93 90.5859 159.875 90.9453 158.578 90.9453C157.281 90.9453 156.227 90.5859 155.414 89.8672C154.602 89.1484 154.195 88.2266 154.195 87.1016ZM180.82 93.6406V99.125H165.539V93.6406H180.82ZM168.75 87.3359H176.648V110.727C176.648 111.398 176.727 111.922 176.883 112.297C177.039 112.656 177.305 112.914 177.68 113.07C178.07 113.211 178.586 113.281 179.227 113.281C179.68 113.281 180.055 113.273 180.352 113.258C180.648 113.227 180.93 113.188 181.195 113.141V118.789C180.523 119.008 179.82 119.172 179.086 119.281C178.352 119.406 177.57 119.469 176.742 119.469C175.055 119.469 173.609 119.203 172.406 118.672C171.219 118.141 170.312 117.305 169.688 116.164C169.062 115.023 168.75 113.539 168.75 111.711V87.3359ZM211.406 84.875V119H203.18V84.875H211.406ZM221.672 84.875V91.2266H193.148V84.875H221.672ZM234.961 119.469C232.898 119.469 231.055 119.148 229.43 118.508C227.805 117.852 226.43 116.953 225.305 115.812C224.195 114.672 223.344 113.359 222.75 111.875C222.172 110.391 221.883 108.82 221.883 107.164V106.273C221.883 104.414 222.141 102.695 222.656 101.117C223.172 99.5234 223.938 98.1328 224.953 96.9453C225.969 95.7578 227.242 94.8359 228.773 94.1797C230.305 93.5078 232.086 93.1719 234.117 93.1719C235.914 93.1719 237.523 93.4609 238.945 94.0391C240.367 94.6172 241.57 95.4453 242.555 96.5234C243.555 97.6016 244.312 98.9062 244.828 100.438C245.359 101.969 245.625 103.688 245.625 105.594V108.805H224.906V103.859H237.914V103.25C237.93 102.406 237.781 101.688 237.469 101.094C237.172 100.5 236.734 100.047 236.156 99.7344C235.578 99.4219 234.875 99.2656 234.047 99.2656C233.188 99.2656 232.477 99.4531 231.914 99.8281C231.367 100.203 230.938 100.719 230.625 101.375C230.328 102.016 230.117 102.758 229.992 103.602C229.867 104.445 229.805 105.336 229.805 106.273V107.164C229.805 108.102 229.93 108.953 230.18 109.719C230.445 110.484 230.82 111.141 231.305 111.688C231.805 112.219 232.398 112.633 233.086 112.93C233.789 113.227 234.586 113.375 235.477 113.375C236.555 113.375 237.617 113.172 238.664 112.766C239.711 112.359 240.609 111.688 241.359 110.75L244.945 115.016C244.43 115.75 243.695 116.461 242.742 117.148C241.805 117.836 240.68 118.398 239.367 118.836C238.055 119.258 236.586 119.469 234.961 119.469ZM262.125 111.875C262.125 111.438 261.977 111.062 261.68 110.75C261.398 110.422 260.898 110.125 260.18 109.859C259.461 109.578 258.453 109.297 257.156 109.016C255.922 108.75 254.758 108.398 253.664 107.961C252.586 107.523 251.641 106.992 250.828 106.367C250.016 105.742 249.375 105 248.906 104.141C248.453 103.281 248.227 102.297 248.227 101.188C248.227 100.109 248.453 99.0938 248.906 98.1406C249.375 97.1719 250.055 96.3203 250.945 95.5859C251.852 94.8359 252.953 94.25 254.25 93.8281C255.547 93.3906 257.023 93.1719 258.68 93.1719C260.961 93.1719 262.93 93.5234 264.586 94.2266C266.242 94.9141 267.516 95.8828 268.406 97.1328C269.312 98.3672 269.766 99.7969 269.766 101.422H261.867C261.867 100.781 261.758 100.234 261.539 99.7812C261.336 99.3281 261 98.9844 260.531 98.75C260.062 98.5 259.438 98.375 258.656 98.375C258.109 98.375 257.609 98.4766 257.156 98.6797C256.719 98.8828 256.367 99.1641 256.102 99.5234C255.836 99.8828 255.703 100.305 255.703 100.789C255.703 101.133 255.781 101.445 255.938 101.727C256.109 101.992 256.367 102.242 256.711 102.477C257.055 102.695 257.492 102.898 258.023 103.086C258.555 103.258 259.195 103.414 259.945 103.555C261.648 103.867 263.242 104.312 264.727 104.891C266.211 105.469 267.414 106.289 268.336 107.352C269.273 108.414 269.742 109.844 269.742 111.641C269.742 112.766 269.484 113.805 268.969 114.758C268.453 115.695 267.711 116.523 266.742 117.242C265.773 117.945 264.609 118.492 263.25 118.883C261.891 119.273 260.359 119.469 258.656 119.469C256.234 119.469 254.188 119.039 252.516 118.18C250.844 117.305 249.578 116.211 248.719 114.898C247.875 113.57 247.453 112.227 247.453 110.867H254.812C254.844 111.648 255.031 112.289 255.375 112.789C255.734 113.289 256.211 113.656 256.805 113.891C257.398 114.125 258.086 114.242 258.867 114.242C259.586 114.242 260.18 114.141 260.648 113.938C261.133 113.734 261.5 113.461 261.75 113.117C262 112.758 262.125 112.344 262.125 111.875ZM286.805 93.6406V99.125H271.523V93.6406H286.805ZM274.734 87.3359H282.633V110.727C282.633 111.398 282.711 111.922 282.867 112.297C283.023 112.656 283.289 112.914 283.664 113.07C284.055 113.211 284.57 113.281 285.211 113.281C285.664 113.281 286.039 113.273 286.336 113.258C286.633 113.227 286.914 113.188 287.18 113.141V118.789C286.508 119.008 285.805 119.172 285.07 119.281C284.336 119.406 283.555 119.469 282.727 119.469C281.039 119.469 279.594 119.203 278.391 118.672C277.203 118.141 276.297 117.305 275.672 116.164C275.047 115.023 274.734 113.539 274.734 111.711V87.3359ZM298.289 93.6406V119H290.367V93.6406H298.289ZM289.898 87.1016C289.898 85.9766 290.305 85.0547 291.117 84.3359C291.93 83.6172 292.984 83.2578 294.281 83.2578C295.578 83.2578 296.633 83.6172 297.445 84.3359C298.258 85.0547 298.664 85.9766 298.664 87.1016C298.664 88.2266 298.258 89.1484 297.445 89.8672C296.633 90.5859 295.578 90.9453 294.281 90.9453C292.984 90.9453 291.93 90.5859 291.117 89.8672C290.305 89.1484 289.898 88.2266 289.898 87.1016ZM310.922 99.0547V119H303.023V93.6406H310.43L310.922 99.0547ZM309.984 105.453L308.133 105.5C308.133 103.562 308.367 101.836 308.836 100.32C309.305 98.7891 309.969 97.4922 310.828 96.4297C311.688 95.3672 312.711 94.5625 313.898 94.0156C315.102 93.4531 316.438 93.1719 317.906 93.1719C319.078 93.1719 320.148 93.3438 321.117 93.6875C322.102 94.0312 322.945 94.5859 323.648 95.3516C324.367 96.1172 324.914 97.1328 325.289 98.3984C325.68 99.6484 325.875 101.195 325.875 103.039V119H317.93V103.016C317.93 102 317.789 101.227 317.508 100.695C317.227 100.148 316.82 99.7734 316.289 99.5703C315.758 99.3672 315.109 99.2656 314.344 99.2656C313.531 99.2656 312.844 99.4219 312.281 99.7344C311.719 100.047 311.266 100.484 310.922 101.047C310.594 101.594 310.352 102.242 310.195 102.992C310.055 103.742 309.984 104.562 309.984 105.453ZM346.195 93.6406H353.367V118.016C353.367 120.359 352.828 122.344 351.75 123.969C350.672 125.609 349.164 126.852 347.227 127.695C345.305 128.555 343.055 128.984 340.477 128.984C339.336 128.984 338.172 128.836 336.984 128.539C335.797 128.258 334.688 127.836 333.656 127.273C332.625 126.711 331.758 126.016 331.055 125.188L334.359 120.547C335 121.266 335.805 121.875 336.773 122.375C337.742 122.891 338.883 123.148 340.195 123.148C341.336 123.148 342.289 122.945 343.055 122.539C343.836 122.133 344.43 121.539 344.836 120.758C345.242 119.992 345.445 119.062 345.445 117.969V99.6406L346.195 93.6406ZM329.344 106.625V106.133C329.344 104.211 329.578 102.461 330.047 100.883C330.531 99.2891 331.219 97.9219 332.109 96.7812C333.016 95.625 334.109 94.7344 335.391 94.1094C336.672 93.4844 338.117 93.1719 339.727 93.1719C341.461 93.1719 342.883 93.5078 343.992 94.1797C345.117 94.8359 346.016 95.7578 346.688 96.9453C347.375 98.1328 347.906 99.5234 348.281 101.117C348.672 102.695 349 104.398 349.266 106.227V106.812C349 108.531 348.633 110.156 348.164 111.688C347.711 113.203 347.117 114.547 346.383 115.719C345.648 116.891 344.727 117.812 343.617 118.484C342.523 119.141 341.211 119.469 339.68 119.469C338.086 119.469 336.648 119.148 335.367 118.508C334.102 117.867 333.016 116.969 332.109 115.812C331.219 114.656 330.531 113.297 330.047 111.734C329.578 110.172 329.344 108.469 329.344 106.625ZM337.242 106.133V106.625C337.242 107.578 337.328 108.461 337.5 109.273C337.688 110.086 337.969 110.805 338.344 111.43C338.719 112.039 339.18 112.516 339.727 112.859C340.289 113.203 340.945 113.375 341.695 113.375C342.836 113.375 343.758 113.133 344.461 112.648C345.164 112.164 345.672 111.477 345.984 110.586C346.297 109.695 346.43 108.648 346.383 107.445V105.594C346.414 104.562 346.344 103.656 346.172 102.875C346 102.078 345.727 101.414 345.352 100.883C344.992 100.352 344.508 99.9531 343.898 99.6875C343.305 99.4062 342.586 99.2656 341.742 99.2656C341.008 99.2656 340.359 99.4375 339.797 99.7812C339.234 100.125 338.766 100.609 338.391 101.234C338.016 101.844 337.727 102.57 337.523 103.414C337.336 104.242 337.242 105.148 337.242 106.133Z" fill="black"/>
<path d="M1134 0H1348C1356.28 0 1363 6.71573 1363 15V148C1363 156.284 1356.28 163 1348 163H1134V0Z" fill="#B48C60"/>
<path d="M1210.62 43.625H1286.38V119.375H1210.62V43.625Z" fill="white" fill-opacity="0.01"/>
<path d="M1276.91 72.0312V105.172C1276.91 107.787 1274.79 109.906 1272.17 109.906H1224.83C1222.21 109.906 1220.09 107.787 1220.09 105.172V57.8281C1220.09 55.2134 1222.21 53.0938 1224.83 53.0938H1261.12" stroke="white" stroke-width="7.24" stroke-linecap="round" stroke-linejoin="round"/>
<path d="M1232.72 75.1875L1248.5 87.8125L1276.91 53.0938" stroke="white" stroke-width="7.24" stroke-linecap="round" stroke-linejoin="round"/>
</svg>
